<svg width="896" height="639" viewBox="0 0 896 639" fill="none" xmlns="http://www.w3.org/2000/svg">
<path d="M521 2C623.173 2 706 84.8273 706 187C706 289.173 623.173 372 521 372C418.827 372 336 289.173 336 187C336 159.913 341.822 134.185 352.282 111" stroke="white" stroke-opacity="0.25" stroke-width="3" stroke-linecap="round" stroke-linejoin="round"/>
<circle opacity="0.5" cx="521.4" cy="187.4" r="170.4" fill="white" fill-opacity="0.25"/>
<path d="M425.762 160.615C425.762 151.553 427.386 144.455 430.633 139.322C433.933 134.189 439.381 131.622 446.976 131.622C454.571 131.622 459.992 134.189 463.24 139.322C466.54 144.455 468.19 151.553 468.19 160.615C468.19 169.729 466.54 176.879 463.24 182.064C459.992 187.25 454.571 189.843 446.976 189.843C439.381 189.843 433.933 187.25 430.633 182.064C427.386 176.879 425.762 169.729 425.762 160.615ZM457.347 160.615C457.347 156.738 457.085 153.491 456.561 150.872C456.09 148.2 455.095 146.027 453.576 144.351C452.109 142.674 449.909 141.836 446.976 141.836C444.043 141.836 441.816 142.674 440.297 144.351C438.831 146.027 437.835 148.2 437.312 150.872C436.84 153.491 436.605 156.738 436.605 160.615C436.605 164.596 436.84 167.948 437.312 170.672C437.783 173.343 438.778 175.517 440.297 177.193C441.816 178.817 444.043 179.629 446.976 179.629C449.909 179.629 452.135 178.817 453.654 177.193C455.173 175.517 456.169 173.343 456.64 170.672C457.111 167.948 457.347 164.596 457.347 160.615ZM482.685 190.55C480.694 190.55 479.044 189.948 477.735 188.743C476.478 187.486 475.849 185.941 475.849 184.107C475.849 182.274 476.478 180.755 477.735 179.55C479.044 178.293 480.694 177.664 482.685 177.664C484.623 177.664 486.221 178.293 487.478 179.55C488.735 180.755 489.363 182.274 489.363 184.107C489.363 185.941 488.735 187.486 487.478 188.743C486.221 189.948 484.623 190.55 482.685 190.55ZM495.631 142.858V132.722H514.566V190H503.252V142.858H495.631ZM552.461 190L537.69 171.457V190H526.69V131.858H537.69V164.936L552.304 146.472H566.604L547.433 168.315L566.761 190H552.461ZM589.624 145.765C592.871 145.765 595.726 146.42 598.188 147.729C600.65 148.986 602.588 150.636 604.002 152.679V146.472H615.08V190.314C615.08 194.348 614.269 197.936 612.645 201.078C611.021 204.274 608.585 206.788 605.338 208.621C602.09 210.507 598.162 211.45 593.552 211.45C587.371 211.45 582.29 210.009 578.31 207.128C574.381 204.247 572.155 200.319 571.631 195.343H582.552C583.128 197.333 584.359 198.905 586.245 200.057C588.183 201.262 590.514 201.864 593.238 201.864C596.433 201.864 599.026 200.895 601.016 198.957C603.007 197.071 604.002 194.19 604.002 190.314V183.557C602.588 185.6 600.624 187.302 598.109 188.664C595.647 190.026 592.819 190.707 589.624 190.707C585.957 190.707 582.605 189.764 579.567 187.879C576.529 185.993 574.119 183.348 572.338 179.943C570.61 176.486 569.745 172.531 569.745 168.079C569.745 163.679 570.61 159.777 572.338 156.372C574.119 152.967 576.502 150.348 579.488 148.515C582.526 146.681 585.905 145.765 589.624 145.765ZM604.002 168.236C604.002 165.565 603.478 163.286 602.431 161.4C601.383 159.462 599.969 157.996 598.188 157C596.407 155.953 594.495 155.429 592.452 155.429C590.409 155.429 588.524 155.927 586.795 156.922C585.067 157.917 583.652 159.384 582.552 161.322C581.505 163.207 580.981 165.46 580.981 168.079C580.981 170.698 581.505 173.003 582.552 174.993C583.652 176.931 585.067 178.424 586.795 179.472C588.576 180.519 590.462 181.043 592.452 181.043C594.495 181.043 596.407 180.545 598.188 179.55C599.969 178.503 601.383 177.036 602.431 175.15C603.478 173.212 604.002 170.907 604.002 168.236Z" fill="white"/>
<path d="M491.647 253V231.182H504.815V233.526H494.289V240.898H504.133V243.241H494.289V250.656H504.985V253H491.647ZM525.67 231.182H528.312V245.628C528.312 247.119 527.961 248.451 527.258 249.623C526.562 250.788 525.578 251.707 524.307 252.382C523.035 253.05 521.544 253.384 519.832 253.384C518.12 253.384 516.629 253.05 515.358 252.382C514.086 251.707 513.099 250.788 512.396 249.623C511.7 248.451 511.352 247.119 511.352 245.628V231.182H513.994V245.415C513.994 246.48 514.228 247.428 514.697 248.259C515.166 249.083 515.834 249.733 516.7 250.209C517.574 250.678 518.618 250.912 519.832 250.912C521.047 250.912 522.091 250.678 522.964 250.209C523.838 249.733 524.505 249.083 524.967 248.259C525.436 247.428 525.67 246.48 525.67 245.415V231.182ZM536.258 253H533.488L541.5 231.182H544.227L552.238 253H549.468L542.949 234.634H542.778L536.258 253ZM537.281 244.477H548.446V246.821H537.281V244.477Z" fill="white"/>
<circle opacity="0.5" cx="744.843" cy="368.843" r="138.843" fill="white" fill-opacity="0.25"/>
<path d="M745 219C827.843 219 895 286.157 895 369C895 451.843 827.843 519 745 519C662.157 519 595 451.843 595 369C595 347.037 599.72 326.177 608.201 307.378" stroke="white" stroke-opacity="0.25" stroke-width="2" stroke-linecap="round" stroke-linejoin="round"/>
<path d="M664.201 346.97C664.201 341.409 665.197 337.055 667.19 333.905C669.215 330.755 672.557 329.18 677.217 329.18C681.878 329.18 685.204 330.755 687.197 333.905C689.221 337.055 690.234 341.409 690.234 346.97C690.234 352.562 689.221 356.949 687.197 360.131C685.204 363.313 681.878 364.904 677.217 364.904C672.557 364.904 669.215 363.313 667.19 360.131C665.197 356.949 664.201 352.562 664.201 346.97ZM683.581 346.97C683.581 344.591 683.42 342.599 683.099 340.992C682.81 339.353 682.199 338.019 681.267 336.99C680.367 335.962 679.017 335.448 677.217 335.448C675.417 335.448 674.052 335.962 673.119 336.99C672.22 338.019 671.609 339.353 671.288 340.992C670.998 342.599 670.854 344.591 670.854 346.97C670.854 349.412 670.998 351.469 671.288 353.14C671.577 354.78 672.187 356.113 673.119 357.142C674.052 358.138 675.417 358.636 677.217 358.636C679.017 358.636 680.383 358.138 681.315 357.142C682.247 356.113 682.858 354.78 683.147 353.14C683.436 351.469 683.581 349.412 683.581 346.97ZM699.128 365.337C697.906 365.337 696.894 364.968 696.091 364.229C695.319 363.457 694.934 362.509 694.934 361.384C694.934 360.259 695.319 359.327 696.091 358.588C696.894 357.817 697.906 357.431 699.128 357.431C700.317 357.431 701.297 357.817 702.069 358.588C702.84 359.327 703.226 360.259 703.226 361.384C703.226 362.509 702.84 363.457 702.069 364.229C701.297 364.968 700.317 365.337 699.128 365.337ZM707.891 346.97C707.891 341.409 708.887 337.055 710.88 333.905C712.904 330.755 716.247 329.18 720.907 329.18C725.567 329.18 728.894 330.755 730.886 333.905C732.911 337.055 733.924 341.409 733.924 346.97C733.924 352.562 732.911 356.949 730.886 360.131C728.894 363.313 725.567 364.904 720.907 364.904C716.247 364.904 712.904 363.313 710.88 360.131C708.887 356.949 707.891 352.562 707.891 346.97ZM727.271 346.97C727.271 344.591 727.11 342.599 726.789 340.992C726.499 339.353 725.889 338.019 724.957 336.99C724.057 335.962 722.707 335.448 720.907 335.448C719.107 335.448 717.741 335.962 716.809 336.99C715.909 338.019 715.299 339.353 714.977 340.992C714.688 342.599 714.543 344.591 714.543 346.97C714.543 349.412 714.688 351.469 714.977 353.14C715.267 354.78 715.877 356.113 716.809 357.142C717.741 358.138 719.107 358.636 720.907 358.636C722.707 358.636 724.073 358.138 725.005 357.142C725.937 356.113 726.548 354.78 726.837 353.14C727.126 351.469 727.271 349.412 727.271 346.97ZM762.68 335.689H747.06V343.932C747.735 343.097 748.699 342.422 749.953 341.908C751.206 341.361 752.54 341.088 753.954 341.088C756.525 341.088 758.63 341.651 760.269 342.775C761.909 343.9 763.098 345.347 763.837 347.114C764.576 348.85 764.946 350.714 764.946 352.707C764.946 356.403 763.885 359.376 761.764 361.625C759.675 363.875 756.686 365 752.797 365C749.133 365 746.208 364.084 744.023 362.252C741.837 360.42 740.6 358.026 740.311 355.069H746.867C747.156 356.354 747.799 357.383 748.796 358.154C749.824 358.926 751.126 359.311 752.701 359.311C754.597 359.311 756.027 358.717 756.991 357.528C757.955 356.338 758.437 354.764 758.437 352.803C758.437 350.81 757.939 349.3 756.943 348.271C755.979 347.211 754.549 346.68 752.652 346.68C751.302 346.68 750.178 347.018 749.278 347.693C748.378 348.368 747.735 349.268 747.349 350.393H740.889V329.759H762.68V335.689ZM786.667 365L777.603 353.623V365H770.854V329.325H777.603V349.621L786.57 338.292H795.344L783.581 351.694L795.441 365H786.667ZM809.469 337.858C811.462 337.858 813.213 338.26 814.724 339.063C816.234 339.835 817.424 340.847 818.291 342.1V338.292H825.089V365.193C825.089 367.668 824.591 369.869 823.594 371.798C822.598 373.758 821.104 375.301 819.111 376.426C817.118 377.583 814.708 378.161 811.88 378.161C808.087 378.161 804.97 377.277 802.527 375.51C800.116 373.742 798.75 371.332 798.429 368.278H805.13C805.484 369.5 806.239 370.464 807.396 371.171C808.585 371.91 810.015 372.28 811.687 372.28C813.647 372.28 815.238 371.685 816.459 370.496C817.681 369.339 818.291 367.571 818.291 365.193V361.047C817.424 362.3 816.218 363.345 814.676 364.18C813.165 365.016 811.43 365.434 809.469 365.434C807.219 365.434 805.162 364.855 803.298 363.698C801.434 362.541 799.956 360.918 798.863 358.829C797.802 356.708 797.272 354.281 797.272 351.55C797.272 348.85 797.802 346.455 798.863 344.366C799.956 342.277 801.418 340.67 803.25 339.545C805.114 338.421 807.187 337.858 809.469 337.858ZM818.291 351.646C818.291 350.007 817.97 348.609 817.327 347.452C816.684 346.263 815.817 345.363 814.724 344.752C813.631 344.109 812.458 343.788 811.205 343.788C809.951 343.788 808.794 344.093 807.734 344.704C806.673 345.314 805.805 346.214 805.13 347.404C804.487 348.561 804.166 349.943 804.166 351.55C804.166 353.157 804.487 354.571 805.13 355.792C805.805 356.981 806.673 357.897 807.734 358.54C808.826 359.183 809.983 359.504 811.205 359.504C812.458 359.504 813.631 359.199 814.724 358.588C815.817 357.945 816.684 357.045 817.327 355.888C817.97 354.699 818.291 353.285 818.291 351.646Z" fill="white"/>
<path d="M698.608 423.53C698.608 421.49 699.068 419.66 699.988 418.04C700.908 416.4 702.158 415.12 703.738 414.2C705.338 413.28 707.108 412.82 709.048 412.82C711.328 412.82 713.318 413.37 715.018 414.47C716.718 415.57 717.958 417.13 718.738 419.15H715.468C714.888 417.89 714.048 416.92 712.948 416.24C711.868 415.56 710.568 415.22 709.048 415.22C707.588 415.22 706.278 415.56 705.118 416.24C703.958 416.92 703.048 417.89 702.388 419.15C701.728 420.39 701.398 421.85 701.398 423.53C701.398 425.19 701.728 426.65 702.388 427.91C703.048 429.15 703.958 430.11 705.118 430.79C706.278 431.47 707.588 431.81 709.048 431.81C710.568 431.81 711.868 431.48 712.948 430.82C714.048 430.14 714.888 429.17 715.468 427.91H718.738C717.958 429.91 716.718 431.46 715.018 432.56C713.318 433.64 711.328 434.18 709.048 434.18C707.108 434.18 705.338 433.73 703.738 432.83C702.158 431.91 700.908 430.64 699.988 429.02C699.068 427.4 698.608 425.57 698.608 423.53ZM732.409 417.26C733.649 417.26 734.769 417.53 735.769 418.07C736.769 418.59 737.549 419.38 738.109 420.44C738.689 421.5 738.979 422.79 738.979 424.31V434H736.279V424.7C736.279 423.06 735.869 421.81 735.049 420.95C734.229 420.07 733.109 419.63 731.689 419.63C730.249 419.63 729.099 420.08 728.239 420.98C727.399 421.88 726.979 423.19 726.979 424.91V434H724.249V411.8H726.979V419.9C727.519 419.06 728.259 418.41 729.199 417.95C730.159 417.49 731.229 417.26 732.409 417.26ZM746.294 414.89C745.774 414.89 745.334 414.71 744.974 414.35C744.614 413.99 744.434 413.55 744.434 413.03C744.434 412.51 744.614 412.07 744.974 411.71C745.334 411.35 745.774 411.17 746.294 411.17C746.794 411.17 747.214 411.35 747.554 411.71C747.914 412.07 748.094 412.51 748.094 413.03C748.094 413.55 747.914 413.99 747.554 414.35C747.214 414.71 746.794 414.89 746.294 414.89ZM747.614 417.56V434H744.884V417.56H747.614ZM761.723 417.26C763.723 417.26 765.343 417.87 766.583 419.09C767.823 420.29 768.443 422.03 768.443 424.31V434H765.743V424.7C765.743 423.06 765.333 421.81 764.513 420.95C763.693 420.07 762.573 419.63 761.153 419.63C759.713 419.63 758.563 420.08 757.703 420.98C756.863 421.88 756.443 423.19 756.443 424.91V434H753.713V417.56H756.443V419.9C756.983 419.06 757.713 418.41 758.633 417.95C759.573 417.49 760.603 417.26 761.723 417.26ZM773.329 425.72C773.329 424.04 773.669 422.57 774.349 421.31C775.029 420.03 775.959 419.04 777.139 418.34C778.339 417.64 779.669 417.29 781.129 417.29C782.569 417.29 783.819 417.6 784.879 418.22C785.939 418.84 786.729 419.62 787.249 420.56V417.56H790.009V434H787.249V430.94C786.709 431.9 785.899 432.7 784.819 433.34C783.759 433.96 782.519 434.27 781.099 434.27C779.639 434.27 778.319 433.91 777.139 433.19C775.959 432.47 775.029 431.46 774.349 430.16C773.669 428.86 773.329 427.38 773.329 425.72ZM787.249 425.75C787.249 424.51 786.999 423.43 786.499 422.51C785.999 421.59 785.319 420.89 784.459 420.41C783.619 419.91 782.689 419.66 781.669 419.66C780.649 419.66 779.719 419.9 778.879 420.38C778.039 420.86 777.369 421.56 776.869 422.48C776.369 423.4 776.119 424.48 776.119 425.72C776.119 426.98 776.369 428.08 776.869 429.02C777.369 429.94 778.039 430.65 778.879 431.15C779.719 431.63 780.649 431.87 781.669 431.87C782.689 431.87 783.619 431.63 784.459 431.15C785.319 430.65 785.999 429.94 786.499 429.02C786.999 428.08 787.249 426.99 787.249 425.75Z" fill="white"/>
<path d="M239 163C369.891 163 476 269.109 476 400C476 530.891 369.891 637 239 637C108.109 637 2 530.891 2 400C2 343.086 22.0618 290.857 55.4996 250" stroke="white" stroke-opacity="0.25" stroke-width="4" stroke-linecap="round" stroke-linejoin="round"/>
<circle opacity="0.5" cx="239.143" cy="399.924" r="221.143" fill="white" fill-opacity="0.25"/>
<path d="M91.7911 388.096C91.7911 377.024 93.7751 368.352 97.7431 362.08C101.775 355.808 108.431 352.672 117.711 352.672C126.991 352.672 133.615 355.808 137.583 362.08C141.615 368.352 143.631 377.024 143.631 388.096C143.631 399.232 141.615 407.968 137.583 414.304C133.615 420.64 126.991 423.808 117.711 423.808C108.431 423.808 101.775 420.64 97.7431 414.304C93.7751 407.968 91.7911 399.232 91.7911 388.096ZM130.383 388.096C130.383 383.36 130.063 379.392 129.423 376.192C128.847 372.928 127.631 370.272 125.775 368.224C123.983 366.176 121.295 365.152 117.711 365.152C114.127 365.152 111.407 366.176 109.551 368.224C107.759 370.272 106.543 372.928 105.903 376.192C105.327 379.392 105.039 383.36 105.039 388.096C105.039 392.96 105.327 397.056 105.903 400.384C106.479 403.648 107.695 406.304 109.551 408.352C111.407 410.336 114.127 411.328 117.711 411.328C121.295 411.328 124.015 410.336 125.871 408.352C127.727 406.304 128.943 403.648 129.519 400.384C130.095 397.056 130.383 392.96 130.383 388.096ZM161.342 424.672C158.91 424.672 156.894 423.936 155.294 422.464C153.758 420.928 152.99 419.04 152.99 416.8C152.99 414.56 153.758 412.704 155.294 411.232C156.894 409.696 158.91 408.928 161.342 408.928C163.71 408.928 165.662 409.696 167.198 411.232C168.734 412.704 169.502 414.56 169.502 416.8C169.502 419.04 168.734 420.928 167.198 422.464C165.662 423.936 163.71 424.672 161.342 424.672ZM177.159 366.4V354.016H200.295V424H186.471V366.4H177.159ZM225.284 386.944C218.884 383.616 215.684 378.464 215.684 371.488C215.684 368.032 216.548 364.896 218.276 362.08C220.068 359.2 222.724 356.928 226.244 355.264C229.828 353.536 234.18 352.672 239.3 352.672C244.42 352.672 248.74 353.536 252.26 355.264C255.844 356.928 258.5 359.2 260.228 362.08C262.02 364.896 262.916 368.032 262.916 371.488C262.916 375.008 262.052 378.112 260.324 380.8C258.596 383.424 256.292 385.472 253.412 386.944C256.932 388.48 259.684 390.72 261.668 393.664C263.652 396.608 264.644 400.096 264.644 404.128C264.644 408.48 263.524 412.288 261.284 415.552C259.108 418.752 256.1 421.216 252.26 422.944C248.42 424.672 244.1 425.536 239.3 425.536C234.5 425.536 230.18 424.672 226.34 422.944C222.564 421.216 219.556 418.752 217.316 415.552C215.14 412.288 214.052 408.48 214.052 404.128C214.052 400.096 215.044 396.608 217.028 393.664C219.012 390.656 221.764 388.416 225.284 386.944ZM249.86 373.408C249.86 370.272 248.9 367.84 246.98 366.112C245.124 364.384 242.564 363.52 239.3 363.52C236.1 363.52 233.54 364.384 231.62 366.112C229.764 367.84 228.836 370.304 228.836 373.504C228.836 376.384 229.796 378.688 231.716 380.416C233.7 382.144 236.228 383.008 239.3 383.008C242.372 383.008 244.9 382.144 246.884 380.416C248.868 378.624 249.86 376.288 249.86 373.408ZM239.3 392.8C235.652 392.8 232.676 393.728 230.372 395.584C228.132 397.44 227.012 400.096 227.012 403.552C227.012 406.752 228.1 409.376 230.276 411.424C232.516 413.408 235.524 414.4 239.3 414.4C243.076 414.4 246.052 413.376 248.228 411.328C250.404 409.28 251.492 406.688 251.492 403.552C251.492 400.16 250.372 397.536 248.132 395.68C245.892 393.76 242.948 392.8 239.3 392.8ZM308.284 424L290.236 401.344V424H276.796V352.96H290.236V393.376L308.092 370.816H325.564L302.14 397.504L325.756 424H308.284ZM353.69 369.952C357.658 369.952 361.146 370.752 364.154 372.352C367.162 373.888 369.53 375.904 371.258 378.4V370.816H384.794V424.384C384.794 429.312 383.802 433.696 381.818 437.536C379.834 441.44 376.858 444.512 372.89 446.752C368.922 449.056 364.122 450.208 358.49 450.208C350.938 450.208 344.73 448.448 339.866 444.928C335.066 441.408 332.346 436.608 331.706 430.528H345.05C345.754 432.96 347.258 434.88 349.562 436.288C351.93 437.76 354.778 438.496 358.106 438.496C362.01 438.496 365.178 437.312 367.61 434.944C370.042 432.64 371.258 429.12 371.258 424.384V416.128C369.53 418.624 367.13 420.704 364.058 422.368C361.05 424.032 357.594 424.864 353.69 424.864C349.21 424.864 345.114 423.712 341.402 421.408C337.69 419.104 334.746 415.872 332.57 411.712C330.458 407.488 329.402 402.656 329.402 397.216C329.402 391.84 330.458 387.072 332.57 382.912C334.746 378.752 337.658 375.552 341.306 373.312C345.018 371.072 349.146 369.952 353.69 369.952ZM371.258 397.408C371.258 394.144 370.618 391.36 369.338 389.056C368.058 386.688 366.33 384.896 364.154 383.68C361.978 382.4 359.642 381.76 357.146 381.76C354.65 381.76 352.346 382.368 350.234 383.584C348.122 384.8 346.394 386.592 345.05 388.96C343.77 391.264 343.13 394.016 343.13 397.216C343.13 400.416 343.77 403.232 345.05 405.664C346.394 408.032 348.122 409.856 350.234 411.136C352.41 412.416 354.714 413.056 357.146 413.056C359.642 413.056 361.978 412.448 364.154 411.232C366.33 409.952 368.058 408.16 369.338 405.856C370.618 403.488 371.258 400.672 371.258 397.408Z" fill="white"/>
<path d="M199.087 501V479.182H206.715C208.235 479.182 209.488 479.445 210.476 479.97C211.463 480.489 212.198 481.188 212.681 482.069C213.164 482.942 213.405 483.912 213.405 484.977C213.405 485.915 213.238 486.689 212.905 487.3C212.578 487.911 212.145 488.393 211.605 488.749C211.072 489.104 210.493 489.366 209.868 489.537V489.75C210.536 489.793 211.207 490.027 211.882 490.453C212.557 490.879 213.121 491.49 213.576 492.286C214.03 493.081 214.258 494.054 214.258 495.205C214.258 496.298 214.009 497.282 213.512 498.156C213.015 499.029 212.23 499.722 211.157 500.233C210.085 500.744 208.689 501 206.971 501H199.087ZM201.729 498.656H206.971C208.696 498.656 209.922 498.322 210.646 497.655C211.378 496.98 211.743 496.163 211.743 495.205C211.743 494.466 211.555 493.784 211.179 493.159C210.802 492.527 210.266 492.023 209.57 491.646C208.874 491.263 208.05 491.071 207.098 491.071H201.729V498.656ZM201.729 488.77H206.63C207.425 488.77 208.142 488.614 208.782 488.301C209.428 487.989 209.939 487.548 210.316 486.98C210.699 486.412 210.891 485.744 210.891 484.977C210.891 484.018 210.557 483.205 209.89 482.538C209.222 481.863 208.164 481.526 206.715 481.526H201.729V488.77ZM219.766 501V484.636H222.195V487.108H222.365C222.663 486.298 223.203 485.641 223.984 485.137C224.766 484.633 225.646 484.381 226.626 484.381C226.811 484.381 227.042 484.384 227.319 484.391C227.596 484.398 227.805 484.409 227.947 484.423V486.98C227.862 486.959 227.667 486.927 227.362 486.884C227.063 486.835 226.747 486.81 226.413 486.81C225.618 486.81 224.908 486.977 224.283 487.31C223.665 487.637 223.175 488.092 222.813 488.674C222.457 489.249 222.28 489.906 222.28 490.645V501H219.766ZM237.251 501.384C236.214 501.384 235.273 501.188 234.428 500.798C233.583 500.4 232.911 499.828 232.414 499.082C231.917 498.33 231.669 497.42 231.669 496.355C231.669 495.418 231.853 494.658 232.222 494.075C232.592 493.486 233.085 493.024 233.703 492.69C234.321 492.357 235.003 492.108 235.749 491.945C236.502 491.774 237.258 491.639 238.018 491.54C239.012 491.412 239.818 491.316 240.436 491.252C241.061 491.181 241.516 491.064 241.8 490.901C242.091 490.737 242.237 490.453 242.237 490.048V489.963C242.237 488.912 241.949 488.095 241.374 487.513C240.806 486.93 239.943 486.639 238.785 486.639C237.585 486.639 236.644 486.902 235.962 487.428C235.28 487.953 234.801 488.514 234.524 489.111L232.137 488.259C232.563 487.264 233.132 486.49 233.842 485.936C234.559 485.375 235.34 484.984 236.186 484.764C237.038 484.537 237.876 484.423 238.7 484.423C239.225 484.423 239.829 484.487 240.511 484.615C241.2 484.736 241.864 484.988 242.503 485.371C243.149 485.755 243.686 486.334 244.112 487.108C244.538 487.882 244.751 488.919 244.751 490.219V501H242.237V498.784H242.109C241.938 499.139 241.654 499.519 241.257 499.924C240.859 500.329 240.33 500.673 239.669 500.957C239.009 501.241 238.203 501.384 237.251 501.384ZM237.634 499.125C238.629 499.125 239.467 498.93 240.149 498.539C240.838 498.148 241.356 497.644 241.704 497.026C242.059 496.408 242.237 495.759 242.237 495.077V492.776C242.13 492.903 241.896 493.021 241.534 493.127C241.178 493.227 240.767 493.315 240.298 493.393C239.836 493.464 239.385 493.528 238.945 493.585C238.512 493.635 238.16 493.678 237.89 493.713C237.237 493.798 236.626 493.937 236.058 494.129C235.497 494.313 235.042 494.594 234.694 494.97C234.353 495.339 234.183 495.844 234.183 496.483C234.183 497.357 234.506 498.017 235.152 498.464C235.806 498.905 236.633 499.125 237.634 499.125ZM262.439 488.301L260.18 488.94C260.038 488.564 259.828 488.198 259.551 487.843C259.282 487.481 258.912 487.183 258.444 486.948C257.975 486.714 257.375 486.597 256.643 486.597C255.642 486.597 254.807 486.827 254.14 487.289C253.479 487.744 253.149 488.322 253.149 489.026C253.149 489.651 253.376 490.144 253.831 490.506C254.285 490.869 254.995 491.17 255.961 491.412L258.39 492.009C259.853 492.364 260.944 492.907 261.661 493.638C262.378 494.363 262.737 495.297 262.737 496.44C262.737 497.378 262.467 498.216 261.927 498.955C261.395 499.693 260.649 500.276 259.69 500.702C258.731 501.128 257.616 501.341 256.345 501.341C254.676 501.341 253.294 500.979 252.201 500.254C251.107 499.53 250.414 498.472 250.123 497.08L252.51 496.483C252.737 497.364 253.167 498.024 253.799 498.464C254.438 498.905 255.272 499.125 256.302 499.125C257.474 499.125 258.404 498.876 259.093 498.379C259.789 497.875 260.137 497.271 260.137 496.568C260.137 496 259.939 495.524 259.541 495.141C259.143 494.75 258.532 494.459 257.708 494.267L254.981 493.628C253.483 493.273 252.382 492.722 251.679 491.977C250.983 491.224 250.635 490.283 250.635 489.153C250.635 488.23 250.894 487.413 251.412 486.703C251.938 485.993 252.652 485.435 253.554 485.031C254.463 484.626 255.493 484.423 256.643 484.423C258.262 484.423 259.534 484.778 260.457 485.489C261.387 486.199 262.048 487.136 262.439 488.301ZM268.029 501V484.636H270.543V501H268.029ZM269.308 481.909C268.818 481.909 268.395 481.742 268.04 481.408C267.692 481.075 267.518 480.673 267.518 480.205C267.518 479.736 267.692 479.335 268.04 479.001C268.395 478.667 268.818 478.5 269.308 478.5C269.798 478.5 270.217 478.667 270.565 479.001C270.92 479.335 271.097 479.736 271.097 480.205C271.097 480.673 270.92 481.075 270.565 481.408C270.217 481.742 269.798 481.909 269.308 481.909ZM279.17 479.182V501H276.656V479.182H279.17Z" fill="white"/>
</svg>
