<svg width="1744" height="40" viewBox="0 0 1744 40" fill="none" xmlns="http://www.w3.org/2000/svg">
<line opacity="0.5" x1="62" y1="19" x2="1553" y2="18.9999" stroke="#3BC7DA" stroke-width="2"/>
<path d="M1595.05 16.5C1594.86 15.9261 1594.61 15.4119 1594.3 14.9574C1594 14.4972 1593.64 14.1051 1593.22 13.7812C1592.81 13.4574 1592.34 13.2102 1591.81 13.0398C1591.28 12.8693 1590.7 12.7841 1590.07 12.7841C1589.03 12.7841 1588.09 13.0511 1587.25 13.5852C1586.4 14.1193 1585.73 14.9062 1585.23 15.946C1584.73 16.9858 1584.48 18.2614 1584.48 19.7727C1584.48 21.2841 1584.73 22.5597 1585.24 23.5994C1585.74 24.6392 1586.43 25.4261 1587.29 25.9602C1588.15 26.4943 1589.13 26.7614 1590.2 26.7614C1591.2 26.7614 1592.09 26.5483 1592.85 26.1222C1593.61 25.6903 1594.21 25.0824 1594.64 24.2983C1595.07 23.5085 1595.28 22.5795 1595.28 21.5114L1595.93 21.6477H1590.68V19.7727H1597.33V21.6477C1597.33 23.0852 1597.02 24.3352 1596.41 25.3977C1595.8 26.4602 1594.96 27.2841 1593.89 27.8693C1592.82 28.4489 1591.59 28.7386 1590.2 28.7386C1588.66 28.7386 1587.3 28.375 1586.13 27.6477C1584.97 26.9205 1584.06 25.8864 1583.4 24.5455C1582.76 23.2045 1582.43 21.6136 1582.43 19.7727C1582.43 18.392 1582.62 17.1506 1582.99 16.0483C1583.36 14.9403 1583.89 13.9972 1584.57 13.2188C1585.25 12.4403 1586.06 11.8438 1586.99 11.429C1587.92 11.0142 1588.95 10.8068 1590.07 10.8068C1590.99 10.8068 1591.85 10.946 1592.64 11.2244C1593.44 11.4972 1594.16 11.8864 1594.78 12.392C1595.41 12.892 1595.94 13.4915 1596.36 14.1903C1596.78 14.8835 1597.07 15.6534 1597.23 16.5H1595.05ZM1601.97 11.0455V28.5H1599.96V11.0455H1601.97ZM1610.25 28.7727C1609.07 28.7727 1608.03 28.4915 1607.14 27.929C1606.25 27.3665 1605.56 26.5795 1605.06 25.5682C1604.57 24.5568 1604.32 23.375 1604.32 22.0227C1604.32 20.6591 1604.57 19.4687 1605.06 18.4517C1605.56 17.4347 1606.25 16.6449 1607.14 16.0824C1608.03 15.5199 1609.07 15.2386 1610.25 15.2386C1611.43 15.2386 1612.47 15.5199 1613.35 16.0824C1614.24 16.6449 1614.94 17.4347 1615.43 18.4517C1615.93 19.4687 1616.18 20.6591 1616.18 22.0227C1616.18 23.375 1615.93 24.5568 1615.43 25.5682C1614.94 26.5795 1614.24 27.3665 1613.35 27.929C1612.47 28.4915 1611.43 28.7727 1610.25 28.7727ZM1610.25 26.9659C1611.15 26.9659 1611.89 26.7358 1612.47 26.2756C1613.05 25.8153 1613.47 25.2102 1613.75 24.4602C1614.03 23.7102 1614.17 22.8977 1614.17 22.0227C1614.17 21.1477 1614.03 20.3324 1613.75 19.5767C1613.47 18.821 1613.05 18.2102 1612.47 17.7443C1611.89 17.2784 1611.15 17.0455 1610.25 17.0455C1609.35 17.0455 1608.61 17.2784 1608.03 17.7443C1607.45 18.2102 1607.03 18.821 1606.75 19.5767C1606.47 20.3324 1606.33 21.1477 1606.33 22.0227C1606.33 22.8977 1606.47 23.7102 1606.75 24.4602C1607.03 25.2102 1607.45 25.8153 1608.03 26.2756C1608.61 26.7358 1609.35 26.9659 1610.25 26.9659ZM1618.81 28.5V11.0455H1620.82V17.4886H1620.99C1621.13 17.2614 1621.34 16.9716 1621.6 16.6193C1621.87 16.2614 1622.25 15.9432 1622.74 15.6648C1623.24 15.3807 1623.92 15.2386 1624.77 15.2386C1625.87 15.2386 1626.84 15.5142 1627.69 16.0653C1628.53 16.6165 1629.18 17.3977 1629.65 18.4091C1630.13 19.4205 1630.36 20.6136 1630.36 21.9886C1630.36 23.375 1630.13 24.5767 1629.65 25.5938C1629.18 26.6051 1628.53 27.3892 1627.69 27.946C1626.86 28.4972 1625.9 28.7727 1624.81 28.7727C1623.96 28.7727 1623.29 28.6335 1622.79 28.3551C1622.28 28.071 1621.89 27.75 1621.62 27.392C1621.34 27.0284 1621.13 26.7273 1620.99 26.4886H1620.75V28.5H1618.81ZM1620.78 21.9545C1620.78 22.9432 1620.93 23.8153 1621.22 24.571C1621.51 25.321 1621.93 25.9091 1622.49 26.3352C1623.04 26.7557 1623.73 26.9659 1624.53 26.9659C1625.37 26.9659 1626.08 26.7443 1626.64 26.3011C1627.21 25.8523 1627.63 25.25 1627.92 24.4943C1628.21 23.733 1628.35 22.8864 1628.35 21.9545C1628.35 21.0341 1628.21 20.2045 1627.92 19.4659C1627.65 18.7216 1627.22 18.1335 1626.65 17.7017C1626.09 17.2642 1625.38 17.0455 1624.53 17.0455C1623.71 17.0455 1623.03 17.2528 1622.47 17.6676C1621.91 18.0767 1621.49 18.6506 1621.21 19.3892C1620.92 20.1222 1620.78 20.9773 1620.78 21.9545ZM1636.57 28.8068C1635.74 28.8068 1634.99 28.6506 1634.31 28.3381C1633.64 28.0199 1633.1 27.5625 1632.7 26.9659C1632.3 26.3636 1632.11 25.6364 1632.11 24.7841C1632.11 24.0341 1632.25 23.4261 1632.55 22.9602C1632.84 22.4886 1633.24 22.1193 1633.73 21.8523C1634.23 21.5852 1634.77 21.3864 1635.37 21.2557C1635.97 21.1193 1636.58 21.0114 1637.18 20.9318C1637.98 20.8295 1638.62 20.7528 1639.12 20.7017C1639.62 20.6449 1639.98 20.5511 1640.21 20.4205C1640.44 20.2898 1640.56 20.0625 1640.56 19.7386V19.6705C1640.56 18.8295 1640.33 18.1761 1639.87 17.7102C1639.41 17.2443 1638.72 17.0114 1637.8 17.0114C1636.84 17.0114 1636.09 17.2216 1635.54 17.642C1634.99 18.0625 1634.61 18.5114 1634.39 18.9886L1632.48 18.3068C1632.82 17.5114 1633.28 16.892 1633.84 16.4489C1634.42 16 1635.04 15.6875 1635.72 15.5114C1636.4 15.3295 1637.07 15.2386 1637.73 15.2386C1638.15 15.2386 1638.63 15.2898 1639.18 15.392C1639.73 15.4886 1640.26 15.6903 1640.77 15.9972C1641.29 16.304 1641.72 16.767 1642.06 17.3864C1642.4 18.0057 1642.57 18.8352 1642.57 19.875V28.5H1640.56V26.7273H1640.46C1640.32 27.0114 1640.09 27.3153 1639.78 27.6392C1639.46 27.9631 1639.03 28.2386 1638.51 28.4659C1637.98 28.6932 1637.33 28.8068 1636.57 28.8068ZM1636.88 27C1637.67 27 1638.34 26.8438 1638.89 26.5312C1639.44 26.2188 1639.86 25.8153 1640.13 25.321C1640.42 24.8267 1640.56 24.3068 1640.56 23.7614V21.9205C1640.47 22.0227 1640.29 22.1165 1640 22.2017C1639.71 22.2812 1639.38 22.3523 1639.01 22.4148C1638.64 22.4716 1638.28 22.5227 1637.93 22.5682C1637.58 22.608 1637.3 22.642 1637.08 22.6705C1636.56 22.7386 1636.07 22.8494 1635.62 23.0028C1635.17 23.1506 1634.8 23.375 1634.53 23.6761C1634.25 23.9716 1634.12 24.375 1634.12 24.8864C1634.12 25.5852 1634.37 26.1136 1634.89 26.4716C1635.41 26.8239 1636.08 27 1636.88 27ZM1647.53 11.0455V28.5H1645.52V11.0455H1647.53Z" fill="white"/>
<path d="M1666.12 15.6307C1666.03 14.8239 1665.66 14.1989 1665 13.7557C1664.34 13.3068 1663.51 13.0824 1662.51 13.0824C1661.79 13.0824 1661.18 13.196 1660.65 13.4233C1660.13 13.6449 1659.72 13.9517 1659.43 14.3438C1659.15 14.7301 1659.01 15.1705 1659.01 15.6648C1659.01 16.0795 1659.1 16.4375 1659.3 16.7386C1659.5 17.0398 1659.75 17.2926 1660.07 17.4972C1660.4 17.696 1660.74 17.8636 1661.11 18C1661.48 18.1307 1661.84 18.2386 1662.18 18.3239L1663.88 18.767C1664.44 18.9034 1665.01 19.0881 1665.6 19.321C1666.18 19.554 1666.72 19.8608 1667.22 20.2415C1667.72 20.6222 1668.13 21.0938 1668.43 21.6562C1668.75 22.2188 1668.9 22.892 1668.9 23.6761C1668.9 24.6648 1668.65 25.5426 1668.14 26.3097C1667.63 27.0767 1666.89 27.6818 1665.93 28.125C1664.97 28.5682 1663.81 28.7898 1662.44 28.7898C1661.14 28.7898 1660 28.5824 1659.05 28.1676C1658.1 27.7528 1657.35 27.1648 1656.81 26.4034C1656.27 25.6364 1655.97 24.7273 1655.91 23.6761H1658.56C1658.61 24.3068 1658.81 24.8324 1659.17 25.2528C1659.53 25.6676 1660 25.9773 1660.56 26.1818C1661.13 26.3807 1661.75 26.4801 1662.43 26.4801C1663.17 26.4801 1663.83 26.3636 1664.41 26.1307C1665 25.892 1665.46 25.5625 1665.79 25.142C1666.13 24.7159 1666.29 24.2187 1666.29 23.6506C1666.29 23.1335 1666.15 22.7102 1665.85 22.3807C1665.56 22.0511 1665.17 21.7784 1664.67 21.5625C1664.17 21.3466 1663.61 21.1562 1662.99 20.9915L1660.93 20.429C1659.53 20.0483 1658.42 19.4886 1657.6 18.75C1656.79 18.0114 1656.38 17.0341 1656.38 15.8182C1656.38 14.8125 1656.66 13.9347 1657.2 13.1847C1657.75 12.4347 1658.48 11.8523 1659.42 11.4375C1660.35 11.017 1661.4 10.8068 1662.57 10.8068C1663.75 10.8068 1664.79 11.0142 1665.7 11.429C1666.61 11.8438 1667.32 12.4148 1667.85 13.142C1668.37 13.8636 1668.64 14.6932 1668.66 15.6307H1666.12ZM1676.64 28.7642C1675.41 28.7642 1674.34 28.483 1673.43 27.9205C1672.51 27.358 1671.8 26.571 1671.3 25.5597C1670.79 24.5483 1670.54 23.3665 1670.54 22.0142C1670.54 20.6562 1670.79 19.4687 1671.3 18.4517C1671.8 17.4347 1672.51 16.6449 1673.43 16.0824C1674.34 15.5199 1675.41 15.2386 1676.64 15.2386C1677.87 15.2386 1678.94 15.5199 1679.85 16.0824C1680.77 16.6449 1681.48 17.4347 1681.98 18.4517C1682.49 19.4687 1682.74 20.6562 1682.74 22.0142C1682.74 23.3665 1682.49 24.5483 1681.98 25.5597C1681.48 26.571 1680.77 27.358 1679.85 27.9205C1678.94 28.483 1677.87 28.7642 1676.64 28.7642ZM1676.65 26.625C1677.44 26.625 1678.1 26.4148 1678.62 25.9943C1679.15 25.5739 1679.53 25.0142 1679.78 24.3153C1680.04 23.6165 1680.17 22.8466 1680.17 22.0057C1680.17 21.1705 1680.04 20.4034 1679.78 19.7045C1679.53 19 1679.15 18.4347 1678.62 18.0085C1678.1 17.5824 1677.44 17.3693 1676.65 17.3693C1675.85 17.3693 1675.18 17.5824 1674.65 18.0085C1674.13 18.4347 1673.74 19 1673.49 19.7045C1673.24 20.4034 1673.11 21.1705 1673.11 22.0057C1673.11 22.8466 1673.24 23.6165 1673.49 24.3153C1673.74 25.0142 1674.13 25.5739 1674.65 25.9943C1675.18 26.4148 1675.85 26.625 1676.65 26.625ZM1687.41 11.0455V28.5H1684.87V11.0455H1687.41ZM1698.42 23.071V15.4091H1700.97V28.5H1698.47V26.233H1698.33C1698.03 26.9318 1697.55 27.5142 1696.88 27.9801C1696.22 28.4403 1695.4 28.6705 1694.42 28.6705C1693.58 28.6705 1692.83 28.4858 1692.18 28.1165C1691.54 27.7415 1691.04 27.1875 1690.67 26.4545C1690.3 25.7216 1690.12 24.8153 1690.12 23.7358V15.4091H1692.67V23.429C1692.67 24.321 1692.92 25.0312 1693.41 25.5597C1693.91 26.0881 1694.55 26.3523 1695.34 26.3523C1695.82 26.3523 1696.29 26.233 1696.76 25.9943C1697.24 25.7557 1697.63 25.3949 1697.95 24.9119C1698.26 24.429 1698.42 23.8153 1698.42 23.071ZM1709.79 15.4091V17.4545H1702.64V15.4091H1709.79ZM1704.55 12.2727H1707.1V24.6562C1707.1 25.1506 1707.18 25.5227 1707.32 25.7727C1707.47 26.017 1707.66 26.1847 1707.89 26.2756C1708.13 26.3608 1708.39 26.4034 1708.67 26.4034C1708.87 26.4034 1709.05 26.3892 1709.21 26.3608C1709.36 26.3324 1709.48 26.3097 1709.57 26.2926L1710.03 28.3977C1709.88 28.4545 1709.67 28.5114 1709.39 28.5682C1709.12 28.6307 1708.78 28.6648 1708.37 28.6705C1707.7 28.6818 1707.08 28.5625 1706.5 28.3125C1705.92 28.0625 1705.45 27.6761 1705.09 27.1534C1704.73 26.6307 1704.55 25.9744 1704.55 25.1847V12.2727ZM1711.89 28.5V15.4091H1714.43V28.5H1711.89ZM1713.17 13.3892C1712.73 13.3892 1712.35 13.2415 1712.03 12.946C1711.72 12.6449 1711.56 12.2869 1711.56 11.8722C1711.56 11.4517 1711.72 11.0937 1712.03 10.7983C1712.35 10.4972 1712.73 10.3466 1713.17 10.3466C1713.62 10.3466 1713.99 10.4972 1714.31 10.7983C1714.62 11.0937 1714.78 11.4517 1714.78 11.8722C1714.78 12.2869 1714.62 12.6449 1714.31 12.946C1713.99 13.2415 1713.62 13.3892 1713.17 13.3892ZM1722.66 28.7642C1721.43 28.7642 1720.36 28.483 1719.44 27.9205C1718.53 27.358 1717.82 26.571 1717.31 25.5597C1716.81 24.5483 1716.55 23.3665 1716.55 22.0142C1716.55 20.6562 1716.81 19.4687 1717.31 18.4517C1717.82 17.4347 1718.53 16.6449 1719.44 16.0824C1720.36 15.5199 1721.43 15.2386 1722.66 15.2386C1723.88 15.2386 1724.95 15.5199 1725.87 16.0824C1726.78 16.6449 1727.49 17.4347 1728 18.4517C1728.51 19.4687 1728.76 20.6562 1728.76 22.0142C1728.76 23.3665 1728.51 24.5483 1728 25.5597C1727.49 26.571 1726.78 27.358 1725.87 27.9205C1724.95 28.483 1723.88 28.7642 1722.66 28.7642ZM1722.66 26.625C1723.46 26.625 1724.12 26.4148 1724.64 25.9943C1725.16 25.5739 1725.55 25.0142 1725.8 24.3153C1726.06 23.6165 1726.18 22.8466 1726.18 22.0057C1726.18 21.1705 1726.06 20.4034 1725.8 19.7045C1725.55 19 1725.16 18.4347 1724.64 18.0085C1724.12 17.5824 1723.46 17.3693 1722.66 17.3693C1721.86 17.3693 1721.2 17.5824 1720.67 18.0085C1720.15 18.4347 1719.76 19 1719.5 19.7045C1719.25 20.4034 1719.13 21.1705 1719.13 22.0057C1719.13 22.8466 1719.25 23.6165 1719.5 24.3153C1719.76 25.0142 1720.15 25.5739 1720.67 25.9943C1721.2 26.4148 1721.86 26.625 1722.66 26.625ZM1733.43 20.7273V28.5H1730.88V15.4091H1733.33V17.5398H1733.49C1733.79 16.8466 1734.26 16.2898 1734.91 15.8693C1735.55 15.4489 1736.37 15.2386 1737.35 15.2386C1738.24 15.2386 1739.03 15.4261 1739.7 15.8011C1740.37 16.1705 1740.89 16.7216 1741.26 17.4545C1741.62 18.1875 1741.81 19.0937 1741.81 20.1733V28.5H1739.26V20.4801C1739.26 19.5312 1739.01 18.7898 1738.52 18.2557C1738.03 17.7159 1737.35 17.446 1736.48 17.446C1735.89 17.446 1735.37 17.5739 1734.91 17.8295C1734.45 18.0852 1734.09 18.4602 1733.82 18.9545C1733.56 19.4432 1733.43 20.0341 1733.43 20.7273Z" fill="#3BC7DA"/>
<g clip-path="url(#clip0_58_833)">
<g clip-path="url(#clip1_58_833)">
<path d="M0 19.793C0 8.86158 8.40362 0 18.7701 0C29.1366 0 37.5402 8.86158 37.54 19.793C37.54 30.7244 29.1364 39.5859 18.7701 39.5857C8.40362 39.5857 0 30.7242 0 19.793ZM18.7701 38.5779C28.6086 38.5779 36.5843 30.1677 36.5843 19.793C36.5843 9.41827 28.6086 1.00802 18.7701 1.00802C8.93155 1.00802 0.955922 9.41827 0.955922 19.793C0.955922 30.1677 8.93155 38.5779 18.7701 38.5779Z" fill="#3BC7DA"/>
<g clip-path="url(#clip2_58_833)">
<g clip-path="url(#clip3_58_833)">
<path d="M12.4407 16.8748C12.5133 16.8124 12.5663 16.7284 12.5929 16.6337C13.1945 14.4964 14.1569 13.0955 15.455 12.4632C15.297 14.6141 16.6157 15.7013 18.7322 15.7013C18.9551 15.7013 19.1868 15.6894 19.4267 15.6649C19.8369 15.6235 20.2487 15.6026 20.6607 15.6023C23.9362 15.6023 25.8596 16.95 25.8596 16.95C25.8596 16.95 24.5925 9.28092 20.5915 8.69362C20.3182 8.65332 20.0426 8.633 19.7667 8.63281C17.9176 8.63244 16.2775 9.57024 15.6806 11.3235C15.5593 11.3621 15.4396 11.4058 15.3216 11.4545C13.6384 12.1508 12.4194 13.8008 11.7001 16.3526C11.6577 16.5031 11.684 16.6733 11.785 16.8039C11.9475 17.0144 12.241 17.0461 12.4407 16.8748ZM16.4086 12.2994C16.4154 12.2469 16.4236 12.1951 16.4328 12.1436C18.4303 11.7762 20.3918 12.9724 20.414 12.9861V12.9857C20.5771 13.0872 20.7894 13.0775 20.945 12.944C21.1447 12.7727 21.1747 12.4632 21.0119 12.2526C20.9764 12.2066 20.9341 12.1695 20.888 12.1407L20.8884 12.1403C20.7928 12.0806 18.9316 10.9387 16.8106 11.1036C16.987 10.807 17.216 10.5479 17.4972 10.3291C18.0889 9.86887 18.8947 9.61516 19.7667 9.61516C19.9956 9.61516 20.2301 9.6328 20.4631 9.66698C21.1477 9.7674 21.7992 10.174 22.3988 10.8761C22.9332 11.5009 23.424 12.3505 23.8577 13.4013C24.1222 14.0415 24.3328 14.6788 24.4949 15.2402C23.3079 14.8336 21.9899 14.6198 20.6608 14.6198C20.2253 14.6198 19.7803 14.6421 19.3384 14.6867C19.1288 14.708 18.9251 14.7184 18.7323 14.7184C17.5587 14.7184 17.0021 14.3431 16.7417 14.0282C16.4216 13.6414 16.3096 13.0595 16.4086 12.2994Z" fill="#3BC7DA"/>
<path d="M29.0932 23.4324C29.1219 23.3022 29.1459 23.1709 29.1649 23.0387C29.4352 21.1534 28.6888 19.2144 26.9525 17.2813C26.8675 17.1867 26.7503 17.1316 26.6267 17.1281C26.5032 17.1246 26.3834 17.173 26.2937 17.2627C26.204 17.3524 26.1517 17.4759 26.1484 17.6062C26.1451 17.7365 26.191 17.8628 26.2761 17.9574C27.7302 19.5754 28.3997 21.1549 28.27 22.6562C27.6906 22.2373 27.1272 22.0401 26.5941 22.0401C25.4113 22.0401 24.3786 23.0103 23.6544 24.6822C21.9764 28.5568 19.3828 29.9143 19.3828 29.9143C19.3828 29.9143 21.9999 30.9251 24.5939 30.9251C26.2218 30.9251 27.8401 30.5271 28.7976 29.2316C30.1443 27.4093 30.402 25.0626 29.0932 23.4324ZM28.0625 28.6278C27.4179 29.5002 26.2508 29.9424 24.5939 29.9424C23.4868 29.9424 22.361 29.7405 21.4693 29.5225C22.4156 28.625 23.5882 27.2006 24.5022 25.0904C24.8059 24.3897 25.1721 23.8322 25.5611 23.4782C25.898 23.1716 26.2362 23.0225 26.5941 23.0225C27.004 23.0225 27.4528 23.2197 27.9281 23.6088C27.9671 23.6414 28.0056 23.6747 28.0434 23.7088C27.3463 25.7169 25.3836 26.9098 25.3611 26.9231L25.3615 26.9235C25.1967 27.0217 25.0984 27.2204 25.1301 27.4295C25.1711 27.6972 25.4103 27.8793 25.6642 27.8361C25.7184 27.8268 25.7707 27.8075 25.8185 27.7789L25.8188 27.7793C25.9154 27.722 27.7821 26.5942 28.7076 24.5761C28.9052 24.9698 29.011 25.4088 29.0195 25.8821C29.0362 26.795 28.6963 27.7702 28.0625 28.6278Z" fill="#3BC7DA"/>
<path d="M18.64 29.6975C18.5524 29.6623 18.4567 29.6558 18.3656 29.6788C16.3098 30.1981 14.6778 30.0196 13.5097 29.1501C15.5491 28.1209 15.6201 26.0945 14.1533 23.9224C11.8105 20.4526 11.9924 17.4053 11.9924 17.4053C11.9924 17.4053 6.32736 22.397 7.84534 26.3443C8.57838 28.2501 10.0844 29.5766 11.8123 29.5766C12.0297 29.5764 12.2467 29.5555 12.4607 29.5143C12.5532 29.6056 12.649 29.693 12.748 29.7763C13.679 30.5598 14.8475 30.9527 16.2389 30.9523C16.96 30.9523 17.7418 30.8465 18.5803 30.6353C18.5813 30.6349 18.5827 30.6345 18.5827 30.6345C18.6565 30.6159 18.7248 30.5786 18.7818 30.5258C18.8388 30.473 18.8827 30.4063 18.9097 30.3316C18.9536 30.2098 18.9499 30.0746 18.8993 29.9557C18.8487 29.8368 18.7554 29.7439 18.64 29.6975ZM12.7582 28.4171C11.458 26.7768 11.4593 24.3877 11.4597 24.3604H11.4593C11.461 24.1606 11.3471 23.9717 11.1594 23.8965C10.9191 23.8 10.6499 23.9275 10.5584 24.1808C10.5388 24.235 10.5286 24.2924 10.5283 24.3503H10.5276C10.5266 24.4673 10.5194 26.7369 11.7146 28.5913C11.1262 28.5679 10.5468 28.3315 10.0335 27.904C9.47283 27.4368 9.01481 26.77 8.70908 25.9751C8.44938 25.2996 8.45755 24.5011 8.73433 23.6025C8.98035 22.8025 9.43255 21.9295 10.0785 21.0079C10.4724 20.4461 10.8908 19.9351 11.2706 19.5061C11.5347 20.8193 12.1179 22.6024 13.3943 24.4924C14.0826 25.5119 14.3584 26.4483 14.171 27.1295C14.0287 27.6452 13.6008 28.0597 12.8981 28.3617C12.8514 28.3815 12.8049 28.3998 12.7582 28.4171Z" fill="#3BC7DA"/>
</g>
</g>
</g>
</g>
<defs>
<clipPath id="clip0_58_833">
<rect width="37.54" height="39.5858" fill="white"/>
</clipPath>
<clipPath id="clip1_58_833">
<rect width="37.54" height="39.5858" fill="white"/>
</clipPath>
<clipPath id="clip2_58_833">
<rect width="22.3654" height="22.3195" fill="white" transform="translate(7.58691 8.63281)"/>
</clipPath>
<clipPath id="clip3_58_833">
<rect width="22.3654" height="22.3195" fill="white" transform="translate(7.58691 8.63281)"/>
</clipPath>
</defs>
</svg>
