<svg width="632" height="263" viewBox="0 0 632 263" fill="none" xmlns="http://www.w3.org/2000/svg">
<g opacity="0.38" filter="url(#filter0_d_172_288)">
<path fill-rule="evenodd" clip-rule="evenodd" d="M26 234V23H606V234H26Z" fill="white" fill-opacity="0.16"/>
<path d="M26.5 233.5V23.5H605.5V233.5H26.5Z" stroke="white"/>
</g>
<g opacity="0.38" filter="url(#filter1_d_172_288)">
<path fill-rule="evenodd" clip-rule="evenodd" d="M26 234V23H606V234H26Z" fill="white" fill-opacity="0.16"/>
<path d="M26.5 233.5V23.5H605.5V233.5H26.5Z" stroke="white"/>
</g>
<path d="M63.642 83V65.5455H70.5284C71.8466 65.5455 72.9716 65.7812 73.9034 66.2528C74.8409 66.7187 75.554 67.3807 76.0426 68.2386C76.5369 69.0909 76.7841 70.0937 76.7841 71.2472C76.7841 72.4062 76.5341 73.4034 76.0341 74.2386C75.5341 75.0682 74.8097 75.7045 73.8608 76.1477C72.9176 76.5909 71.7756 76.8125 70.4347 76.8125H65.8239V73.8466H69.8381C70.5426 73.8466 71.1278 73.75 71.5938 73.5568C72.0597 73.3636 72.4063 73.0739 72.6335 72.6875C72.8665 72.3011 72.983 71.821 72.983 71.2472C72.983 70.6676 72.8665 70.179 72.6335 69.7812C72.4063 69.3835 72.0568 69.0824 71.5852 68.8778C71.1193 68.6676 70.5313 68.5625 69.821 68.5625H67.3324V83H63.642ZM73.0682 75.0568L77.4062 83H73.3324L69.0881 75.0568H73.0682ZM82.992 83V65.5455H94.7534V68.5881H86.6824V72.7472H94.1483V75.7898H86.6824V79.9574H94.7875V83H82.992ZM112.861 71.1875C112.742 70.7727 112.574 70.4062 112.358 70.0881C112.142 69.7642 111.878 69.4915 111.566 69.2699C111.259 69.0426 110.907 68.8693 110.509 68.75C110.117 68.6307 109.682 68.571 109.205 68.571C108.313 68.571 107.529 68.7926 106.853 69.2358C106.182 69.679 105.66 70.3239 105.285 71.1705C104.91 72.0114 104.722 73.0398 104.722 74.2557C104.722 75.4716 104.907 76.5057 105.276 77.358C105.645 78.2102 106.168 78.8608 106.844 79.3097C107.52 79.7528 108.319 79.9744 109.239 79.9744C110.074 79.9744 110.787 79.8267 111.378 79.5312C111.975 79.2301 112.429 78.8068 112.742 78.2614C113.06 77.7159 113.219 77.071 113.219 76.3267L113.969 76.4375H109.469V73.6591H116.773V75.858C116.773 77.392 116.449 78.7102 115.802 79.8125C115.154 80.9091 114.262 81.7557 113.125 82.3523C111.989 82.9432 110.688 83.2386 109.222 83.2386C107.586 83.2386 106.148 82.8778 104.91 82.1562C103.671 81.429 102.705 80.3977 102.012 79.0625C101.324 77.7216 100.981 76.1307 100.981 74.2898C100.981 72.875 101.185 71.6136 101.594 70.5057C102.009 69.392 102.588 68.4489 103.333 67.6761C104.077 66.9034 104.944 66.3153 105.932 65.9119C106.921 65.5085 107.992 65.3068 109.145 65.3068C110.134 65.3068 111.054 65.4517 111.907 65.7415C112.759 66.0256 113.515 66.429 114.174 66.9517C114.838 67.4744 115.381 68.0966 115.802 68.8182C116.222 69.5341 116.492 70.3239 116.611 71.1875H112.861ZM133.926 65.5455H137.617V76.8807C137.617 78.1534 137.313 79.267 136.705 80.2216C136.103 81.1761 135.259 81.9205 134.174 82.4545C133.088 82.983 131.824 83.2472 130.381 83.2472C128.932 83.2472 127.665 82.983 126.58 82.4545C125.495 81.9205 124.651 81.1761 124.049 80.2216C123.446 79.267 123.145 78.1534 123.145 76.8807V65.5455H126.836V76.5653C126.836 77.2301 126.98 77.821 127.27 78.3381C127.566 78.8551 127.98 79.2614 128.514 79.5568C129.049 79.8523 129.671 80 130.381 80C131.097 80 131.719 79.8523 132.247 79.5568C132.782 79.2614 133.193 78.8551 133.483 78.3381C133.779 77.821 133.926 77.2301 133.926 76.5653V65.5455ZM144.253 83V65.5455H147.943V79.9574H155.426V83H144.253ZM164.924 83H160.969L166.995 65.5455H171.751L177.768 83H173.813L169.441 69.5341H169.305L164.924 83ZM164.677 76.1392H174.018V79.0199H164.677V76.1392ZM183.469 65.5455H188.02L192.827 77.2727H193.031L197.838 65.5455H202.389V83H198.81V71.6392H198.665L194.148 82.9148H191.71L187.193 71.5966H187.048V83H183.469V65.5455ZM209.03 83V65.5455H220.791V68.5881H212.72V72.7472H220.186V75.7898H212.72V79.9574H220.825V83H209.03ZM241.924 65.5455V83H238.737L231.143 72.0142H231.015V83H227.325V65.5455H230.563L238.098 76.5227H238.251V65.5455H241.924ZM247.909 68.5881V65.5455H262.244V68.5881H256.9V83H253.252V68.5881H247.909ZM283.447 74.2727C283.447 76.1761 283.087 77.7955 282.365 79.1307C281.649 80.4659 280.672 81.4858 279.433 82.1903C278.2 82.8892 276.814 83.2386 275.274 83.2386C273.723 83.2386 272.331 82.8864 271.098 82.1818C269.865 81.4773 268.891 80.4574 268.175 79.1222C267.459 77.7869 267.101 76.1705 267.101 74.2727C267.101 72.3693 267.459 70.75 268.175 69.4148C268.891 68.0795 269.865 67.0625 271.098 66.3636C272.331 65.6591 273.723 65.3068 275.274 65.3068C276.814 65.3068 278.2 65.6591 279.433 66.3636C280.672 67.0625 281.649 68.0795 282.365 69.4148C283.087 70.75 283.447 72.3693 283.447 74.2727ZM279.706 74.2727C279.706 73.0398 279.521 72 279.152 71.1534C278.788 70.3068 278.274 69.6648 277.609 69.2273C276.945 68.7898 276.166 68.571 275.274 68.571C274.382 68.571 273.604 68.7898 272.939 69.2273C272.274 69.6648 271.757 70.3068 271.388 71.1534C271.024 72 270.842 73.0398 270.842 74.2727C270.842 75.5057 271.024 76.5455 271.388 77.392C271.757 78.2386 272.274 78.8807 272.939 79.3182C273.604 79.7557 274.382 79.9744 275.274 79.9744C276.166 79.9744 276.945 79.7557 277.609 79.3182C278.274 78.8807 278.788 78.2386 279.152 77.392C279.521 76.5455 279.706 75.5057 279.706 74.2727ZM310.51 71.1875C310.39 70.7727 310.223 70.4062 310.007 70.0881C309.791 69.7642 309.527 69.4915 309.214 69.2699C308.907 69.0426 308.555 68.8693 308.157 68.75C307.765 68.6307 307.331 68.571 306.853 68.571C305.961 68.571 305.177 68.7926 304.501 69.2358C303.831 69.679 303.308 70.3239 302.933 71.1705C302.558 72.0114 302.37 73.0398 302.37 74.2557C302.37 75.4716 302.555 76.5057 302.924 77.358C303.294 78.2102 303.816 78.8608 304.493 79.3097C305.169 79.7528 305.967 79.9744 306.887 79.9744C307.723 79.9744 308.436 79.8267 309.027 79.5312C309.623 79.2301 310.078 78.8068 310.39 78.2614C310.709 77.7159 310.868 77.071 310.868 76.3267L311.618 76.4375H307.118V73.6591H314.422V75.858C314.422 77.392 314.098 78.7102 313.45 79.8125C312.802 80.9091 311.91 81.7557 310.774 82.3523C309.637 82.9432 308.336 83.2386 306.87 83.2386C305.234 83.2386 303.797 82.8778 302.558 82.1562C301.319 81.429 300.353 80.3977 299.66 79.0625C298.973 77.7216 298.629 76.1307 298.629 74.2898C298.629 72.875 298.834 71.6136 299.243 70.5057C299.657 69.392 300.237 68.4489 300.981 67.6761C301.726 66.9034 302.592 66.3153 303.581 65.9119C304.569 65.5085 305.64 65.3068 306.794 65.3068C307.782 65.3068 308.703 65.4517 309.555 65.7415C310.407 66.0256 311.163 66.429 311.822 66.9517C312.487 67.4744 313.03 68.0966 313.45 68.8182C313.87 69.5341 314.14 70.3239 314.26 71.1875H310.51ZM336.833 74.2727C336.833 76.1761 336.473 77.7955 335.751 79.1307C335.035 80.4659 334.058 81.4858 332.819 82.1903C331.586 82.8892 330.2 83.2386 328.66 83.2386C327.109 83.2386 325.717 82.8864 324.484 82.1818C323.251 81.4773 322.277 80.4574 321.561 79.1222C320.845 77.7869 320.487 76.1705 320.487 74.2727C320.487 72.3693 320.845 70.75 321.561 69.4148C322.277 68.0795 323.251 67.0625 324.484 66.3636C325.717 65.6591 327.109 65.3068 328.66 65.3068C330.2 65.3068 331.586 65.6591 332.819 66.3636C334.058 67.0625 335.035 68.0795 335.751 69.4148C336.473 70.75 336.833 72.3693 336.833 74.2727ZM333.092 74.2727C333.092 73.0398 332.907 72 332.538 71.1534C332.174 70.3068 331.66 69.6648 330.995 69.2273C330.331 68.7898 329.552 68.571 328.66 68.571C327.768 68.571 326.99 68.7898 326.325 69.2273C325.66 69.6648 325.143 70.3068 324.774 71.1534C324.41 72 324.228 73.0398 324.228 74.2727C324.228 75.5057 324.41 76.5455 324.774 77.392C325.143 78.2386 325.66 78.8807 326.325 79.3182C326.99 79.7557 327.768 79.9744 328.66 79.9744C329.552 79.9744 330.331 79.7557 330.995 79.3182C331.66 78.8807 332.174 78.2386 332.538 77.392C332.907 76.5455 333.092 75.5057 333.092 74.2727ZM345.336 65.5455L349.555 78.8068H349.717L353.944 65.5455H358.035L352.018 83H347.262L341.237 65.5455H345.336ZM363.736 83V65.5455H375.497V68.5881H367.426V72.7472H374.892V75.7898H367.426V79.9574H375.531V83H363.736ZM382.031 83V65.5455H388.917C390.236 65.5455 391.361 65.7812 392.292 66.2528C393.23 66.7187 393.943 67.3807 394.432 68.2386C394.926 69.0909 395.173 70.0937 395.173 71.2472C395.173 72.4062 394.923 73.4034 394.423 74.2386C393.923 75.0682 393.199 75.7045 392.25 76.1477C391.307 76.5909 390.165 76.8125 388.824 76.8125H384.213V73.8466H388.227C388.932 73.8466 389.517 73.75 389.983 73.5568C390.449 73.3636 390.795 73.0739 391.023 72.6875C391.256 72.3011 391.372 71.821 391.372 71.2472C391.372 70.6676 391.256 70.179 391.023 69.7812C390.795 69.3835 390.446 69.0824 389.974 68.8778C389.508 68.6676 388.92 68.5625 388.21 68.5625H385.721V83H382.031ZM391.457 75.0568L395.795 83H391.721L387.477 75.0568H391.457ZM415.981 65.5455V83H412.793L405.199 72.0142H405.071V83H401.381V65.5455H404.62L412.154 76.5227H412.307V65.5455H415.981ZM425.638 83H421.684L427.709 65.5455H432.465L438.482 83H434.527L430.155 69.5341H430.019L425.638 83ZM425.391 76.1392H434.732V79.0199H425.391V76.1392ZM444.183 65.5455H448.734L453.541 77.2727H453.745L458.552 65.5455H463.103V83H459.524V71.6392H459.379L454.862 82.9148H452.424L447.907 71.5966H447.762V83H444.183V65.5455ZM469.744 83V65.5455H481.505V68.5881H473.434V72.7472H480.9V75.7898H473.434V79.9574H481.539V83H469.744ZM502.638 65.5455V83H499.451L491.857 72.0142H491.729V83H488.039V65.5455H491.278L498.812 76.5227H498.965V65.5455H502.638ZM508.623 68.5881V65.5455H522.958V68.5881H517.614V83H513.966V68.5881H508.623ZM529.794 83H525.84L531.865 65.5455H536.621L542.638 83H538.684L534.311 69.5341H534.175L529.794 83ZM529.547 76.1392H538.888V79.0199H529.547V76.1392ZM552.029 65.5455V83H548.339V65.5455H552.029ZM568.134 70.5653C568.066 69.8778 567.773 69.3437 567.256 68.9631C566.739 68.5824 566.038 68.392 565.151 68.392C564.549 68.392 564.04 68.4773 563.626 68.6477C563.211 68.8125 562.893 69.0426 562.671 69.3381C562.455 69.6335 562.347 69.9688 562.347 70.3438C562.336 70.6562 562.401 70.929 562.543 71.1619C562.691 71.3949 562.893 71.5966 563.148 71.767C563.404 71.9318 563.7 72.0767 564.035 72.2017C564.37 72.321 564.728 72.4233 565.109 72.5085L566.677 72.8835C567.438 73.054 568.137 73.2812 568.773 73.5653C569.41 73.8494 569.961 74.1989 570.427 74.6136C570.893 75.0284 571.254 75.517 571.509 76.0795C571.771 76.642 571.904 77.2869 571.91 78.0142C571.904 79.0824 571.631 80.0085 571.092 80.7926C570.558 81.571 569.785 82.1761 568.773 82.608C567.768 83.0341 566.555 83.2472 565.134 83.2472C563.725 83.2472 562.498 83.0312 561.452 82.5994C560.413 82.1676 559.6 81.5284 559.015 80.6818C558.435 79.8295 558.131 78.7756 558.103 77.5199H561.674C561.714 78.1051 561.881 78.5937 562.177 78.9858C562.478 79.3722 562.879 79.6648 563.379 79.8636C563.884 80.0568 564.455 80.1534 565.092 80.1534C565.717 80.1534 566.259 80.0625 566.719 79.8807C567.185 79.6989 567.546 79.446 567.802 79.1222C568.058 78.7983 568.185 78.4261 568.185 78.0057C568.185 77.6136 568.069 77.2841 567.836 77.017C567.609 76.75 567.273 76.5227 566.83 76.3352C566.393 76.1477 565.856 75.9773 565.219 75.8239L563.319 75.3466C561.847 74.9886 560.685 74.429 559.833 73.6676C558.981 72.9062 558.558 71.8807 558.563 70.5909C558.558 69.5341 558.839 68.6108 559.407 67.821C559.981 67.0312 560.768 66.4148 561.768 65.9716C562.768 65.5284 563.904 65.3068 565.177 65.3068C566.472 65.3068 567.603 65.5284 568.569 65.9716C569.54 66.4148 570.296 67.0312 570.836 67.821C571.376 68.6108 571.654 69.5256 571.671 70.5653H568.134Z" fill="white"/>
<path d="M70.625 112V128H68.75L60.0313 115.437H59.875V128H57.9375V112H59.8125L68.5625 124.594H68.7188V112H70.625ZM78.467 128.25C77.3836 128.25 76.4331 127.992 75.6154 127.477C74.8029 126.961 74.1675 126.24 73.7091 125.312C73.256 124.385 73.0295 123.302 73.0295 122.062C73.0295 120.812 73.256 119.721 73.7091 118.789C74.1675 117.857 74.8029 117.133 75.6154 116.617C76.4331 116.102 77.3836 115.844 78.467 115.844C79.5503 115.844 80.4982 116.102 81.3107 116.617C82.1284 117.133 82.7638 117.857 83.217 118.789C83.6753 119.721 83.9045 120.812 83.9045 122.062C83.9045 123.302 83.6753 124.385 83.217 125.312C82.7638 126.24 82.1284 126.961 81.3107 127.477C80.4982 127.992 79.5503 128.25 78.467 128.25ZM78.467 126.594C79.2899 126.594 79.967 126.383 80.4982 125.961C81.0295 125.539 81.4227 124.984 81.6779 124.297C81.9331 123.609 82.0607 122.865 82.0607 122.062C82.0607 121.26 81.9331 120.513 81.6779 119.82C81.4227 119.128 81.0295 118.568 80.4982 118.141C79.967 117.714 79.2899 117.5 78.467 117.5C77.644 117.5 76.967 117.714 76.4357 118.141C75.9045 118.568 75.5112 119.128 75.256 119.82C75.0008 120.513 74.8732 121.26 74.8732 122.062C74.8732 122.865 75.0008 123.609 75.256 124.297C75.5112 124.984 75.9045 125.539 76.4357 125.961C76.967 126.383 77.644 126.594 78.467 126.594ZM95.4417 116L91.0042 128H89.1292L84.6917 116H86.6917L90.0042 125.562H90.1292L93.4417 116H95.4417ZM100.381 128.281C99.6209 128.281 98.9308 128.138 98.311 127.852C97.6912 127.56 97.199 127.141 96.8345 126.594C96.4699 126.042 96.2876 125.375 96.2876 124.594C96.2876 123.906 96.423 123.349 96.6938 122.922C96.9647 122.49 97.3266 122.151 97.7798 121.906C98.2329 121.661 98.7329 121.479 99.2798 121.359C99.8318 121.234 100.387 121.135 100.944 121.063C101.673 120.969 102.264 120.898 102.717 120.852C103.176 120.799 103.509 120.714 103.717 120.594C103.931 120.474 104.038 120.266 104.038 119.969V119.906C104.038 119.135 103.827 118.536 103.405 118.109C102.988 117.682 102.355 117.469 101.506 117.469C100.626 117.469 99.936 117.661 99.436 118.047C98.936 118.432 98.5845 118.844 98.3813 119.281L96.6313 118.656C96.9438 117.927 97.3605 117.359 97.8813 116.953C98.4074 116.542 98.9803 116.255 99.6001 116.094C100.225 115.927 100.84 115.844 101.444 115.844C101.829 115.844 102.272 115.891 102.772 115.984C103.277 116.073 103.764 116.258 104.233 116.539C104.707 116.82 105.1 117.245 105.413 117.812C105.725 118.38 105.881 119.141 105.881 120.094V128H104.038V126.375H103.944C103.819 126.635 103.61 126.914 103.319 127.211C103.027 127.508 102.639 127.76 102.155 127.969C101.67 128.177 101.079 128.281 100.381 128.281ZM100.663 126.625C101.392 126.625 102.006 126.482 102.506 126.195C103.012 125.909 103.392 125.539 103.647 125.086C103.907 124.633 104.038 124.156 104.038 123.656V121.969C103.959 122.062 103.788 122.148 103.522 122.227C103.262 122.299 102.959 122.365 102.616 122.422C102.277 122.474 101.946 122.521 101.624 122.562C101.306 122.599 101.048 122.63 100.85 122.656C100.371 122.719 99.923 122.82 99.5063 122.961C99.0949 123.096 98.7615 123.302 98.5063 123.578C98.2563 123.849 98.1313 124.219 98.1313 124.687C98.1313 125.328 98.3683 125.812 98.8423 126.141C99.3214 126.464 99.9282 126.625 100.663 126.625ZM117.087 118.687L115.43 119.156C115.326 118.88 115.173 118.612 114.969 118.352C114.771 118.086 114.501 117.867 114.157 117.695C113.813 117.523 113.373 117.437 112.837 117.437C112.102 117.437 111.49 117.607 111.001 117.945C110.516 118.279 110.274 118.703 110.274 119.219C110.274 119.677 110.441 120.039 110.774 120.305C111.107 120.57 111.628 120.792 112.337 120.969L114.118 121.406C115.191 121.667 115.99 122.065 116.516 122.602C117.042 123.133 117.305 123.818 117.305 124.656C117.305 125.344 117.107 125.958 116.712 126.5C116.321 127.042 115.774 127.469 115.071 127.781C114.368 128.094 113.55 128.25 112.618 128.25C111.394 128.25 110.381 127.984 109.579 127.453C108.777 126.922 108.269 126.146 108.055 125.125L109.805 124.687C109.972 125.333 110.287 125.818 110.751 126.141C111.219 126.464 111.831 126.625 112.587 126.625C113.446 126.625 114.128 126.443 114.633 126.078C115.144 125.708 115.399 125.266 115.399 124.75C115.399 124.333 115.253 123.984 114.962 123.703C114.67 123.417 114.222 123.203 113.618 123.062L111.618 122.594C110.519 122.333 109.712 121.93 109.196 121.383C108.686 120.831 108.43 120.141 108.43 119.312C108.43 118.635 108.62 118.036 109.001 117.516C109.386 116.995 109.909 116.586 110.571 116.289C111.238 115.992 111.993 115.844 112.837 115.844C114.024 115.844 114.956 116.104 115.633 116.625C116.316 117.146 116.8 117.833 117.087 118.687ZM126.792 112V128H124.948V112H126.792ZM134.54 128.25C133.384 128.25 132.387 127.995 131.548 127.484C130.715 126.969 130.071 126.25 129.618 125.328C129.17 124.401 128.946 123.323 128.946 122.094C128.946 120.865 129.17 119.781 129.618 118.844C130.071 117.901 130.702 117.167 131.509 116.641C132.321 116.109 133.269 115.844 134.353 115.844C134.978 115.844 135.595 115.948 136.204 116.156C136.814 116.365 137.368 116.703 137.868 117.172C138.368 117.635 138.767 118.25 139.064 119.016C139.36 119.781 139.509 120.724 139.509 121.844V122.625H130.259V121.031H137.634C137.634 120.354 137.498 119.75 137.228 119.219C136.962 118.687 136.582 118.268 136.087 117.961C135.597 117.654 135.019 117.5 134.353 117.5C133.618 117.5 132.983 117.682 132.446 118.047C131.915 118.406 131.506 118.875 131.22 119.453C130.933 120.031 130.79 120.651 130.79 121.312V122.375C130.79 123.281 130.946 124.049 131.259 124.68C131.577 125.305 132.017 125.781 132.579 126.109C133.142 126.432 133.795 126.594 134.54 126.594C135.025 126.594 135.462 126.526 135.853 126.391C136.248 126.25 136.59 126.042 136.876 125.766C137.163 125.484 137.384 125.135 137.54 124.719L139.321 125.219C139.134 125.823 138.819 126.354 138.376 126.812C137.933 127.266 137.387 127.62 136.735 127.875C136.084 128.125 135.353 128.25 134.54 128.25ZM141.654 128V116H143.497V128H141.654ZM142.591 114C142.232 114 141.922 113.878 141.661 113.633C141.406 113.388 141.279 113.094 141.279 112.75C141.279 112.406 141.406 112.112 141.661 111.867C141.922 111.622 142.232 111.5 142.591 111.5C142.95 111.5 143.258 111.622 143.513 111.867C143.773 112.112 143.904 112.406 143.904 112.75C143.904 113.094 143.773 113.388 143.513 113.633C143.258 113.878 142.95 114 142.591 114ZM154.714 118.687L153.058 119.156C152.954 118.88 152.8 118.612 152.597 118.352C152.399 118.086 152.128 117.867 151.785 117.695C151.441 117.523 151.001 117.437 150.464 117.437C149.73 117.437 149.118 117.607 148.628 117.945C148.144 118.279 147.902 118.703 147.902 119.219C147.902 119.677 148.068 120.039 148.402 120.305C148.735 120.57 149.256 120.792 149.964 120.969L151.746 121.406C152.818 121.667 153.618 122.065 154.144 122.602C154.67 123.133 154.933 123.818 154.933 124.656C154.933 125.344 154.735 125.958 154.339 126.5C153.949 127.042 153.402 127.469 152.699 127.781C151.996 128.094 151.178 128.25 150.246 128.25C149.022 128.25 148.009 127.984 147.206 127.453C146.404 126.922 145.897 126.146 145.683 125.125L147.433 124.687C147.6 125.333 147.915 125.818 148.378 126.141C148.847 126.464 149.459 126.625 150.214 126.625C151.074 126.625 151.756 126.443 152.261 126.078C152.772 125.708 153.027 125.266 153.027 124.75C153.027 124.333 152.881 123.984 152.589 123.703C152.298 123.417 151.85 123.203 151.246 123.062L149.246 122.594C148.147 122.333 147.339 121.93 146.824 121.383C146.313 120.831 146.058 120.141 146.058 119.312C146.058 118.635 146.248 118.036 146.628 117.516C147.014 116.995 147.537 116.586 148.199 116.289C148.865 115.992 149.621 115.844 150.464 115.844C151.652 115.844 152.584 116.104 153.261 116.625C153.943 117.146 154.428 117.833 154.714 118.687ZM167.607 128.25C166.451 128.25 165.454 127.995 164.615 127.484C163.782 126.969 163.138 126.25 162.685 125.328C162.237 124.401 162.013 123.323 162.013 122.094C162.013 120.865 162.237 119.781 162.685 118.844C163.138 117.901 163.769 117.167 164.576 116.641C165.388 116.109 166.336 115.844 167.42 115.844C168.045 115.844 168.662 115.948 169.271 116.156C169.881 116.365 170.435 116.703 170.935 117.172C171.435 117.635 171.834 118.25 172.131 119.016C172.427 119.781 172.576 120.724 172.576 121.844V122.625H163.326V121.031H170.701C170.701 120.354 170.566 119.75 170.295 119.219C170.029 118.687 169.649 118.268 169.154 117.961C168.664 117.654 168.086 117.5 167.42 117.5C166.685 117.5 166.05 117.682 165.513 118.047C164.982 118.406 164.573 118.875 164.287 119.453C164 120.031 163.857 120.651 163.857 121.312V122.375C163.857 123.281 164.013 124.049 164.326 124.68C164.644 125.305 165.084 125.781 165.646 126.109C166.209 126.432 166.862 126.594 167.607 126.594C168.092 126.594 168.529 126.526 168.92 126.391C169.316 126.25 169.657 126.042 169.943 125.766C170.23 125.484 170.451 125.135 170.607 124.719L172.388 125.219C172.201 125.823 171.886 126.354 171.443 126.812C171 127.266 170.454 127.62 169.802 127.875C169.151 128.125 168.42 128.25 167.607 128.25ZM180.248 128V116H182.029V117.812H182.154C182.373 117.219 182.769 116.737 183.342 116.367C183.915 115.997 184.561 115.812 185.279 115.812C185.415 115.812 185.584 115.815 185.787 115.82C185.99 115.826 186.144 115.833 186.248 115.844V117.719C186.186 117.703 186.042 117.68 185.818 117.648C185.6 117.612 185.368 117.594 185.123 117.594C184.54 117.594 184.019 117.716 183.561 117.961C183.107 118.201 182.748 118.534 182.482 118.961C182.222 119.383 182.092 119.865 182.092 120.406V128H180.248ZM192.44 128.25C191.283 128.25 190.286 127.995 189.447 127.484C188.614 126.969 187.971 126.25 187.518 125.328C187.07 124.401 186.846 123.323 186.846 122.094C186.846 120.865 187.07 119.781 187.518 118.844C187.971 117.901 188.601 117.167 189.408 116.641C190.221 116.109 191.169 115.844 192.252 115.844C192.877 115.844 193.494 115.948 194.104 116.156C194.713 116.365 195.268 116.703 195.768 117.172C196.268 117.635 196.666 118.25 196.963 119.016C197.26 119.781 197.408 120.724 197.408 121.844V122.625H188.158V121.031H195.533C195.533 120.354 195.398 119.75 195.127 119.219C194.862 118.687 194.481 118.268 193.987 117.961C193.497 117.654 192.919 117.5 192.252 117.5C191.518 117.5 190.882 117.682 190.346 118.047C189.815 118.406 189.406 118.875 189.119 119.453C188.833 120.031 188.69 120.651 188.69 121.312V122.375C188.69 123.281 188.846 124.049 189.158 124.68C189.476 125.305 189.916 125.781 190.479 126.109C191.041 126.432 191.695 126.594 192.44 126.594C192.924 126.594 193.362 126.526 193.752 126.391C194.148 126.25 194.489 126.042 194.776 125.766C195.062 125.484 195.283 125.135 195.44 124.719L197.221 125.219C197.033 125.823 196.718 126.354 196.276 126.812C195.833 127.266 195.286 127.62 194.635 127.875C193.984 128.125 193.252 128.25 192.44 128.25ZM204.397 132.75C203.506 132.75 202.741 132.635 202.1 132.406C201.459 132.182 200.926 131.885 200.498 131.516C200.077 131.151 199.741 130.76 199.491 130.344L200.959 129.313C201.126 129.531 201.337 129.781 201.592 130.062C201.847 130.349 202.196 130.596 202.639 130.805C203.087 131.018 203.673 131.125 204.397 131.125C205.366 131.125 206.165 130.891 206.795 130.422C207.426 129.953 207.741 129.219 207.741 128.219V125.781H207.584C207.449 126 207.256 126.271 207.006 126.594C206.761 126.911 206.407 127.195 205.944 127.445C205.485 127.69 204.866 127.812 204.084 127.812C203.116 127.812 202.246 127.583 201.475 127.125C200.709 126.667 200.103 126 199.655 125.125C199.212 124.25 198.991 123.187 198.991 121.937C198.991 120.708 199.207 119.638 199.639 118.727C200.071 117.81 200.673 117.102 201.444 116.602C202.215 116.096 203.105 115.844 204.116 115.844C204.897 115.844 205.517 115.974 205.975 116.234C206.439 116.49 206.793 116.781 207.038 117.109C207.288 117.432 207.48 117.698 207.616 117.906H207.803V116H209.584V128.344C209.584 129.375 209.35 130.214 208.881 130.859C208.418 131.51 207.793 131.987 207.006 132.289C206.225 132.596 205.355 132.75 204.397 132.75ZM204.334 126.156C205.074 126.156 205.699 125.987 206.209 125.648C206.72 125.31 207.108 124.823 207.373 124.188C207.639 123.552 207.772 122.792 207.772 121.906C207.772 121.042 207.642 120.279 207.381 119.617C207.121 118.956 206.735 118.437 206.225 118.062C205.715 117.687 205.084 117.5 204.334 117.5C203.553 117.5 202.902 117.698 202.381 118.094C201.866 118.49 201.478 119.021 201.217 119.688C200.962 120.354 200.834 121.094 200.834 121.906C200.834 122.74 200.965 123.477 201.225 124.117C201.491 124.753 201.881 125.253 202.397 125.617C202.918 125.977 203.564 126.156 204.334 126.156ZM219.862 123.094V116H221.706V128H219.862V125.969H219.737C219.456 126.578 219.018 127.096 218.424 127.523C217.831 127.945 217.081 128.156 216.174 128.156C215.424 128.156 214.758 127.992 214.174 127.664C213.591 127.331 213.133 126.831 212.799 126.164C212.466 125.492 212.299 124.646 212.299 123.625V116H214.143V123.5C214.143 124.375 214.388 125.073 214.878 125.594C215.372 126.115 216.003 126.375 216.768 126.375C217.226 126.375 217.693 126.258 218.167 126.023C218.646 125.789 219.047 125.43 219.37 124.945C219.698 124.461 219.862 123.844 219.862 123.094ZM226.266 112V128H224.423V112H226.266ZM232.515 128.281C231.754 128.281 231.064 128.138 230.444 127.852C229.824 127.56 229.332 127.141 228.968 126.594C228.603 126.042 228.421 125.375 228.421 124.594C228.421 123.906 228.556 123.349 228.827 122.922C229.098 122.49 229.46 122.151 229.913 121.906C230.366 121.661 230.866 121.479 231.413 121.359C231.965 121.234 232.52 121.135 233.077 121.063C233.806 120.969 234.397 120.898 234.85 120.852C235.309 120.799 235.642 120.714 235.85 120.594C236.064 120.474 236.171 120.266 236.171 119.969V119.906C236.171 119.135 235.96 118.536 235.538 118.109C235.121 117.682 234.488 117.469 233.64 117.469C232.759 117.469 232.069 117.661 231.569 118.047C231.069 118.432 230.718 118.844 230.515 119.281L228.765 118.656C229.077 117.927 229.494 117.359 230.015 116.953C230.541 116.542 231.113 116.255 231.733 116.094C232.358 115.927 232.973 115.844 233.577 115.844C233.962 115.844 234.405 115.891 234.905 115.984C235.41 116.073 235.897 116.258 236.366 116.539C236.84 116.82 237.233 117.245 237.546 117.812C237.858 118.38 238.015 119.141 238.015 120.094V128H236.171V126.375H236.077C235.952 126.635 235.744 126.914 235.452 127.211C235.16 127.508 234.772 127.76 234.288 127.969C233.804 128.177 233.212 128.281 232.515 128.281ZM232.796 126.625C233.525 126.625 234.14 126.482 234.64 126.195C235.145 125.909 235.525 125.539 235.78 125.086C236.041 124.633 236.171 124.156 236.171 123.656V121.969C236.093 122.062 235.921 122.148 235.655 122.227C235.395 122.299 235.093 122.365 234.749 122.422C234.41 122.474 234.08 122.521 233.757 122.562C233.439 122.599 233.181 122.63 232.983 122.656C232.504 122.719 232.056 122.82 231.64 122.961C231.228 123.096 230.895 123.302 230.64 123.578C230.39 123.849 230.265 124.219 230.265 124.687C230.265 125.328 230.502 125.812 230.975 126.141C231.455 126.464 232.061 126.625 232.796 126.625ZM240.72 128V116H242.501V117.875H242.657C242.907 117.234 243.311 116.737 243.868 116.383C244.426 116.023 245.095 115.844 245.876 115.844C246.668 115.844 247.327 116.023 247.853 116.383C248.384 116.737 248.798 117.234 249.095 117.875H249.22C249.527 117.255 249.988 116.763 250.603 116.398C251.217 116.029 251.954 115.844 252.814 115.844C253.886 115.844 254.764 116.18 255.446 116.852C256.129 117.518 256.47 118.557 256.47 119.969V128H254.626V119.969C254.626 119.083 254.384 118.451 253.899 118.07C253.415 117.69 252.845 117.5 252.189 117.5C251.345 117.5 250.691 117.755 250.228 118.266C249.764 118.771 249.532 119.411 249.532 120.187V128H247.657V119.781C247.657 119.099 247.436 118.549 246.993 118.133C246.551 117.711 245.98 117.5 245.282 117.5C244.803 117.5 244.355 117.628 243.939 117.883C243.527 118.138 243.194 118.492 242.939 118.945C242.689 119.393 242.564 119.911 242.564 120.5V128H240.72ZM264.212 128.25C263.056 128.25 262.058 127.995 261.22 127.484C260.387 126.969 259.743 126.25 259.29 125.328C258.842 124.401 258.618 123.323 258.618 122.094C258.618 120.865 258.842 119.781 259.29 118.844C259.743 117.901 260.374 117.167 261.181 116.641C261.993 116.109 262.941 115.844 264.025 115.844C264.65 115.844 265.267 115.948 265.876 116.156C266.486 116.365 267.04 116.703 267.54 117.172C268.04 117.635 268.439 118.25 268.736 119.016C269.032 119.781 269.181 120.724 269.181 121.844V122.625H259.931V121.031H267.306C267.306 120.354 267.17 119.75 266.9 119.219C266.634 118.687 266.254 118.268 265.759 117.961C265.269 117.654 264.691 117.5 264.025 117.5C263.29 117.5 262.655 117.682 262.118 118.047C261.587 118.406 261.178 118.875 260.892 119.453C260.605 120.031 260.462 120.651 260.462 121.312V122.375C260.462 123.281 260.618 124.049 260.931 124.68C261.249 125.305 261.689 125.781 262.251 126.109C262.814 126.432 263.467 126.594 264.212 126.594C264.696 126.594 265.134 126.526 265.525 126.391C265.92 126.25 266.262 126.042 266.548 125.766C266.835 125.484 267.056 125.135 267.212 124.719L268.993 125.219C268.806 125.823 268.491 126.354 268.048 126.812C267.605 127.266 267.058 127.62 266.407 127.875C265.756 128.125 265.025 128.25 264.212 128.25ZM273.169 120.781V128H271.326V116H273.107V117.875H273.263C273.544 117.266 273.971 116.776 274.544 116.406C275.117 116.031 275.857 115.844 276.763 115.844C277.576 115.844 278.286 116.01 278.896 116.344C279.505 116.672 279.979 117.172 280.318 117.844C280.656 118.51 280.826 119.354 280.826 120.375V128H278.982V120.5C278.982 119.557 278.737 118.823 278.247 118.297C277.758 117.766 277.086 117.5 276.232 117.5C275.643 117.5 275.117 117.628 274.654 117.883C274.195 118.138 273.833 118.51 273.568 119C273.302 119.49 273.169 120.083 273.169 120.781ZM288.753 116V117.562H282.535V116H288.753ZM284.347 113.125H286.191V124.562C286.191 125.083 286.266 125.474 286.417 125.734C286.574 125.99 286.772 126.161 287.011 126.25C287.256 126.333 287.514 126.375 287.785 126.375C287.988 126.375 288.154 126.365 288.285 126.344C288.415 126.318 288.519 126.297 288.597 126.281L288.972 127.937C288.847 127.984 288.673 128.031 288.449 128.078C288.225 128.13 287.941 128.156 287.597 128.156C287.076 128.156 286.566 128.044 286.066 127.82C285.571 127.596 285.16 127.255 284.832 126.797C284.509 126.339 284.347 125.76 284.347 125.062V113.125ZM294.398 128.281C293.638 128.281 292.948 128.138 292.328 127.852C291.708 127.56 291.216 127.141 290.851 126.594C290.487 126.042 290.304 125.375 290.304 124.594C290.304 123.906 290.44 123.349 290.711 122.922C290.981 122.49 291.343 122.151 291.797 121.906C292.25 121.661 292.75 121.479 293.297 121.359C293.849 121.234 294.403 121.135 294.961 121.063C295.69 120.969 296.281 120.898 296.734 120.852C297.192 120.799 297.526 120.714 297.734 120.594C297.948 120.474 298.054 120.266 298.054 119.969V119.906C298.054 119.135 297.843 118.536 297.422 118.109C297.005 117.682 296.372 117.469 295.523 117.469C294.643 117.469 293.953 117.661 293.453 118.047C292.953 118.432 292.601 118.844 292.398 119.281L290.648 118.656C290.961 117.927 291.377 117.359 291.898 116.953C292.424 116.542 292.997 116.255 293.617 116.094C294.242 115.927 294.856 115.844 295.461 115.844C295.846 115.844 296.289 115.891 296.789 115.984C297.294 116.073 297.781 116.258 298.25 116.539C298.724 116.82 299.117 117.245 299.429 117.812C299.742 118.38 299.898 119.141 299.898 120.094V128H298.054V126.375H297.961C297.836 126.635 297.627 126.914 297.336 127.211C297.044 127.508 296.656 127.76 296.172 127.969C295.687 128.177 295.096 128.281 294.398 128.281ZM294.679 126.625C295.409 126.625 296.023 126.482 296.523 126.195C297.028 125.909 297.409 125.539 297.664 125.086C297.924 124.633 298.054 124.156 298.054 123.656V121.969C297.976 122.062 297.804 122.148 297.539 122.227C297.278 122.299 296.976 122.365 296.632 122.422C296.294 122.474 295.963 122.521 295.64 122.562C295.323 122.599 295.065 122.63 294.867 122.656C294.388 122.719 293.94 122.82 293.523 122.961C293.112 123.096 292.778 123.302 292.523 123.578C292.273 123.849 292.148 124.219 292.148 124.687C292.148 125.328 292.385 125.812 292.859 126.141C293.338 126.464 293.945 126.625 294.679 126.625ZM307.478 128.25C306.353 128.25 305.385 127.984 304.572 127.453C303.76 126.922 303.135 126.19 302.697 125.258C302.26 124.326 302.041 123.26 302.041 122.062C302.041 120.844 302.265 119.768 302.713 118.836C303.166 117.898 303.796 117.167 304.603 116.641C305.416 116.109 306.364 115.844 307.447 115.844C308.291 115.844 309.051 116 309.728 116.312C310.405 116.625 310.96 117.062 311.392 117.625C311.825 118.187 312.093 118.844 312.197 119.594H310.353C310.213 119.047 309.9 118.562 309.416 118.141C308.937 117.714 308.291 117.5 307.478 117.5C306.76 117.5 306.129 117.687 305.588 118.062C305.051 118.432 304.632 118.956 304.33 119.633C304.033 120.305 303.885 121.094 303.885 122C303.885 122.927 304.03 123.734 304.322 124.422C304.619 125.109 305.036 125.643 305.572 126.023C306.114 126.404 306.749 126.594 307.478 126.594C307.958 126.594 308.392 126.51 308.783 126.344C309.174 126.177 309.504 125.938 309.775 125.625C310.046 125.312 310.239 124.937 310.353 124.5H312.197C312.093 125.208 311.835 125.846 311.424 126.414C311.017 126.977 310.478 127.424 309.806 127.758C309.14 128.086 308.364 128.25 307.478 128.25ZM306.603 127.937H308.135L308.01 128.563C308.416 128.625 308.788 128.794 309.127 129.07C309.465 129.352 309.635 129.797 309.635 130.406C309.635 131.078 309.356 131.625 308.799 132.047C308.247 132.474 307.431 132.688 306.353 132.688L306.291 131.469C306.775 131.469 307.176 131.391 307.494 131.234C307.817 131.083 307.978 130.828 307.978 130.469C307.978 130.109 307.846 129.865 307.58 129.734C307.314 129.604 306.885 129.516 306.291 129.469L306.603 127.937ZM319.107 128.25C318.024 128.25 317.074 127.992 316.256 127.477C315.443 126.961 314.808 126.24 314.35 125.312C313.896 124.385 313.67 123.302 313.67 122.062C313.67 120.812 313.896 119.721 314.35 118.789C314.808 117.857 315.443 117.133 316.256 116.617C317.074 116.102 318.024 115.844 319.107 115.844C320.191 115.844 321.139 116.102 321.951 116.617C322.769 117.133 323.404 117.857 323.857 118.789C324.316 119.721 324.545 120.812 324.545 122.062C324.545 123.302 324.316 124.385 323.857 125.312C323.404 126.24 322.769 126.961 321.951 127.477C321.139 127.992 320.191 128.25 319.107 128.25ZM319.107 126.594C319.93 126.594 320.607 126.383 321.139 125.961C321.67 125.539 322.063 124.984 322.318 124.297C322.574 123.609 322.701 122.865 322.701 122.062C322.701 121.26 322.574 120.513 322.318 119.82C322.063 119.128 321.67 118.568 321.139 118.141C320.607 117.714 319.93 117.5 319.107 117.5C318.285 117.5 317.607 117.714 317.076 118.141C316.545 118.568 316.152 119.128 315.896 119.82C315.641 120.513 315.514 121.26 315.514 122.062C315.514 122.865 315.641 123.609 315.896 124.297C316.152 124.984 316.545 125.539 317.076 125.961C317.607 126.383 318.285 126.594 319.107 126.594ZM316.701 114.562L315.264 114.5C315.264 113.703 315.49 113.052 315.943 112.547C316.402 112.036 316.967 111.781 317.639 111.781C317.936 111.781 318.199 111.833 318.428 111.937C318.657 112.036 318.876 112.151 319.084 112.281C319.292 112.411 319.506 112.529 319.725 112.633C319.949 112.732 320.201 112.781 320.482 112.781C320.779 112.781 321.029 112.667 321.232 112.437C321.441 112.203 321.545 111.922 321.545 111.594L322.951 111.719C322.951 112.531 322.722 113.177 322.264 113.656C321.811 114.135 321.248 114.375 320.576 114.375C320.217 114.375 319.92 114.326 319.686 114.227C319.451 114.122 319.243 114.005 319.061 113.875C318.878 113.745 318.686 113.63 318.482 113.531C318.279 113.427 318.029 113.375 317.732 113.375C317.436 113.375 317.188 113.492 316.99 113.727C316.798 113.956 316.701 114.234 316.701 114.562ZM331.731 128.25C330.574 128.25 329.577 127.995 328.738 127.484C327.905 126.969 327.262 126.25 326.809 125.328C326.361 124.401 326.137 123.323 326.137 122.094C326.137 120.865 326.361 119.781 326.809 118.844C327.262 117.901 327.892 117.167 328.699 116.641C329.512 116.109 330.46 115.844 331.543 115.844C332.168 115.844 332.785 115.948 333.395 116.156C334.004 116.365 334.559 116.703 335.059 117.172C335.559 117.635 335.957 118.25 336.254 119.016C336.551 119.781 336.699 120.724 336.699 121.844V122.625H327.449V121.031H334.824C334.824 120.354 334.689 119.75 334.418 119.219C334.152 118.687 333.772 118.268 333.277 117.961C332.788 117.654 332.21 117.5 331.543 117.5C330.809 117.5 330.173 117.682 329.637 118.047C329.106 118.406 328.697 118.875 328.41 119.453C328.124 120.031 327.981 120.651 327.981 121.312V122.375C327.981 123.281 328.137 124.049 328.449 124.68C328.767 125.305 329.207 125.781 329.77 126.109C330.332 126.432 330.986 126.594 331.731 126.594C332.215 126.594 332.652 126.526 333.043 126.391C333.439 126.25 333.78 126.042 334.067 125.766C334.353 125.484 334.574 125.135 334.731 124.719L336.512 125.219C336.324 125.823 336.009 126.354 335.567 126.812C335.124 127.266 334.577 127.62 333.926 127.875C333.275 128.125 332.543 128.25 331.731 128.25ZM347.344 118.687L345.688 119.156C345.584 118.88 345.43 118.612 345.227 118.352C345.029 118.086 344.758 117.867 344.414 117.695C344.071 117.523 343.631 117.437 343.094 117.437C342.36 117.437 341.748 117.607 341.258 117.945C340.774 118.279 340.532 118.703 340.532 119.219C340.532 119.677 340.698 120.039 341.032 120.305C341.365 120.57 341.886 120.792 342.594 120.969L344.375 121.406C345.448 121.667 346.248 122.065 346.774 122.602C347.3 123.133 347.563 123.818 347.563 124.656C347.563 125.344 347.365 125.958 346.969 126.5C346.578 127.042 346.032 127.469 345.328 127.781C344.625 128.094 343.808 128.25 342.875 128.25C341.651 128.25 340.638 127.984 339.836 127.453C339.034 126.922 338.526 126.146 338.313 125.125L340.063 124.687C340.229 125.333 340.545 125.818 341.008 126.141C341.477 126.464 342.089 126.625 342.844 126.625C343.703 126.625 344.386 126.443 344.891 126.078C345.401 125.708 345.657 125.266 345.657 124.75C345.657 124.333 345.511 123.984 345.219 123.703C344.927 123.417 344.479 123.203 343.875 123.062L341.875 122.594C340.776 122.333 339.969 121.93 339.453 121.383C338.943 120.831 338.688 120.141 338.688 119.312C338.688 118.635 338.878 118.036 339.258 117.516C339.644 116.995 340.167 116.586 340.828 116.289C341.495 115.992 342.25 115.844 343.094 115.844C344.282 115.844 345.214 116.104 345.891 116.625C346.573 117.146 347.058 117.833 347.344 118.687ZM360.237 128.25C359.081 128.25 358.083 127.995 357.245 127.484C356.411 126.969 355.768 126.25 355.315 125.328C354.867 124.401 354.643 123.323 354.643 122.094C354.643 120.865 354.867 119.781 355.315 118.844C355.768 117.901 356.398 117.167 357.206 116.641C358.018 116.109 358.966 115.844 360.049 115.844C360.674 115.844 361.292 115.948 361.901 116.156C362.51 116.365 363.065 116.703 363.565 117.172C364.065 117.635 364.464 118.25 364.76 119.016C365.057 119.781 365.206 120.724 365.206 121.844V122.625H355.956V121.031H363.331C363.331 120.354 363.195 119.75 362.924 119.219C362.659 118.687 362.279 118.268 361.784 117.961C361.294 117.654 360.716 117.5 360.049 117.5C359.315 117.5 358.68 117.682 358.143 118.047C357.612 118.406 357.203 118.875 356.917 119.453C356.63 120.031 356.487 120.651 356.487 121.312V122.375C356.487 123.281 356.643 124.049 356.956 124.68C357.273 125.305 357.714 125.781 358.276 126.109C358.839 126.432 359.492 126.594 360.237 126.594C360.721 126.594 361.159 126.526 361.549 126.391C361.945 126.25 362.286 126.042 362.573 125.766C362.859 125.484 363.081 125.135 363.237 124.719L365.018 125.219C364.831 125.823 364.516 126.354 364.073 126.812C363.63 127.266 363.083 127.62 362.432 127.875C361.781 128.125 361.049 128.25 360.237 128.25ZM375.85 118.687L374.194 119.156C374.09 118.88 373.936 118.612 373.733 118.352C373.535 118.086 373.264 117.867 372.921 117.695C372.577 117.523 372.137 117.437 371.6 117.437C370.866 117.437 370.254 117.607 369.764 117.945C369.28 118.279 369.038 118.703 369.038 119.219C369.038 119.677 369.205 120.039 369.538 120.305C369.871 120.57 370.392 120.792 371.1 120.969L372.882 121.406C373.955 121.667 374.754 122.065 375.28 122.602C375.806 123.133 376.069 123.818 376.069 124.656C376.069 125.344 375.871 125.958 375.475 126.5C375.085 127.042 374.538 127.469 373.835 127.781C373.132 128.094 372.314 128.25 371.382 128.25C370.158 128.25 369.145 127.984 368.343 127.453C367.541 126.922 367.033 126.146 366.819 125.125L368.569 124.687C368.736 125.333 369.051 125.818 369.514 126.141C369.983 126.464 370.595 126.625 371.35 126.625C372.21 126.625 372.892 126.443 373.397 126.078C373.908 125.708 374.163 125.266 374.163 124.75C374.163 124.333 374.017 123.984 373.725 123.703C373.434 123.417 372.986 123.203 372.382 123.062L370.382 122.594C369.283 122.333 368.475 121.93 367.96 121.383C367.449 120.831 367.194 120.141 367.194 119.312C367.194 118.635 367.384 118.036 367.764 117.516C368.15 116.995 368.673 116.586 369.335 116.289C370.001 115.992 370.757 115.844 371.6 115.844C372.788 115.844 373.72 116.104 374.397 116.625C375.08 117.146 375.564 117.833 375.85 118.687ZM383.403 116V117.562H377.185V116H383.403ZM378.997 113.125H380.841V124.562C380.841 125.083 380.916 125.474 381.067 125.734C381.224 125.99 381.422 126.161 381.661 126.25C381.906 126.333 382.164 126.375 382.435 126.375C382.638 126.375 382.804 126.365 382.935 126.344C383.065 126.318 383.169 126.297 383.247 126.281L383.622 127.937C383.497 127.984 383.323 128.031 383.099 128.078C382.875 128.13 382.591 128.156 382.247 128.156C381.726 128.156 381.216 128.044 380.716 127.82C380.221 127.596 379.81 127.255 379.481 126.797C379.158 126.339 378.997 125.76 378.997 125.062V113.125ZM389.048 128.281C388.288 128.281 387.597 128.138 386.978 127.852C386.358 127.56 385.866 127.141 385.501 126.594C385.137 126.042 384.954 125.375 384.954 124.594C384.954 123.906 385.09 123.349 385.36 122.922C385.631 122.49 385.993 122.151 386.446 121.906C386.9 121.661 387.4 121.479 387.946 121.359C388.498 121.234 389.053 121.135 389.61 121.063C390.34 120.969 390.931 120.898 391.384 120.852C391.842 120.799 392.176 120.714 392.384 120.594C392.597 120.474 392.704 120.266 392.704 119.969V119.906C392.704 119.135 392.493 118.536 392.071 118.109C391.655 117.682 391.022 117.469 390.173 117.469C389.293 117.469 388.603 117.661 388.103 118.047C387.603 118.432 387.251 118.844 387.048 119.281L385.298 118.656C385.61 117.927 386.027 117.359 386.548 116.953C387.074 116.542 387.647 116.255 388.267 116.094C388.892 115.927 389.506 115.844 390.11 115.844C390.496 115.844 390.939 115.891 391.439 115.984C391.944 116.073 392.431 116.258 392.9 116.539C393.373 116.82 393.767 117.245 394.079 117.812C394.392 118.38 394.548 119.141 394.548 120.094V128H392.704V126.375H392.61C392.485 126.635 392.277 126.914 391.985 127.211C391.694 127.508 391.306 127.76 390.821 127.969C390.337 128.177 389.746 128.281 389.048 128.281ZM389.329 126.625C390.058 126.625 390.673 126.482 391.173 126.195C391.678 125.909 392.058 125.539 392.314 125.086C392.574 124.633 392.704 124.156 392.704 123.656V121.969C392.626 122.062 392.454 122.148 392.189 122.227C391.928 122.299 391.626 122.365 391.282 122.422C390.944 122.474 390.613 122.521 390.29 122.562C389.972 122.599 389.715 122.63 389.517 122.656C389.038 122.719 388.59 122.82 388.173 122.961C387.762 123.096 387.428 123.302 387.173 123.578C386.923 123.849 386.798 124.219 386.798 124.687C386.798 125.328 387.035 125.812 387.509 126.141C387.988 126.464 388.595 126.625 389.329 126.625ZM387.829 114.562L386.392 114.5C386.392 113.703 386.618 113.052 387.071 112.547C387.53 112.036 388.095 111.781 388.767 111.781C389.064 111.781 389.327 111.833 389.556 111.937C389.785 112.036 390.004 112.151 390.212 112.281C390.42 112.411 390.634 112.529 390.853 112.633C391.077 112.732 391.329 112.781 391.61 112.781C391.907 112.781 392.157 112.667 392.36 112.437C392.569 112.203 392.673 111.922 392.673 111.594L394.079 111.719C394.079 112.531 393.85 113.177 393.392 113.656C392.939 114.135 392.376 114.375 391.704 114.375C391.345 114.375 391.048 114.326 390.814 114.227C390.579 114.122 390.371 114.005 390.189 113.875C390.006 113.745 389.814 113.63 389.61 113.531C389.407 113.427 389.157 113.375 388.86 113.375C388.564 113.375 388.316 113.492 388.118 113.727C387.926 113.956 387.829 114.234 387.829 114.562ZM402.128 128.25C401.045 128.25 400.094 127.992 399.277 127.477C398.464 126.961 397.829 126.24 397.37 125.312C396.917 124.385 396.691 123.302 396.691 122.062C396.691 120.812 396.917 119.721 397.37 118.789C397.829 117.857 398.464 117.133 399.277 116.617C400.094 116.102 401.045 115.844 402.128 115.844C403.212 115.844 404.159 116.102 404.972 116.617C405.79 117.133 406.425 117.857 406.878 118.789C407.337 119.721 407.566 120.812 407.566 122.062C407.566 123.302 407.337 124.385 406.878 125.312C406.425 126.24 405.79 126.961 404.972 127.477C404.159 127.992 403.212 128.25 402.128 128.25ZM402.128 126.594C402.951 126.594 403.628 126.383 404.159 125.961C404.691 125.539 405.084 124.984 405.339 124.297C405.594 123.609 405.722 122.865 405.722 122.062C405.722 121.26 405.594 120.513 405.339 119.82C405.084 119.128 404.691 118.568 404.159 118.141C403.628 117.714 402.951 117.5 402.128 117.5C401.305 117.5 400.628 117.714 400.097 118.141C399.566 118.568 399.172 119.128 398.917 119.82C398.662 120.513 398.534 121.26 398.534 122.062C398.534 122.865 398.662 123.609 398.917 124.297C399.172 124.984 399.566 125.539 400.097 125.961C400.628 126.383 401.305 126.594 402.128 126.594ZM420.279 128.25C419.123 128.25 418.125 127.995 417.287 127.484C416.453 126.969 415.81 126.25 415.357 125.328C414.909 124.401 414.685 123.323 414.685 122.094C414.685 120.865 414.909 119.781 415.357 118.844C415.81 117.901 416.44 117.167 417.248 116.641C418.06 116.109 419.008 115.844 420.091 115.844C420.716 115.844 421.334 115.948 421.943 116.156C422.552 116.365 423.107 116.703 423.607 117.172C424.107 117.635 424.505 118.25 424.802 119.016C425.099 119.781 425.248 120.724 425.248 121.844V122.625H415.998V121.031H423.373C423.373 120.354 423.237 119.75 422.966 119.219C422.701 118.687 422.321 118.268 421.826 117.961C421.336 117.654 420.758 117.5 420.091 117.5C419.357 117.5 418.722 117.682 418.185 118.047C417.654 118.406 417.245 118.875 416.959 119.453C416.672 120.031 416.529 120.651 416.529 121.312V122.375C416.529 123.281 416.685 124.049 416.998 124.68C417.315 125.305 417.755 125.781 418.318 126.109C418.88 126.432 419.534 126.594 420.279 126.594C420.763 126.594 421.201 126.526 421.591 126.391C421.987 126.25 422.328 126.042 422.615 125.766C422.901 125.484 423.123 125.135 423.279 124.719L425.06 125.219C424.873 125.823 424.558 126.354 424.115 126.812C423.672 127.266 423.125 127.62 422.474 127.875C421.823 128.125 421.091 128.25 420.279 128.25ZM428.445 116L431.32 120.906L434.195 116H436.32L432.445 122L436.32 128H434.195L431.32 123.344L428.445 128H426.32L430.133 122L426.32 116H428.445ZM438.291 128V116H440.135V128H438.291ZM439.228 114C438.869 114 438.559 113.878 438.299 113.633C438.044 113.388 437.916 113.094 437.916 112.75C437.916 112.406 438.044 112.112 438.299 111.867C438.559 111.622 438.869 111.5 439.228 111.5C439.588 111.5 439.895 111.622 440.15 111.867C440.411 112.112 440.541 112.406 440.541 112.75C440.541 113.094 440.411 113.388 440.15 113.633C439.895 113.878 439.588 114 439.228 114ZM447.695 132.75C446.805 132.75 446.039 132.635 445.399 132.406C444.758 132.182 444.224 131.885 443.797 131.516C443.375 131.151 443.039 130.76 442.789 130.344L444.258 129.313C444.425 129.531 444.636 129.781 444.891 130.062C445.146 130.349 445.495 130.596 445.938 130.805C446.386 131.018 446.971 131.125 447.695 131.125C448.664 131.125 449.464 130.891 450.094 130.422C450.724 129.953 451.039 129.219 451.039 128.219V125.781H450.883C450.747 126 450.555 126.271 450.305 126.594C450.06 126.911 449.706 127.195 449.242 127.445C448.784 127.69 448.164 127.812 447.383 127.812C446.414 127.812 445.544 127.583 444.774 127.125C444.008 126.667 443.401 126 442.953 125.125C442.511 124.25 442.289 123.187 442.289 121.937C442.289 120.708 442.505 119.638 442.938 118.727C443.37 117.81 443.971 117.102 444.742 116.602C445.513 116.096 446.404 115.844 447.414 115.844C448.195 115.844 448.815 115.974 449.274 116.234C449.737 116.49 450.091 116.781 450.336 117.109C450.586 117.432 450.779 117.698 450.914 117.906H451.102V116H452.883V128.344C452.883 129.375 452.649 130.214 452.18 130.859C451.716 131.51 451.091 131.987 450.305 132.289C449.524 132.596 448.654 132.75 447.695 132.75ZM447.633 126.156C448.372 126.156 448.997 125.987 449.508 125.648C450.018 125.31 450.406 124.823 450.672 124.188C450.938 123.552 451.07 122.792 451.07 121.906C451.07 121.042 450.94 120.279 450.68 119.617C450.419 118.956 450.034 118.437 449.524 118.062C449.013 117.687 448.383 117.5 447.633 117.5C446.852 117.5 446.201 117.698 445.68 118.094C445.164 118.49 444.776 119.021 444.516 119.688C444.261 120.354 444.133 121.094 444.133 121.906C444.133 122.74 444.263 123.477 444.524 124.117C444.789 124.753 445.18 125.253 445.695 125.617C446.216 125.977 446.862 126.156 447.633 126.156ZM455.598 128V116H457.442V128H455.598ZM456.535 114C456.176 114 455.866 113.878 455.606 113.633C455.351 113.388 455.223 113.094 455.223 112.75C455.223 112.406 455.351 112.112 455.606 111.867C455.866 111.622 456.176 111.5 456.535 111.5C456.895 111.5 457.202 111.622 457.457 111.867C457.718 112.112 457.848 112.406 457.848 112.75C457.848 113.094 457.718 113.388 457.457 113.633C457.202 113.878 456.895 114 456.535 114ZM462.002 120.781V128H460.159V116H461.94V117.875H462.096C462.377 117.266 462.804 116.776 463.377 116.406C463.95 116.031 464.69 115.844 465.596 115.844C466.409 115.844 467.12 116.01 467.729 116.344C468.338 116.672 468.812 117.172 469.151 117.844C469.489 118.51 469.659 119.354 469.659 120.375V128H467.815V120.5C467.815 119.557 467.57 118.823 467.08 118.297C466.591 117.766 465.919 117.5 465.065 117.5C464.476 117.5 463.95 117.628 463.487 117.883C463.028 118.138 462.666 118.51 462.401 119C462.135 119.49 462.002 120.083 462.002 120.781ZM476.899 128.25C475.899 128.25 475.016 127.997 474.251 127.492C473.485 126.982 472.886 126.263 472.454 125.336C472.021 124.404 471.805 123.302 471.805 122.031C471.805 120.771 472.021 119.677 472.454 118.75C472.886 117.823 473.488 117.107 474.258 116.602C475.029 116.096 475.92 115.844 476.93 115.844C477.711 115.844 478.329 115.974 478.782 116.234C479.24 116.49 479.589 116.781 479.829 117.109C480.073 117.432 480.264 117.698 480.399 117.906H480.555V112H482.399V128H480.618V126.156H480.399C480.264 126.375 480.071 126.651 479.821 126.984C479.571 127.312 479.214 127.607 478.751 127.867C478.287 128.122 477.67 128.25 476.899 128.25ZM477.149 126.594C477.889 126.594 478.514 126.401 479.024 126.016C479.534 125.625 479.922 125.086 480.188 124.398C480.454 123.706 480.586 122.906 480.586 122C480.586 121.104 480.456 120.32 480.196 119.648C479.935 118.971 479.55 118.445 479.04 118.07C478.529 117.69 477.899 117.5 477.149 117.5C476.368 117.5 475.717 117.701 475.196 118.102C474.68 118.497 474.292 119.036 474.032 119.719C473.777 120.396 473.649 121.156 473.649 122C473.649 122.854 473.779 123.63 474.04 124.328C474.305 125.021 474.696 125.573 475.211 125.984C475.732 126.391 476.378 126.594 477.149 126.594ZM490.247 128.25C489.163 128.25 488.213 127.992 487.395 127.477C486.583 126.961 485.947 126.24 485.489 125.312C485.036 124.385 484.809 123.302 484.809 122.062C484.809 120.812 485.036 119.721 485.489 118.789C485.947 117.857 486.583 117.133 487.395 116.617C488.213 116.102 489.163 115.844 490.247 115.844C491.33 115.844 492.278 116.102 493.091 116.617C493.908 117.133 494.544 117.857 494.997 118.789C495.455 119.721 495.684 120.812 495.684 122.062C495.684 123.302 495.455 124.385 494.997 125.312C494.544 126.24 493.908 126.961 493.091 127.477C492.278 127.992 491.33 128.25 490.247 128.25ZM490.247 126.594C491.07 126.594 491.747 126.383 492.278 125.961C492.809 125.539 493.203 124.984 493.458 124.297C493.713 123.609 493.841 122.865 493.841 122.062C493.841 121.26 493.713 120.513 493.458 119.82C493.203 119.128 492.809 118.568 492.278 118.141C491.747 117.714 491.07 117.5 490.247 117.5C489.424 117.5 488.747 117.714 488.216 118.141C487.684 118.568 487.291 119.128 487.036 119.82C486.781 120.513 486.653 121.26 486.653 122.062C486.653 122.865 486.781 123.609 487.036 124.297C487.291 124.984 487.684 125.539 488.216 125.961C488.747 126.383 489.424 126.594 490.247 126.594ZM511.554 132.5V126.156H511.397C511.262 126.375 511.069 126.651 510.819 126.984C510.569 127.312 510.213 127.607 509.749 127.867C509.286 128.122 508.668 128.25 507.897 128.25C506.897 128.25 506.015 127.997 505.249 127.492C504.483 126.982 503.884 126.263 503.452 125.336C503.02 124.404 502.804 123.302 502.804 122.031C502.804 120.771 503.02 119.677 503.452 118.75C503.884 117.823 504.486 117.107 505.257 116.602C506.028 116.096 506.918 115.844 507.929 115.844C508.71 115.844 509.327 115.974 509.78 116.234C510.239 116.49 510.588 116.781 510.827 117.109C511.072 117.432 511.262 117.698 511.397 117.906H511.616V116H513.397V132.5H511.554ZM508.147 126.594C508.887 126.594 509.512 126.401 510.022 126.016C510.533 125.625 510.921 125.086 511.187 124.398C511.452 123.706 511.585 122.906 511.585 122C511.585 121.104 511.455 120.32 511.194 119.648C510.934 118.971 510.549 118.445 510.038 118.07C509.528 117.69 508.897 117.5 508.147 117.5C507.366 117.5 506.715 117.701 506.194 118.102C505.679 118.497 505.291 119.036 505.03 119.719C504.775 120.396 504.647 121.156 504.647 122C504.647 122.854 504.778 123.63 505.038 124.328C505.304 125.021 505.694 125.573 506.21 125.984C506.731 126.391 507.377 126.594 508.147 126.594ZM523.675 123.094V116H525.519V128H523.675V125.969H523.55C523.269 126.578 522.831 127.096 522.237 127.523C521.644 127.945 520.894 128.156 519.987 128.156C519.237 128.156 518.571 127.992 517.987 127.664C517.404 127.331 516.946 126.831 516.612 126.164C516.279 125.492 516.112 124.646 516.112 123.625V116H517.956V123.5C517.956 124.375 518.201 125.073 518.691 125.594C519.185 126.115 519.816 126.375 520.581 126.375C521.04 126.375 521.506 126.258 521.98 126.023C522.459 125.789 522.86 125.43 523.183 124.945C523.511 124.461 523.675 123.844 523.675 123.094ZM533.267 128.25C532.111 128.25 531.113 127.995 530.275 127.484C529.441 126.969 528.798 126.25 528.345 125.328C527.897 124.401 527.673 123.323 527.673 122.094C527.673 120.865 527.897 119.781 528.345 118.844C528.798 117.901 529.428 117.167 530.236 116.641C531.048 116.109 531.996 115.844 533.079 115.844C533.704 115.844 534.322 115.948 534.931 116.156C535.54 116.365 536.095 116.703 536.595 117.172C537.095 117.635 537.494 118.25 537.79 119.016C538.087 119.781 538.236 120.724 538.236 121.844V122.625H528.986V121.031H536.361C536.361 120.354 536.225 119.75 535.954 119.219C535.689 118.687 535.309 118.268 534.814 117.961C534.324 117.654 533.746 117.5 533.079 117.5C532.345 117.5 531.71 117.682 531.173 118.047C530.642 118.406 530.233 118.875 529.947 119.453C529.66 120.031 529.517 120.651 529.517 121.312V122.375C529.517 123.281 529.673 124.049 529.986 124.68C530.303 125.305 530.743 125.781 531.306 126.109C531.869 126.432 532.522 126.594 533.267 126.594C533.751 126.594 534.189 126.526 534.579 126.391C534.975 126.25 535.316 126.042 535.603 125.766C535.889 125.484 536.111 125.135 536.267 124.719L538.048 125.219C537.861 125.823 537.546 126.354 537.103 126.812C536.66 127.266 536.113 127.62 535.462 127.875C534.811 128.125 534.079 128.25 533.267 128.25ZM62.7188 161.25C61.5625 161.25 60.5651 160.995 59.7266 160.484C58.8932 159.969 58.25 159.25 57.7969 158.328C57.349 157.401 57.125 156.323 57.125 155.094C57.125 153.865 57.349 152.781 57.7969 151.844C58.25 150.901 58.8802 150.167 59.6875 149.641C60.5 149.109 61.4479 148.844 62.5312 148.844C63.1563 148.844 63.7734 148.948 64.3828 149.156C64.9922 149.365 65.5469 149.703 66.0469 150.172C66.5469 150.635 66.9453 151.25 67.2422 152.016C67.5391 152.781 67.6875 153.724 67.6875 154.844V155.625H58.4375V154.031H65.8125C65.8125 153.354 65.6771 152.75 65.4063 152.219C65.1406 151.687 64.7604 151.268 64.2656 150.961C63.776 150.654 63.1979 150.5 62.5312 150.5C61.7969 150.5 61.1615 150.682 60.625 151.047C60.0938 151.406 59.6849 151.875 59.3984 152.453C59.112 153.031 58.9688 153.651 58.9688 154.312V155.375C58.9688 156.281 59.125 157.049 59.4375 157.68C59.7552 158.305 60.1953 158.781 60.7578 159.109C61.3203 159.432 61.974 159.594 62.7188 159.594C63.2031 159.594 63.6406 159.526 64.0313 159.391C64.4271 159.25 64.7682 159.042 65.0547 158.766C65.3411 158.484 65.5625 158.135 65.7188 157.719L67.5 158.219C67.3125 158.823 66.9974 159.354 66.5547 159.812C66.112 160.266 65.5651 160.62 64.9141 160.875C64.263 161.125 63.5313 161.25 62.7188 161.25ZM69.8322 161V149H71.6134V150.875H71.7697C72.0197 150.234 72.4233 149.737 72.9806 149.383C73.5379 149.023 74.2072 148.844 74.9884 148.844C75.7801 148.844 76.439 149.023 76.965 149.383C77.4963 149.737 77.9103 150.234 78.2072 150.875H78.3322C78.6395 150.255 79.1004 149.763 79.715 149.398C80.3296 149.029 81.0666 148.844 81.9259 148.844C82.9989 148.844 83.8765 149.18 84.5588 149.852C85.241 150.518 85.5822 151.557 85.5822 152.969V161H83.7384V152.969C83.7384 152.083 83.4963 151.451 83.0119 151.07C82.5275 150.69 81.9572 150.5 81.3009 150.5C80.4572 150.5 79.8035 150.755 79.34 151.266C78.8765 151.771 78.6447 152.411 78.6447 153.187V161H76.7697V152.781C76.7697 152.099 76.5483 151.549 76.1056 151.133C75.6629 150.711 75.0926 150.5 74.3947 150.5C73.9155 150.5 73.4676 150.628 73.0509 150.883C72.6395 151.138 72.3061 151.492 72.0509 151.945C71.8009 152.393 71.6759 152.911 71.6759 153.5V161H69.8322ZM88.2933 165.5V149H90.0745V150.906H90.2933C90.4287 150.698 90.6162 150.432 90.8558 150.109C91.1006 149.781 91.4495 149.49 91.9027 149.234C92.361 148.974 92.9808 148.844 93.762 148.844C94.7724 148.844 95.6631 149.096 96.4339 149.602C97.2047 150.107 97.8063 150.823 98.2386 151.75C98.6709 152.677 98.887 153.771 98.887 155.031C98.887 156.302 98.6709 157.404 98.2386 158.336C97.8063 159.263 97.2073 159.982 96.4417 160.492C95.6761 160.997 94.7933 161.25 93.7933 161.25C93.0224 161.25 92.4053 161.122 91.9417 160.867C91.4782 160.607 91.1214 160.312 90.8714 159.984C90.6214 159.651 90.4287 159.375 90.2933 159.156H90.137V165.5H88.2933ZM90.1058 155C90.1058 155.906 90.2386 156.706 90.5042 157.398C90.7698 158.086 91.1579 158.625 91.6683 159.016C92.1787 159.401 92.8037 159.594 93.5433 159.594C94.3141 159.594 94.9573 159.391 95.473 158.984C95.9938 158.573 96.3844 158.021 96.6448 157.328C96.9105 156.63 97.0433 155.854 97.0433 155C97.0433 154.156 96.9131 153.396 96.6527 152.719C96.3974 152.036 96.0094 151.497 95.4886 151.102C94.973 150.701 94.3245 150.5 93.5433 150.5C92.7933 150.5 92.1631 150.69 91.6527 151.07C91.1422 151.445 90.7568 151.971 90.4964 152.648C90.236 153.32 90.1058 154.104 90.1058 155ZM101.04 161V149H102.821V150.812H102.946C103.165 150.219 103.56 149.737 104.133 149.367C104.706 148.997 105.352 148.812 106.071 148.812C106.206 148.812 106.375 148.815 106.579 148.82C106.782 148.826 106.935 148.833 107.04 148.844V150.719C106.977 150.703 106.834 150.68 106.61 150.648C106.391 150.612 106.159 150.594 105.915 150.594C105.331 150.594 104.81 150.716 104.352 150.961C103.899 151.201 103.54 151.534 103.274 151.961C103.013 152.383 102.883 152.865 102.883 153.406V161H101.04ZM113.231 161.25C112.075 161.25 111.077 160.995 110.239 160.484C109.406 159.969 108.762 159.25 108.309 158.328C107.861 157.401 107.637 156.323 107.637 155.094C107.637 153.865 107.861 152.781 108.309 151.844C108.762 150.901 109.393 150.167 110.2 149.641C111.012 149.109 111.96 148.844 113.044 148.844C113.669 148.844 114.286 148.948 114.895 149.156C115.505 149.365 116.059 149.703 116.559 150.172C117.059 150.635 117.458 151.25 117.755 152.016C118.051 152.781 118.2 153.724 118.2 154.844V155.625H108.95V154.031H116.325C116.325 153.354 116.189 152.75 115.919 152.219C115.653 151.687 115.273 151.268 114.778 150.961C114.288 150.654 113.71 150.5 113.044 150.5C112.309 150.5 111.674 150.682 111.137 151.047C110.606 151.406 110.197 151.875 109.911 152.453C109.624 153.031 109.481 153.651 109.481 154.312V155.375C109.481 156.281 109.637 157.049 109.95 157.68C110.268 158.305 110.708 158.781 111.27 159.109C111.833 159.432 112.486 159.594 113.231 159.594C113.715 159.594 114.153 159.526 114.544 159.391C114.939 159.25 115.281 159.042 115.567 158.766C115.853 158.484 116.075 158.135 116.231 157.719L118.012 158.219C117.825 158.823 117.51 159.354 117.067 159.812C116.624 160.266 116.077 160.62 115.426 160.875C114.775 161.125 114.044 161.25 113.231 161.25ZM128.845 151.687L127.188 152.156C127.084 151.88 126.93 151.612 126.727 151.352C126.529 151.086 126.259 150.867 125.915 150.695C125.571 150.523 125.131 150.437 124.595 150.437C123.86 150.437 123.248 150.607 122.759 150.945C122.274 151.279 122.032 151.703 122.032 152.219C122.032 152.677 122.199 153.039 122.532 153.305C122.865 153.57 123.386 153.792 124.095 153.969L125.876 154.406C126.949 154.667 127.748 155.065 128.274 155.602C128.8 156.133 129.063 156.818 129.063 157.656C129.063 158.344 128.865 158.958 128.47 159.5C128.079 160.042 127.532 160.469 126.829 160.781C126.126 161.094 125.308 161.25 124.376 161.25C123.152 161.25 122.139 160.984 121.337 160.453C120.535 159.922 120.027 159.146 119.813 158.125L121.563 157.687C121.73 158.333 122.045 158.818 122.509 159.141C122.977 159.464 123.589 159.625 124.345 159.625C125.204 159.625 125.886 159.443 126.391 159.078C126.902 158.708 127.157 158.266 127.157 157.75C127.157 157.333 127.011 156.984 126.72 156.703C126.428 156.417 125.98 156.203 125.376 156.062L123.376 155.594C122.277 155.333 121.47 154.93 120.954 154.383C120.443 153.831 120.188 153.141 120.188 152.312C120.188 151.635 120.378 151.036 120.759 150.516C121.144 149.995 121.667 149.586 122.329 149.289C122.996 148.992 123.751 148.844 124.595 148.844C125.782 148.844 126.714 149.104 127.391 149.625C128.074 150.146 128.558 150.833 128.845 151.687ZM134.71 161.281C133.95 161.281 133.259 161.138 132.64 160.852C132.02 160.56 131.528 160.141 131.163 159.594C130.798 159.042 130.616 158.375 130.616 157.594C130.616 156.906 130.752 156.349 131.022 155.922C131.293 155.49 131.655 155.151 132.108 154.906C132.561 154.661 133.061 154.479 133.608 154.359C134.16 154.234 134.715 154.135 135.272 154.063C136.002 153.969 136.593 153.898 137.046 153.852C137.504 153.799 137.838 153.714 138.046 153.594C138.259 153.474 138.366 153.266 138.366 152.969V152.906C138.366 152.135 138.155 151.536 137.733 151.109C137.317 150.682 136.684 150.469 135.835 150.469C134.955 150.469 134.265 150.661 133.765 151.047C133.265 151.432 132.913 151.844 132.71 152.281L130.96 151.656C131.272 150.927 131.689 150.359 132.21 149.953C132.736 149.542 133.309 149.255 133.929 149.094C134.554 148.927 135.168 148.844 135.772 148.844C136.158 148.844 136.601 148.891 137.101 148.984C137.606 149.073 138.093 149.258 138.561 149.539C139.035 149.82 139.429 150.245 139.741 150.812C140.054 151.38 140.21 152.141 140.21 153.094V161H138.366V159.375H138.272C138.147 159.635 137.939 159.914 137.647 160.211C137.356 160.508 136.968 160.76 136.483 160.969C135.999 161.177 135.408 161.281 134.71 161.281ZM134.991 159.625C135.72 159.625 136.335 159.482 136.835 159.195C137.34 158.909 137.72 158.539 137.976 158.086C138.236 157.633 138.366 157.156 138.366 156.656V154.969C138.288 155.062 138.116 155.148 137.851 155.227C137.59 155.299 137.288 155.365 136.944 155.422C136.606 155.474 136.275 155.521 135.952 155.562C135.634 155.599 135.377 155.63 135.179 155.656C134.7 155.719 134.252 155.82 133.835 155.961C133.423 156.096 133.09 156.302 132.835 156.578C132.585 156.849 132.46 157.219 132.46 157.687C132.46 158.328 132.697 158.812 133.171 159.141C133.65 159.464 134.257 159.625 134.991 159.625ZM151.415 151.687L149.759 152.156C149.655 151.88 149.501 151.612 149.298 151.352C149.1 151.086 148.829 150.867 148.485 150.695C148.142 150.523 147.702 150.437 147.165 150.437C146.431 150.437 145.819 150.607 145.329 150.945C144.845 151.279 144.603 151.703 144.603 152.219C144.603 152.677 144.769 153.039 145.103 153.305C145.436 153.57 145.957 153.792 146.665 153.969L148.446 154.406C149.519 154.667 150.319 155.065 150.845 155.602C151.371 156.133 151.634 156.818 151.634 157.656C151.634 158.344 151.436 158.958 151.04 159.5C150.65 160.042 150.103 160.469 149.4 160.781C148.696 161.094 147.879 161.25 146.946 161.25C145.722 161.25 144.709 160.984 143.907 160.453C143.105 159.922 142.597 159.146 142.384 158.125L144.134 157.687C144.301 158.333 144.616 158.818 145.079 159.141C145.548 159.464 146.16 159.625 146.915 159.625C147.775 159.625 148.457 159.443 148.962 159.078C149.472 158.708 149.728 158.266 149.728 157.75C149.728 157.333 149.582 156.984 149.29 156.703C148.998 156.417 148.551 156.203 147.946 156.062L145.946 155.594C144.847 155.333 144.04 154.93 143.525 154.383C143.014 153.831 142.759 153.141 142.759 152.312C142.759 151.635 142.949 151.036 143.329 150.516C143.715 149.995 144.238 149.586 144.9 149.289C145.566 148.992 146.321 148.844 147.165 148.844C148.353 148.844 149.285 149.104 149.962 149.625C150.644 150.146 151.129 150.833 151.415 151.687ZM164.308 161.25C163.152 161.25 162.154 160.995 161.316 160.484C160.483 159.969 159.839 159.25 159.386 158.328C158.938 157.401 158.714 156.323 158.714 155.094C158.714 153.865 158.938 152.781 159.386 151.844C159.839 150.901 160.47 150.167 161.277 149.641C162.089 149.109 163.037 148.844 164.121 148.844C164.746 148.844 165.363 148.948 165.972 149.156C166.581 149.365 167.136 149.703 167.636 150.172C168.136 150.635 168.535 151.25 168.831 152.016C169.128 152.781 169.277 153.724 169.277 154.844V155.625H160.027V154.031H167.402C167.402 153.354 167.266 152.75 166.996 152.219C166.73 151.687 166.35 151.268 165.855 150.961C165.365 150.654 164.787 150.5 164.121 150.5C163.386 150.5 162.751 150.682 162.214 151.047C161.683 151.406 161.274 151.875 160.988 152.453C160.701 153.031 160.558 153.651 160.558 154.312V155.375C160.558 156.281 160.714 157.049 161.027 157.68C161.345 158.305 161.785 158.781 162.347 159.109C162.91 159.432 163.563 159.594 164.308 159.594C164.792 159.594 165.23 159.526 165.621 159.391C166.016 159.25 166.358 159.042 166.644 158.766C166.93 158.484 167.152 158.135 167.308 157.719L169.089 158.219C168.902 158.823 168.587 159.354 168.144 159.812C167.701 160.266 167.154 160.62 166.503 160.875C165.852 161.125 165.121 161.25 164.308 161.25ZM181.793 165.75C180.902 165.75 180.136 165.635 179.496 165.406C178.855 165.182 178.321 164.885 177.894 164.516C177.472 164.151 177.136 163.76 176.886 163.344L178.355 162.313C178.522 162.531 178.733 162.781 178.988 163.062C179.243 163.349 179.592 163.596 180.035 163.805C180.483 164.018 181.069 164.125 181.793 164.125C182.761 164.125 183.561 163.891 184.191 163.422C184.821 162.953 185.136 162.219 185.136 161.219V158.781H184.98C184.845 159 184.652 159.271 184.402 159.594C184.157 159.911 183.803 160.195 183.34 160.445C182.881 160.69 182.261 160.812 181.48 160.812C180.511 160.812 179.642 160.583 178.871 160.125C178.105 159.667 177.498 159 177.051 158.125C176.608 157.25 176.386 156.187 176.386 154.937C176.386 153.708 176.603 152.638 177.035 151.727C177.467 150.81 178.069 150.102 178.84 149.602C179.61 149.096 180.501 148.844 181.511 148.844C182.293 148.844 182.913 148.974 183.371 149.234C183.834 149.49 184.189 149.781 184.433 150.109C184.683 150.432 184.876 150.698 185.011 150.906H185.199V149H186.98V161.344C186.98 162.375 186.746 163.214 186.277 163.859C185.814 164.51 185.189 164.987 184.402 165.289C183.621 165.596 182.751 165.75 181.793 165.75ZM181.73 159.156C182.47 159.156 183.095 158.987 183.605 158.648C184.116 158.31 184.504 157.823 184.769 157.188C185.035 156.552 185.168 155.792 185.168 154.906C185.168 154.042 185.038 153.279 184.777 152.617C184.517 151.956 184.131 151.437 183.621 151.062C183.11 150.687 182.48 150.5 181.73 150.5C180.949 150.5 180.298 150.698 179.777 151.094C179.261 151.49 178.873 152.021 178.613 152.688C178.358 153.354 178.23 154.094 178.23 154.906C178.23 155.74 178.36 156.477 178.621 157.117C178.886 157.753 179.277 158.253 179.793 158.617C180.314 158.977 180.959 159.156 181.73 159.156ZM194.57 161.25C193.487 161.25 192.536 160.992 191.719 160.477C190.906 159.961 190.271 159.24 189.812 158.312C189.359 157.385 189.133 156.302 189.133 155.062C189.133 153.812 189.359 152.721 189.812 151.789C190.271 150.857 190.906 150.133 191.719 149.617C192.536 149.102 193.487 148.844 194.57 148.844C195.654 148.844 196.601 149.102 197.414 149.617C198.232 150.133 198.867 150.857 199.32 151.789C199.779 152.721 200.008 153.812 200.008 155.062C200.008 156.302 199.779 157.385 199.32 158.312C198.867 159.24 198.232 159.961 197.414 160.477C196.601 160.992 195.654 161.25 194.57 161.25ZM194.57 159.594C195.393 159.594 196.07 159.383 196.601 158.961C197.133 158.539 197.526 157.984 197.781 157.297C198.036 156.609 198.164 155.865 198.164 155.062C198.164 154.26 198.036 153.513 197.781 152.82C197.526 152.128 197.133 151.568 196.601 151.141C196.07 150.714 195.393 150.5 194.57 150.5C193.747 150.5 193.07 150.714 192.539 151.141C192.008 151.568 191.615 152.128 191.359 152.82C191.104 153.513 190.976 154.26 190.976 155.062C190.976 155.865 191.104 156.609 191.359 157.297C191.615 157.984 192.008 158.539 192.539 158.961C193.07 159.383 193.747 159.594 194.57 159.594ZM211.545 149L207.107 161H205.232L200.795 149H202.795L206.107 158.562H206.232L209.545 149H211.545ZM217.92 161.25C216.764 161.25 215.767 160.995 214.928 160.484C214.095 159.969 213.451 159.25 212.998 158.328C212.55 157.401 212.326 156.323 212.326 155.094C212.326 153.865 212.55 152.781 212.998 151.844C213.451 150.901 214.082 150.167 214.889 149.641C215.701 149.109 216.649 148.844 217.733 148.844C218.358 148.844 218.975 148.948 219.584 149.156C220.194 149.365 220.748 149.703 221.248 150.172C221.748 150.635 222.147 151.25 222.444 152.016C222.74 152.781 222.889 153.724 222.889 154.844V155.625H213.639V154.031H221.014C221.014 153.354 220.878 152.75 220.608 152.219C220.342 151.687 219.962 151.268 219.467 150.961C218.977 150.654 218.399 150.5 217.733 150.5C216.998 150.5 216.363 150.682 215.826 151.047C215.295 151.406 214.886 151.875 214.6 152.453C214.313 153.031 214.17 153.651 214.17 154.312V155.375C214.17 156.281 214.326 157.049 214.639 157.68C214.957 158.305 215.397 158.781 215.959 159.109C216.522 159.432 217.175 159.594 217.92 159.594C218.405 159.594 218.842 159.526 219.233 159.391C219.628 159.25 219.97 159.042 220.256 158.766C220.543 158.484 220.764 158.135 220.92 157.719L222.701 158.219C222.514 158.823 222.199 159.354 221.756 159.812C221.313 160.266 220.767 160.62 220.115 160.875C219.464 161.125 218.733 161.25 217.92 161.25ZM225.034 161V149H226.815V150.812H226.94C227.159 150.219 227.554 149.737 228.127 149.367C228.7 148.997 229.346 148.812 230.065 148.812C230.2 148.812 230.37 148.815 230.573 148.82C230.776 148.826 230.929 148.833 231.034 148.844V150.719C230.971 150.703 230.828 150.68 230.604 150.648C230.385 150.612 230.153 150.594 229.909 150.594C229.325 150.594 228.804 150.716 228.346 150.961C227.893 151.201 227.534 151.534 227.268 151.961C227.008 152.383 226.877 152.865 226.877 153.406V161H225.034ZM234.403 153.781V161H232.559V149H234.34V150.875H234.497C234.778 150.266 235.205 149.776 235.778 149.406C236.351 149.031 237.09 148.844 237.997 148.844C238.809 148.844 239.52 149.01 240.129 149.344C240.739 149.672 241.213 150.172 241.551 150.844C241.89 151.51 242.059 152.354 242.059 153.375V161H240.215V153.5C240.215 152.557 239.971 151.823 239.481 151.297C238.991 150.766 238.32 150.5 237.465 150.5C236.877 150.5 236.351 150.628 235.887 150.883C235.429 151.138 235.067 151.51 234.801 152C234.536 152.49 234.403 153.083 234.403 153.781ZM249.643 161.25C248.56 161.25 247.609 160.992 246.792 160.477C245.979 159.961 245.344 159.24 244.885 158.312C244.432 157.385 244.206 156.302 244.206 155.062C244.206 153.812 244.432 152.721 244.885 151.789C245.344 150.857 245.979 150.133 246.792 149.617C247.609 149.102 248.56 148.844 249.643 148.844C250.727 148.844 251.675 149.102 252.487 149.617C253.305 150.133 253.94 150.857 254.393 151.789C254.852 152.721 255.081 153.812 255.081 155.062C255.081 156.302 254.852 157.385 254.393 158.312C253.94 159.24 253.305 159.961 252.487 160.477C251.675 160.992 250.727 161.25 249.643 161.25ZM249.643 159.594C250.466 159.594 251.143 159.383 251.675 158.961C252.206 158.539 252.599 157.984 252.854 157.297C253.109 156.609 253.237 155.865 253.237 155.062C253.237 154.26 253.109 153.513 252.854 152.82C252.599 152.128 252.206 151.568 251.675 151.141C251.143 150.714 250.466 150.5 249.643 150.5C248.82 150.5 248.143 150.714 247.612 151.141C247.081 151.568 246.688 152.128 246.432 152.82C246.177 153.513 246.05 154.26 246.05 155.062C246.05 155.865 246.177 156.609 246.432 157.297C246.688 157.984 247.081 158.539 247.612 158.961C248.143 159.383 248.82 159.594 249.643 159.594ZM265.735 151.687L264.079 152.156C263.975 151.88 263.821 151.612 263.618 151.352C263.42 151.086 263.149 150.867 262.806 150.695C262.462 150.523 262.022 150.437 261.485 150.437C260.751 150.437 260.139 150.607 259.649 150.945C259.165 151.279 258.923 151.703 258.923 152.219C258.923 152.677 259.089 153.039 259.423 153.305C259.756 153.57 260.277 153.792 260.985 153.969L262.766 154.406C263.839 154.667 264.639 155.065 265.165 155.602C265.691 156.133 265.954 156.818 265.954 157.656C265.954 158.344 265.756 158.958 265.36 159.5C264.97 160.042 264.423 160.469 263.72 160.781C263.016 161.094 262.199 161.25 261.266 161.25C260.043 161.25 259.03 160.984 258.227 160.453C257.425 159.922 256.918 159.146 256.704 158.125L258.454 157.687C258.621 158.333 258.936 158.818 259.399 159.141C259.868 159.464 260.48 159.625 261.235 159.625C262.095 159.625 262.777 159.443 263.282 159.078C263.793 158.708 264.048 158.266 264.048 157.75C264.048 157.333 263.902 156.984 263.61 156.703C263.319 156.417 262.871 156.203 262.266 156.062L260.266 155.594C259.168 155.333 258.36 154.93 257.845 154.383C257.334 153.831 257.079 153.141 257.079 152.312C257.079 151.635 257.269 151.036 257.649 150.516C258.035 149.995 258.558 149.586 259.22 149.289C259.886 148.992 260.641 148.844 261.485 148.844C262.673 148.844 263.605 149.104 264.282 149.625C264.964 150.146 265.449 150.833 265.735 151.687ZM273.597 161V149H275.441V161H273.597ZM274.534 147C274.175 147 273.865 146.878 273.605 146.633C273.349 146.388 273.222 146.094 273.222 145.75C273.222 145.406 273.349 145.112 273.605 144.867C273.865 144.622 274.175 144.5 274.534 144.5C274.894 144.5 275.201 144.622 275.456 144.867C275.717 145.112 275.847 145.406 275.847 145.75C275.847 146.094 275.717 146.388 275.456 146.633C275.201 146.878 274.894 147 274.534 147ZM280.001 153.781V161H278.158V149H279.939V150.875H280.095C280.376 150.266 280.803 149.776 281.376 149.406C281.949 149.031 282.689 148.844 283.595 148.844C284.408 148.844 285.119 149.01 285.728 149.344C286.337 149.672 286.811 150.172 287.15 150.844C287.488 151.51 287.658 152.354 287.658 153.375V161H285.814V153.5C285.814 152.557 285.569 151.823 285.079 151.297C284.59 150.766 283.918 150.5 283.064 150.5C282.475 150.5 281.949 150.628 281.486 150.883C281.027 151.138 280.665 151.51 280.4 152C280.134 152.49 280.001 153.083 280.001 153.781ZM299.75 149L295.312 161H293.437L289 149H291L294.312 158.562H294.437L297.75 149H299.75ZM301.523 161V149H303.367V161H301.523ZM302.461 147C302.101 147 301.791 146.878 301.531 146.633C301.276 146.388 301.148 146.094 301.148 145.75C301.148 145.406 301.276 145.112 301.531 144.867C301.791 144.622 302.101 144.5 302.461 144.5C302.82 144.5 303.127 144.622 303.382 144.867C303.643 145.112 303.773 145.406 303.773 145.75C303.773 146.094 303.643 146.388 303.382 146.633C303.127 146.878 302.82 147 302.461 147ZM314.584 151.687L312.928 152.156C312.823 151.88 312.67 151.612 312.467 151.352C312.269 151.086 311.998 150.867 311.654 150.695C311.31 150.523 310.87 150.437 310.334 150.437C309.599 150.437 308.987 150.607 308.498 150.945C308.014 151.279 307.771 151.703 307.771 152.219C307.771 152.677 307.938 153.039 308.271 153.305C308.605 153.57 309.125 153.792 309.834 153.969L311.615 154.406C312.688 154.667 313.487 155.065 314.014 155.602C314.54 156.133 314.803 156.818 314.803 157.656C314.803 158.344 314.605 158.958 314.209 159.5C313.818 160.042 313.271 160.469 312.568 160.781C311.865 161.094 311.047 161.25 310.115 161.25C308.891 161.25 307.878 160.984 307.076 160.453C306.274 159.922 305.766 159.146 305.553 158.125L307.303 157.687C307.469 158.333 307.784 158.818 308.248 159.141C308.717 159.464 309.329 159.625 310.084 159.625C310.943 159.625 311.625 159.443 312.131 159.078C312.641 158.708 312.896 158.266 312.896 157.75C312.896 157.333 312.75 156.984 312.459 156.703C312.167 156.417 311.719 156.203 311.115 156.062L309.115 155.594C308.016 155.333 307.209 154.93 306.693 154.383C306.183 153.831 305.928 153.141 305.928 152.312C305.928 151.635 306.118 151.036 306.498 150.516C306.883 149.995 307.407 149.586 308.068 149.289C308.735 148.992 309.49 148.844 310.334 148.844C311.521 148.844 312.454 149.104 313.131 149.625C313.813 150.146 314.297 150.833 314.584 151.687ZM322.137 149V150.562H315.918V149H322.137ZM317.73 146.125H319.574V157.562C319.574 158.083 319.65 158.474 319.801 158.734C319.957 158.99 320.155 159.161 320.395 159.25C320.639 159.333 320.897 159.375 321.168 159.375C321.371 159.375 321.538 159.365 321.668 159.344C321.798 159.318 321.902 159.297 321.98 159.281L322.355 160.937C322.23 160.984 322.056 161.031 321.832 161.078C321.608 161.13 321.324 161.156 320.98 161.156C320.46 161.156 319.949 161.044 319.449 160.82C318.954 160.596 318.543 160.255 318.215 159.797C317.892 159.339 317.73 158.76 317.73 158.062V146.125ZM327.781 161.281C327.021 161.281 326.331 161.138 325.711 160.852C325.091 160.56 324.599 160.141 324.235 159.594C323.87 159.042 323.688 158.375 323.688 157.594C323.688 156.906 323.823 156.349 324.094 155.922C324.365 155.49 324.727 155.151 325.18 154.906C325.633 154.661 326.133 154.479 326.68 154.359C327.232 154.234 327.787 154.135 328.344 154.063C329.073 153.969 329.664 153.898 330.117 153.852C330.576 153.799 330.909 153.714 331.117 153.594C331.331 153.474 331.438 153.266 331.438 152.969V152.906C331.438 152.135 331.227 151.536 330.805 151.109C330.388 150.682 329.755 150.469 328.906 150.469C328.026 150.469 327.336 150.661 326.836 151.047C326.336 151.432 325.985 151.844 325.781 152.281L324.031 151.656C324.344 150.927 324.761 150.359 325.281 149.953C325.807 149.542 326.38 149.255 327 149.094C327.625 148.927 328.24 148.844 328.844 148.844C329.229 148.844 329.672 148.891 330.172 148.984C330.677 149.073 331.164 149.258 331.633 149.539C332.107 149.82 332.5 150.245 332.813 150.812C333.125 151.38 333.281 152.141 333.281 153.094V161H331.438V159.375H331.344C331.219 159.635 331.011 159.914 330.719 160.211C330.427 160.508 330.039 160.76 329.555 160.969C329.07 161.177 328.479 161.281 327.781 161.281ZM328.063 159.625C328.792 159.625 329.406 159.482 329.906 159.195C330.412 158.909 330.792 158.539 331.047 158.086C331.307 157.633 331.438 157.156 331.438 156.656V154.969C331.36 155.062 331.188 155.148 330.922 155.227C330.662 155.299 330.36 155.365 330.016 155.422C329.677 155.474 329.347 155.521 329.024 155.562C328.706 155.599 328.448 155.63 328.25 155.656C327.771 155.719 327.323 155.82 326.906 155.961C326.495 156.096 326.162 156.302 325.906 156.578C325.656 156.849 325.531 157.219 325.531 157.687C325.531 158.328 325.768 158.812 326.242 159.141C326.722 159.464 327.328 159.625 328.063 159.625ZM335.987 161V149H337.768V150.875H337.924C338.174 150.234 338.578 149.737 339.135 149.383C339.692 149.023 340.362 148.844 341.143 148.844C341.935 148.844 342.593 149.023 343.119 149.383C343.651 149.737 344.065 150.234 344.362 150.875H344.487C344.794 150.255 345.255 149.763 345.869 149.398C346.484 149.029 347.221 148.844 348.08 148.844C349.153 148.844 350.031 149.18 350.713 149.852C351.395 150.518 351.737 151.557 351.737 152.969V161H349.893V152.969C349.893 152.083 349.651 151.451 349.166 151.07C348.682 150.69 348.112 150.5 347.455 150.5C346.612 150.5 345.958 150.755 345.494 151.266C345.031 151.771 344.799 152.411 344.799 153.187V161H342.924V152.781C342.924 152.099 342.703 151.549 342.26 151.133C341.817 150.711 341.247 150.5 340.549 150.5C340.07 150.5 339.622 150.628 339.205 150.883C338.794 151.138 338.461 151.492 338.205 151.945C337.955 152.393 337.83 152.911 337.83 153.5V161H335.987ZM365.006 161.25C363.85 161.25 362.853 160.995 362.014 160.484C361.181 159.969 360.538 159.25 360.085 158.328C359.637 157.401 359.413 156.323 359.413 155.094C359.413 153.865 359.637 152.781 360.085 151.844C360.538 150.901 361.168 150.167 361.975 149.641C362.788 149.109 363.736 148.844 364.819 148.844C365.444 148.844 366.061 148.948 366.671 149.156C367.28 149.365 367.835 149.703 368.335 150.172C368.835 150.635 369.233 151.25 369.53 152.016C369.827 152.781 369.975 153.724 369.975 154.844V155.625H360.725V154.031H368.1C368.1 153.354 367.965 152.75 367.694 152.219C367.428 151.687 367.048 151.268 366.553 150.961C366.064 150.654 365.486 150.5 364.819 150.5C364.085 150.5 363.449 150.682 362.913 151.047C362.381 151.406 361.973 151.875 361.686 152.453C361.4 153.031 361.256 153.651 361.256 154.312V155.375C361.256 156.281 361.413 157.049 361.725 157.68C362.043 158.305 362.483 158.781 363.046 159.109C363.608 159.432 364.262 159.594 365.006 159.594C365.491 159.594 365.928 159.526 366.319 159.391C366.715 159.25 367.056 159.042 367.342 158.766C367.629 158.484 367.85 158.135 368.006 157.719L369.788 158.219C369.6 158.823 369.285 159.354 368.842 159.812C368.4 160.266 367.853 160.62 367.202 160.875C366.551 161.125 365.819 161.25 365.006 161.25ZM372.12 161V149H373.901V150.875H374.057C374.307 150.234 374.711 149.737 375.268 149.383C375.826 149.023 376.495 148.844 377.276 148.844C378.068 148.844 378.727 149.023 379.253 149.383C379.784 149.737 380.198 150.234 380.495 150.875H380.62C380.927 150.255 381.388 149.763 382.003 149.398C382.617 149.029 383.354 148.844 384.214 148.844C385.287 148.844 386.164 149.18 386.846 149.852C387.529 150.518 387.87 151.557 387.87 152.969V161H386.026V152.969C386.026 152.083 385.784 151.451 385.3 151.07C384.815 150.69 384.245 150.5 383.589 150.5C382.745 150.5 382.091 150.755 381.628 151.266C381.164 151.771 380.932 152.411 380.932 153.187V161H379.057V152.781C379.057 152.099 378.836 151.549 378.393 151.133C377.951 150.711 377.38 150.5 376.682 150.5C376.203 150.5 375.755 150.628 375.339 150.883C374.927 151.138 374.594 151.492 374.339 151.945C374.089 152.393 373.964 152.911 373.964 153.5V161H372.12ZM404.609 151.687L402.952 152.156C402.848 151.88 402.694 151.612 402.491 151.352C402.293 151.086 402.023 150.867 401.679 150.695C401.335 150.523 400.895 150.437 400.359 150.437C399.624 150.437 399.012 150.607 398.523 150.945C398.038 151.279 397.796 151.703 397.796 152.219C397.796 152.677 397.963 153.039 398.296 153.305C398.629 153.57 399.15 153.792 399.859 153.969L401.64 154.406C402.713 154.667 403.512 155.065 404.038 155.602C404.564 156.133 404.827 156.818 404.827 157.656C404.827 158.344 404.629 158.958 404.234 159.5C403.843 160.042 403.296 160.469 402.593 160.781C401.89 161.094 401.072 161.25 400.14 161.25C398.916 161.25 397.903 160.984 397.101 160.453C396.299 159.922 395.791 159.146 395.577 158.125L397.327 157.687C397.494 158.333 397.809 158.818 398.273 159.141C398.741 159.464 399.353 159.625 400.109 159.625C400.968 159.625 401.65 159.443 402.155 159.078C402.666 158.708 402.921 158.266 402.921 157.75C402.921 157.333 402.775 156.984 402.484 156.703C402.192 156.417 401.744 156.203 401.14 156.062L399.14 155.594C398.041 155.333 397.234 154.93 396.718 154.383C396.207 153.831 395.952 153.141 395.952 152.312C395.952 151.635 396.142 151.036 396.523 150.516C396.908 149.995 397.431 149.586 398.093 149.289C398.76 148.992 399.515 148.844 400.359 148.844C401.546 148.844 402.478 149.104 403.155 149.625C403.838 150.146 404.322 150.833 404.609 151.687ZM411.818 161.25C410.734 161.25 409.784 160.992 408.966 160.477C408.154 159.961 407.518 159.24 407.06 158.312C406.607 157.385 406.38 156.302 406.38 155.062C406.38 153.812 406.607 152.721 407.06 151.789C407.518 150.857 408.154 150.133 408.966 149.617C409.784 149.102 410.734 148.844 411.818 148.844C412.901 148.844 413.849 149.102 414.661 149.617C415.479 150.133 416.115 150.857 416.568 151.789C417.026 152.721 417.255 153.812 417.255 155.062C417.255 156.302 417.026 157.385 416.568 158.312C416.115 159.24 415.479 159.961 414.661 160.477C413.849 160.992 412.901 161.25 411.818 161.25ZM411.818 159.594C412.641 159.594 413.318 159.383 413.849 158.961C414.38 158.539 414.773 157.984 415.029 157.297C415.284 156.609 415.411 155.865 415.411 155.062C415.411 154.26 415.284 153.513 415.029 152.82C414.773 152.128 414.38 151.568 413.849 151.141C413.318 150.714 412.641 150.5 411.818 150.5C410.995 150.5 410.318 150.714 409.786 151.141C409.255 151.568 408.862 152.128 408.607 152.82C408.352 153.513 408.224 154.26 408.224 155.062C408.224 155.865 408.352 156.609 408.607 157.297C408.862 157.984 409.255 158.539 409.786 158.961C410.318 159.383 410.995 159.594 411.818 159.594ZM421.253 145V161H419.41V145H421.253ZM431.533 156.094V149H433.377V161H431.533V158.969H431.408C431.127 159.578 430.689 160.096 430.095 160.523C429.502 160.945 428.752 161.156 427.845 161.156C427.095 161.156 426.429 160.992 425.845 160.664C425.262 160.331 424.804 159.831 424.47 159.164C424.137 158.492 423.97 157.646 423.97 156.625V149H425.814V156.5C425.814 157.375 426.059 158.073 426.548 158.594C427.043 159.115 427.673 159.375 428.439 159.375C428.897 159.375 429.364 159.258 429.837 159.023C430.317 158.789 430.718 158.43 431.041 157.945C431.369 157.461 431.533 156.844 431.533 156.094ZM440.969 161.25C439.844 161.25 438.875 160.984 438.062 160.453C437.25 159.922 436.625 159.19 436.187 158.258C435.75 157.326 435.531 156.26 435.531 155.062C435.531 153.844 435.755 152.768 436.203 151.836C436.656 150.898 437.286 150.167 438.094 149.641C438.906 149.109 439.854 148.844 440.937 148.844C441.781 148.844 442.541 149 443.219 149.312C443.896 149.625 444.45 150.062 444.883 150.625C445.315 151.187 445.583 151.844 445.687 152.594H443.844C443.703 152.047 443.39 151.562 442.906 151.141C442.427 150.714 441.781 150.5 440.969 150.5C440.25 150.5 439.62 150.687 439.078 151.062C438.541 151.432 438.122 151.956 437.82 152.633C437.523 153.305 437.375 154.094 437.375 155C437.375 155.927 437.521 156.734 437.812 157.422C438.109 158.109 438.526 158.643 439.062 159.023C439.604 159.404 440.239 159.594 440.969 159.594C441.448 159.594 441.883 159.51 442.273 159.344C442.664 159.177 442.995 158.938 443.265 158.625C443.536 158.312 443.729 157.937 443.844 157.5H445.687C445.583 158.208 445.325 158.846 444.914 159.414C444.508 159.977 443.969 160.424 443.297 160.758C442.63 161.086 441.854 161.25 440.969 161.25ZM440.094 160.937H441.625L441.5 161.563C441.906 161.625 442.278 161.794 442.617 162.07C442.955 162.352 443.125 162.797 443.125 163.406C443.125 164.078 442.846 164.625 442.289 165.047C441.737 165.474 440.922 165.688 439.844 165.688L439.781 164.469C440.265 164.469 440.666 164.391 440.984 164.234C441.307 164.083 441.469 163.828 441.469 163.469C441.469 163.109 441.336 162.865 441.07 162.734C440.804 162.604 440.375 162.516 439.781 162.469L440.094 160.937ZM452.598 161.25C451.514 161.25 450.564 160.992 449.746 160.477C448.934 159.961 448.298 159.24 447.84 158.312C447.387 157.385 447.16 156.302 447.16 155.062C447.16 153.812 447.387 152.721 447.84 151.789C448.298 150.857 448.934 150.133 449.746 149.617C450.564 149.102 451.514 148.844 452.598 148.844C453.681 148.844 454.629 149.102 455.441 149.617C456.259 150.133 456.894 150.857 457.348 151.789C457.806 152.721 458.035 153.812 458.035 155.062C458.035 156.302 457.806 157.385 457.348 158.312C456.894 159.24 456.259 159.961 455.441 160.477C454.629 160.992 453.681 161.25 452.598 161.25ZM452.598 159.594C453.42 159.594 454.098 159.383 454.629 158.961C455.16 158.539 455.553 157.984 455.809 157.297C456.064 156.609 456.191 155.865 456.191 155.062C456.191 154.26 456.064 153.513 455.809 152.82C455.553 152.128 455.16 151.568 454.629 151.141C454.098 150.714 453.42 150.5 452.598 150.5C451.775 150.5 451.098 150.714 450.566 151.141C450.035 151.568 449.642 152.128 449.387 152.82C449.131 153.513 449.004 154.26 449.004 155.062C449.004 155.865 449.131 156.609 449.387 157.297C449.642 157.984 450.035 158.539 450.566 158.961C451.098 159.383 451.775 159.594 452.598 159.594ZM450.191 147.562L448.754 147.5C448.754 146.703 448.98 146.052 449.434 145.547C449.892 145.036 450.457 144.781 451.129 144.781C451.426 144.781 451.689 144.833 451.918 144.937C452.147 145.036 452.366 145.151 452.574 145.281C452.782 145.411 452.996 145.529 453.215 145.633C453.439 145.732 453.691 145.781 453.973 145.781C454.269 145.781 454.519 145.667 454.723 145.437C454.931 145.203 455.035 144.922 455.035 144.594L456.441 144.719C456.441 145.531 456.212 146.177 455.754 146.656C455.301 147.135 454.738 147.375 454.066 147.375C453.707 147.375 453.41 147.326 453.176 147.227C452.941 147.122 452.733 147.005 452.551 146.875C452.368 146.745 452.176 146.63 451.973 146.531C451.769 146.427 451.519 146.375 451.223 146.375C450.926 146.375 450.678 146.492 450.48 146.727C450.288 146.956 450.191 147.234 450.191 147.562ZM465.221 161.25C464.065 161.25 463.067 160.995 462.229 160.484C461.395 159.969 460.752 159.25 460.299 158.328C459.851 157.401 459.627 156.323 459.627 155.094C459.627 153.865 459.851 152.781 460.299 151.844C460.752 150.901 461.382 150.167 462.19 149.641C463.002 149.109 463.95 148.844 465.033 148.844C465.658 148.844 466.275 148.948 466.885 149.156C467.494 149.365 468.049 149.703 468.549 150.172C469.049 150.635 469.447 151.25 469.744 152.016C470.041 152.781 470.19 153.724 470.19 154.844V155.625H460.94V154.031H468.315C468.315 153.354 468.179 152.75 467.908 152.219C467.643 151.687 467.262 151.268 466.768 150.961C466.278 150.654 465.7 150.5 465.033 150.5C464.299 150.5 463.664 150.682 463.127 151.047C462.596 151.406 462.187 151.875 461.9 152.453C461.614 153.031 461.471 153.651 461.471 154.312V155.375C461.471 156.281 461.627 157.049 461.94 157.68C462.257 158.305 462.697 158.781 463.26 159.109C463.822 159.432 464.476 159.594 465.221 159.594C465.705 159.594 466.143 159.526 466.533 159.391C466.929 159.25 467.27 159.042 467.557 158.766C467.843 158.484 468.065 158.135 468.221 157.719L470.002 158.219C469.815 158.823 469.499 159.354 469.057 159.812C468.614 160.266 468.067 160.62 467.416 160.875C466.765 161.125 466.033 161.25 465.221 161.25ZM480.834 151.687L479.178 152.156C479.074 151.88 478.92 151.612 478.717 151.352C478.519 151.086 478.248 150.867 477.905 150.695C477.561 150.523 477.121 150.437 476.584 150.437C475.85 150.437 475.238 150.607 474.748 150.945C474.264 151.279 474.022 151.703 474.022 152.219C474.022 152.677 474.188 153.039 474.522 153.305C474.855 153.57 475.376 153.792 476.084 153.969L477.865 154.406C478.938 154.667 479.738 155.065 480.264 155.602C480.79 156.133 481.053 156.818 481.053 157.656C481.053 158.344 480.855 158.958 480.459 159.5C480.069 160.042 479.522 160.469 478.819 160.781C478.115 161.094 477.298 161.25 476.365 161.25C475.142 161.25 474.128 160.984 473.326 160.453C472.524 159.922 472.017 159.146 471.803 158.125L473.553 157.687C473.72 158.333 474.035 158.818 474.498 159.141C474.967 159.464 475.579 159.625 476.334 159.625C477.194 159.625 477.876 159.443 478.381 159.078C478.892 158.708 479.147 158.266 479.147 157.75C479.147 157.333 479.001 156.984 478.709 156.703C478.418 156.417 477.97 156.203 477.365 156.062L475.365 155.594C474.267 155.333 473.459 154.93 472.944 154.383C472.433 153.831 472.178 153.141 472.178 152.312C472.178 151.635 472.368 151.036 472.748 150.516C473.134 149.995 473.657 149.586 474.319 149.289C474.985 148.992 475.74 148.844 476.584 148.844C477.772 148.844 478.704 149.104 479.381 149.625C480.063 150.146 480.548 150.833 480.834 151.687ZM493.227 161.25C492.227 161.25 491.344 160.997 490.579 160.492C489.813 159.982 489.214 159.263 488.782 158.336C488.35 157.404 488.133 156.302 488.133 155.031C488.133 153.771 488.35 152.677 488.782 151.75C489.214 150.823 489.816 150.107 490.586 149.602C491.357 149.096 492.248 148.844 493.258 148.844C494.04 148.844 494.657 148.974 495.11 149.234C495.568 149.49 495.917 149.781 496.157 150.109C496.402 150.432 496.592 150.698 496.727 150.906H496.883V145H498.727V161H496.946V159.156H496.727C496.592 159.375 496.399 159.651 496.149 159.984C495.899 160.312 495.542 160.607 495.079 160.867C494.615 161.122 493.998 161.25 493.227 161.25ZM493.477 159.594C494.217 159.594 494.842 159.401 495.352 159.016C495.863 158.625 496.251 158.086 496.516 157.398C496.782 156.706 496.915 155.906 496.915 155C496.915 154.104 496.784 153.32 496.524 152.648C496.264 151.971 495.878 151.445 495.368 151.07C494.857 150.69 494.227 150.5 493.477 150.5C492.696 150.5 492.045 150.701 491.524 151.102C491.008 151.497 490.62 152.036 490.36 152.719C490.105 153.396 489.977 154.156 489.977 155C489.977 155.854 490.107 156.63 490.368 157.328C490.633 158.021 491.024 158.573 491.54 158.984C492.06 159.391 492.706 159.594 493.477 159.594ZM506.731 161.25C505.575 161.25 504.578 160.995 503.739 160.484C502.906 159.969 502.262 159.25 501.809 158.328C501.361 157.401 501.137 156.323 501.137 155.094C501.137 153.865 501.361 152.781 501.809 151.844C502.262 150.901 502.893 150.167 503.7 149.641C504.512 149.109 505.46 148.844 506.544 148.844C507.169 148.844 507.786 148.948 508.395 149.156C509.005 149.365 509.559 149.703 510.059 150.172C510.559 150.635 510.958 151.25 511.255 152.016C511.551 152.781 511.7 153.724 511.7 154.844V155.625H502.45V154.031H509.825C509.825 153.354 509.69 152.75 509.419 152.219C509.153 151.687 508.773 151.268 508.278 150.961C507.788 150.654 507.21 150.5 506.544 150.5C505.809 150.5 505.174 150.682 504.637 151.047C504.106 151.406 503.697 151.875 503.411 152.453C503.124 153.031 502.981 153.651 502.981 154.312V155.375C502.981 156.281 503.137 157.049 503.45 157.68C503.768 158.305 504.208 158.781 504.77 159.109C505.333 159.432 505.986 159.594 506.731 159.594C507.216 159.594 507.653 159.526 508.044 159.391C508.44 159.25 508.781 159.042 509.067 158.766C509.354 158.484 509.575 158.135 509.731 157.719L511.512 158.219C511.325 158.823 511.01 159.354 510.567 159.812C510.124 160.266 509.578 160.62 508.926 160.875C508.275 161.125 507.544 161.25 506.731 161.25ZM59.5313 178V194H57.6875V178H59.5313ZM62.2482 194V182H64.092V194H62.2482ZM63.1857 180C62.8263 180 62.5164 179.878 62.256 179.633C62.0008 179.388 61.8732 179.094 61.8732 178.75C61.8732 178.406 62.0008 178.112 62.256 177.867C62.5164 177.622 62.8263 177.5 63.1857 177.5C63.5451 177.5 63.8524 177.622 64.1076 177.867C64.368 178.112 64.4982 178.406 64.4982 178.75C64.4982 179.094 64.368 179.388 64.1076 179.633C63.8524 179.878 63.5451 180 63.1857 180ZM66.8089 194V182H68.5902V183.875H68.7464C68.9964 183.234 69.4001 182.737 69.9573 182.383C70.5146 182.023 71.1839 181.844 71.9652 181.844C72.7568 181.844 73.4157 182.023 73.9417 182.383C74.473 182.737 74.887 183.234 75.1839 183.875H75.3089C75.6162 183.255 76.0771 182.763 76.6917 182.398C77.3063 182.029 78.0433 181.844 78.9027 181.844C79.9756 181.844 80.8532 182.18 81.5355 182.852C82.2178 183.518 82.5589 184.557 82.5589 185.969V194H80.7152V185.969C80.7152 185.083 80.473 184.451 79.9886 184.07C79.5042 183.69 78.9339 183.5 78.2777 183.5C77.4339 183.5 76.7803 183.755 76.3167 184.266C75.8532 184.771 75.6214 185.411 75.6214 186.187V194H73.7464V185.781C73.7464 185.099 73.5251 184.549 73.0823 184.133C72.6396 183.711 72.0693 183.5 71.3714 183.5C70.8922 183.5 70.4443 183.628 70.0277 183.883C69.6162 184.138 69.2829 184.492 69.0277 184.945C68.7777 185.393 68.6527 185.911 68.6527 186.5V194H66.8089ZM85.27 198.5V182H87.0513V183.906H87.27C87.4054 183.698 87.5929 183.432 87.8325 183.109C88.0773 182.781 88.4263 182.49 88.8794 182.234C89.3377 181.974 89.9575 181.844 90.7388 181.844C91.7492 181.844 92.6398 182.096 93.4106 182.602C94.1815 183.107 94.783 183.823 95.2153 184.75C95.6476 185.677 95.8638 186.771 95.8638 188.031C95.8638 189.302 95.6476 190.404 95.2153 191.336C94.783 192.263 94.1841 192.982 93.4184 193.492C92.6528 193.997 91.77 194.25 90.77 194.25C89.9992 194.25 89.382 194.122 88.9184 193.867C88.4549 193.607 88.0981 193.312 87.8481 192.984C87.5981 192.651 87.4054 192.375 87.27 192.156H87.1138V198.5H85.27ZM87.0825 188C87.0825 188.906 87.2153 189.706 87.4809 190.398C87.7466 191.086 88.1346 191.625 88.645 192.016C89.1554 192.401 89.7804 192.594 90.52 192.594C91.2908 192.594 91.9341 192.391 92.4497 191.984C92.9705 191.573 93.3611 191.021 93.6216 190.328C93.8872 189.63 94.02 188.854 94.02 188C94.02 187.156 93.8898 186.396 93.6294 185.719C93.3742 185.036 92.9861 184.497 92.4653 184.102C91.9497 183.701 91.3013 183.5 90.52 183.5C89.77 183.5 89.1398 183.69 88.6294 184.07C88.119 184.445 87.7335 184.971 87.4731 185.648C87.2127 186.32 87.0825 187.104 87.0825 188ZM103.048 194.25C101.891 194.25 100.894 193.995 100.055 193.484C99.222 192.969 98.5788 192.25 98.1256 191.328C97.6777 190.401 97.4538 189.323 97.4538 188.094C97.4538 186.865 97.6777 185.781 98.1256 184.844C98.5788 183.901 99.209 183.167 100.016 182.641C100.829 182.109 101.777 181.844 102.86 181.844C103.485 181.844 104.102 181.948 104.712 182.156C105.321 182.365 105.876 182.703 106.376 183.172C106.876 183.635 107.274 184.25 107.571 185.016C107.868 185.781 108.016 186.724 108.016 187.844V188.625H98.7663V187.031H106.141C106.141 186.354 106.006 185.75 105.735 185.219C105.469 184.687 105.089 184.268 104.594 183.961C104.105 183.654 103.527 183.5 102.86 183.5C102.126 183.5 101.49 183.682 100.954 184.047C100.423 184.406 100.014 184.875 99.7272 185.453C99.4407 186.031 99.2975 186.651 99.2975 187.312V188.375C99.2975 189.281 99.4538 190.049 99.7663 190.68C100.084 191.305 100.524 191.781 101.087 192.109C101.649 192.432 102.303 192.594 103.048 192.594C103.532 192.594 103.969 192.526 104.36 192.391C104.756 192.25 105.097 192.042 105.383 191.766C105.67 191.484 105.891 191.135 106.048 190.719L107.829 191.219C107.641 191.823 107.326 192.354 106.883 192.812C106.441 193.266 105.894 193.62 105.243 193.875C104.592 194.125 103.86 194.25 103.048 194.25ZM109.817 194V192.594L116.63 183.844V183.719H110.036V182H119.005V183.469L112.38 192.156V192.281H119.223V194H109.817ZM124.935 194.281C124.174 194.281 123.484 194.138 122.864 193.852C122.244 193.56 121.752 193.141 121.388 192.594C121.023 192.042 120.841 191.375 120.841 190.594C120.841 189.906 120.976 189.349 121.247 188.922C121.518 188.49 121.88 188.151 122.333 187.906C122.786 187.661 123.286 187.479 123.833 187.359C124.385 187.234 124.94 187.135 125.497 187.063C126.226 186.969 126.817 186.898 127.27 186.852C127.729 186.799 128.062 186.714 128.27 186.594C128.484 186.474 128.591 186.266 128.591 185.969V185.906C128.591 185.135 128.38 184.536 127.958 184.109C127.541 183.682 126.908 183.469 126.06 183.469C125.179 183.469 124.489 183.661 123.989 184.047C123.489 184.432 123.138 184.844 122.935 185.281L121.185 184.656C121.497 183.927 121.914 183.359 122.435 182.953C122.961 182.542 123.533 182.255 124.153 182.094C124.778 181.927 125.393 181.844 125.997 181.844C126.382 181.844 126.825 181.891 127.325 181.984C127.83 182.073 128.317 182.258 128.786 182.539C129.26 182.82 129.653 183.245 129.966 183.812C130.278 184.38 130.435 185.141 130.435 186.094V194H128.591V192.375H128.497C128.372 192.635 128.164 192.914 127.872 193.211C127.58 193.508 127.192 193.76 126.708 193.969C126.224 194.177 125.632 194.281 124.935 194.281ZM125.216 192.625C125.945 192.625 126.56 192.482 127.06 192.195C127.565 191.909 127.945 191.539 128.2 191.086C128.461 190.633 128.591 190.156 128.591 189.656V187.969C128.513 188.062 128.341 188.148 128.075 188.227C127.815 188.299 127.513 188.365 127.169 188.422C126.83 188.474 126.5 188.521 126.177 188.562C125.859 188.599 125.601 188.63 125.403 188.656C124.924 188.719 124.476 188.82 124.06 188.961C123.648 189.096 123.315 189.302 123.06 189.578C122.81 189.849 122.685 190.219 122.685 190.687C122.685 191.328 122.922 191.812 123.395 192.141C123.875 192.464 124.481 192.625 125.216 192.625ZM134.484 194.125C134.098 194.125 133.767 193.987 133.491 193.711C133.215 193.435 133.077 193.104 133.077 192.719C133.077 192.333 133.215 192.003 133.491 191.727C133.767 191.451 134.098 191.312 134.484 191.312C134.869 191.312 135.2 191.451 135.476 191.727C135.752 192.003 135.89 192.333 135.89 192.719C135.89 192.974 135.825 193.208 135.694 193.422C135.569 193.635 135.4 193.807 135.187 193.937C134.978 194.063 134.744 194.125 134.484 194.125Z" fill="white"/>
<defs>
<filter id="filter0_d_172_288" x="0" y="0" width="632" height="263" filterUnits="userSpaceOnUse" color-interpolation-filters="sRGB">
<feFlood flood-opacity="0" result="BackgroundImageFix"/>
<feColorMatrix in="SourceAlpha" type="matrix" values="0 0 0 0 0 0 0 0 0 0 0 0 0 0 0 0 0 0 127 0" result="hardAlpha"/>
<feOffset dy="3"/>
<feGaussianBlur stdDeviation="13"/>
<feColorMatrix type="matrix" values="0 0 0 0 0 0 0 0 0 0 0 0 0 0 0 0 0 0 0.16 0"/>
<feBlend mode="normal" in2="BackgroundImageFix" result="effect1_dropShadow_172_288"/>
<feBlend mode="normal" in="SourceGraphic" in2="effect1_dropShadow_172_288" result="shape"/>
</filter>
<filter id="filter1_d_172_288" x="0" y="0" width="632" height="263" filterUnits="userSpaceOnUse" color-interpolation-filters="sRGB">
<feFlood flood-opacity="0" result="BackgroundImageFix"/>
<feColorMatrix in="SourceAlpha" type="matrix" values="0 0 0 0 0 0 0 0 0 0 0 0 0 0 0 0 0 0 127 0" result="hardAlpha"/>
<feOffset dy="3"/>
<feGaussianBlur stdDeviation="13"/>
<feColorMatrix type="matrix" values="0 0 0 0 0 0 0 0 0 0 0 0 0 0 0 0 0 0 0.16 0"/>
<feBlend mode="normal" in2="BackgroundImageFix" result="effect1_dropShadow_172_288"/>
<feBlend mode="normal" in="SourceGraphic" in2="effect1_dropShadow_172_288" result="shape"/>
</filter>
</defs>
</svg>
