<svg width="160" height="19" viewBox="0 0 160 19" fill="none" xmlns="http://www.w3.org/2000/svg">
<path d="M13.0455 6.5C12.858 5.92614 12.6108 5.41193 12.304 4.95739C12.0028 4.49716 11.642 4.10511 11.2216 3.78125C10.8068 3.45739 10.3352 3.21023 9.80682 3.03977C9.27841 2.86932 8.69886 2.78409 8.06818 2.78409C7.03409 2.78409 6.09375 3.05114 5.24716 3.58523C4.40057 4.11932 3.72727 4.90625 3.22727 5.94602C2.72727 6.9858 2.47727 8.26136 2.47727 9.77273C2.47727 11.2841 2.73011 12.5597 3.2358 13.5994C3.74148 14.6392 4.42614 15.4261 5.28977 15.9602C6.15341 16.4943 7.125 16.7614 8.20455 16.7614C9.20455 16.7614 10.0852 16.5483 10.8466 16.1222C11.6136 15.6903 12.2102 15.0824 12.6364 14.2983C13.0682 13.5085 13.2841 12.5795 13.2841 11.5114L13.9318 11.6477H8.68182V9.77273H15.3295V11.6477C15.3295 13.0852 15.0227 14.3352 14.4091 15.3977C13.8011 16.4602 12.9602 17.2841 11.8864 17.8693C10.8182 18.4489 9.59091 18.7386 8.20455 18.7386C6.65909 18.7386 5.30114 18.375 4.13068 17.6477C2.96591 16.9205 2.05682 15.8864 1.40341 14.5455C0.755682 13.2045 0.431818 11.6136 0.431818 9.77273C0.431818 8.39205 0.616477 7.15057 0.985795 6.04829C1.3608 4.94034 1.8892 3.99716 2.57102 3.21875C3.25284 2.44034 4.05966 1.84375 4.99148 1.42898C5.9233 1.0142 6.94886 0.806818 8.06818 0.806818C8.98864 0.806818 9.84659 0.946022 10.642 1.22443C11.4432 1.49716 12.1562 1.88636 12.7812 2.39204C13.4119 2.89204 13.9375 3.49148 14.358 4.19034C14.7784 4.88352 15.0682 5.65341 15.2273 6.5H13.0455ZM19.9682 1.04545V18.5H17.9568V1.04545H19.9682ZM28.2503 18.7727C27.0685 18.7727 26.0316 18.4915 25.1395 17.929C24.2532 17.3665 23.56 16.5795 23.06 15.5682C22.5657 14.5568 22.3185 13.375 22.3185 12.0227C22.3185 10.6591 22.5657 9.46875 23.06 8.4517C23.56 7.43466 24.2532 6.64489 25.1395 6.08239C26.0316 5.51989 27.0685 5.23864 28.2503 5.23864C29.4322 5.23864 30.4662 5.51989 31.3526 6.08239C32.2447 6.64489 32.9378 7.43466 33.4322 8.4517C33.9322 9.46875 34.1822 10.6591 34.1822 12.0227C34.1822 13.375 33.9322 14.5568 33.4322 15.5682C32.9378 16.5795 32.2447 17.3665 31.3526 17.929C30.4662 18.4915 29.4322 18.7727 28.2503 18.7727ZM28.2503 16.9659C29.1481 16.9659 29.8867 16.7358 30.4662 16.2756C31.0458 15.8153 31.4748 15.2102 31.7532 14.4602C32.0316 13.7102 32.1708 12.8977 32.1708 12.0227C32.1708 11.1477 32.0316 10.3324 31.7532 9.5767C31.4748 8.82102 31.0458 8.21023 30.4662 7.74432C29.8867 7.27841 29.1481 7.04545 28.2503 7.04545C27.3526 7.04545 26.614 7.27841 26.0344 7.74432C25.4549 8.21023 25.0259 8.82102 24.7475 9.5767C24.4691 10.3324 24.3299 11.1477 24.3299 12.0227C24.3299 12.8977 24.4691 13.7102 24.7475 14.4602C25.0259 15.2102 25.4549 15.8153 26.0344 16.2756C26.614 16.7358 27.3526 16.9659 28.2503 16.9659ZM36.8052 18.5V1.04545H38.8166V7.48864H38.987C39.1347 7.26136 39.3393 6.97159 39.6007 6.61932C39.8677 6.26136 40.2484 5.94318 40.7427 5.66477C41.2427 5.38068 41.9188 5.23864 42.7711 5.23864C43.8734 5.23864 44.845 5.5142 45.6859 6.06534C46.5268 6.61648 47.183 7.39773 47.6546 8.40909C48.1262 9.42045 48.362 10.6136 48.362 11.9886C48.362 13.375 48.1262 14.5767 47.6546 15.5938C47.183 16.6051 46.5296 17.3892 45.6944 17.946C44.8592 18.4972 43.8961 18.7727 42.8052 18.7727C41.9643 18.7727 41.291 18.6335 40.7853 18.3551C40.2796 18.071 39.8904 17.75 39.6177 17.392C39.345 17.0284 39.1347 16.7273 38.987 16.4886H38.7484V18.5H36.8052ZM38.7825 11.9545C38.7825 12.9432 38.9274 13.8153 39.2171 14.571C39.5069 15.321 39.9302 15.9091 40.487 16.3352C41.0438 16.7557 41.7257 16.9659 42.5325 16.9659C43.3734 16.9659 44.0751 16.7443 44.6376 16.3011C45.2058 15.8523 45.6319 15.25 45.916 14.4943C46.2058 13.733 46.3507 12.8864 46.3507 11.9545C46.3507 11.0341 46.2086 10.2045 45.9245 9.46591C45.6461 8.72159 45.2228 8.13352 44.6546 7.7017C44.0921 7.2642 43.3847 7.04545 42.5325 7.04545C41.7143 7.04545 41.0268 7.25284 40.47 7.66761C39.9132 8.0767 39.4927 8.65057 39.2086 9.3892C38.9245 10.1222 38.7825 10.9773 38.7825 11.9545ZM54.571 18.8068C53.7414 18.8068 52.9886 18.6506 52.3125 18.3381C51.6363 18.0199 51.0994 17.5625 50.7017 16.9659C50.3039 16.3636 50.1051 15.6364 50.1051 14.7841C50.1051 14.0341 50.2528 13.4261 50.5483 12.9602C50.8437 12.4886 51.2386 12.1193 51.7329 11.8523C52.2272 11.5852 52.7727 11.3864 53.3693 11.2557C53.9716 11.1193 54.5767 11.0114 55.1846 10.9318C55.9801 10.8295 56.625 10.7528 57.1193 10.7017C57.6193 10.6449 57.9829 10.5511 58.2102 10.4205C58.4432 10.2898 58.5596 10.0625 58.5596 9.73864V9.67045C58.5596 8.82955 58.3295 8.17614 57.8693 7.71023C57.4147 7.24432 56.7244 7.01136 55.7983 7.01136C54.838 7.01136 54.0852 7.22159 53.5397 7.64205C52.9943 8.0625 52.6108 8.51136 52.3892 8.98864L50.4801 8.30682C50.821 7.51136 51.2755 6.89205 51.8437 6.44886C52.4176 6 53.0426 5.6875 53.7187 5.51136C54.4005 5.32955 55.071 5.23864 55.7301 5.23864C56.1505 5.23864 56.6335 5.28977 57.1789 5.39204C57.7301 5.48864 58.2613 5.69034 58.7727 5.99716C59.2897 6.30398 59.7187 6.76705 60.0596 7.38636C60.4005 8.00568 60.571 8.83523 60.571 9.875V18.5H58.5596V16.7273H58.4574C58.321 17.0114 58.0937 17.3153 57.7755 17.6392C57.4574 17.9631 57.0341 18.2386 56.5057 18.4659C55.9772 18.6932 55.3324 18.8068 54.571 18.8068ZM54.8778 17C55.6733 17 56.3437 16.8438 56.8892 16.5312C57.4403 16.2188 57.8551 15.8153 58.1335 15.321C58.4176 14.8267 58.5596 14.3068 58.5596 13.7614V11.9205C58.4744 12.0227 58.2869 12.1165 57.9971 12.2017C57.713 12.2812 57.3835 12.3523 57.0085 12.4148C56.6392 12.4716 56.2784 12.5227 55.9261 12.5682C55.5795 12.608 55.2983 12.642 55.0824 12.6705C54.5596 12.7386 54.071 12.8494 53.6164 13.0028C53.1676 13.1506 52.8039 13.375 52.5255 13.6761C52.2528 13.9716 52.1164 14.375 52.1164 14.8864C52.1164 15.5852 52.375 16.1136 52.892 16.4716C53.4147 16.8239 54.0767 17 54.8778 17ZM65.5335 1.04545V18.5H63.5222V1.04545H65.5335Z" fill="white"/>
<path d="M84.1241 5.63068C84.0332 4.82386 83.6582 4.19886 82.9991 3.75568C82.34 3.30682 81.5104 3.08239 80.5104 3.08239C79.7945 3.08239 79.1752 3.19602 78.6525 3.42329C78.1297 3.64489 77.7235 3.9517 77.4337 4.34375C77.1496 4.73011 77.0076 5.17045 77.0076 5.66477C77.0076 6.07955 77.1042 6.4375 77.2974 6.73864C77.4962 7.03977 77.7547 7.29261 78.0729 7.49716C78.3968 7.69602 78.7434 7.86364 79.1127 8C79.482 8.13068 79.8371 8.23864 80.178 8.32386L81.8826 8.76705C82.4394 8.90341 83.0104 9.08807 83.5957 9.32102C84.1809 9.55398 84.7235 9.8608 85.2235 10.2415C85.7235 10.6222 86.1269 11.0938 86.4337 11.6562C86.7462 12.2188 86.9025 12.892 86.9025 13.6761C86.9025 14.6648 86.6468 15.5426 86.1354 16.3097C85.6297 17.0767 84.8939 17.6818 83.928 18.125C82.9678 18.5682 81.8059 18.7898 80.4422 18.7898C79.1354 18.7898 78.0047 18.5824 77.0502 18.1676C76.0957 17.7528 75.3485 17.1648 74.8087 16.4034C74.2689 15.6364 73.9707 14.7273 73.9138 13.6761H76.5559C76.607 14.3068 76.8116 14.8324 77.1695 15.2528C77.5332 15.6676 77.9962 15.9773 78.5587 16.1818C79.1269 16.3807 79.7491 16.4801 80.4252 16.4801C81.1695 16.4801 81.8314 16.3636 82.411 16.1307C82.9962 15.892 83.4564 15.5625 83.7917 15.142C84.1269 14.7159 84.2945 14.2187 84.2945 13.6506C84.2945 13.1335 84.1468 12.7102 83.8513 12.3807C83.5616 12.0511 83.1667 11.7784 82.6667 11.5625C82.1724 11.3466 81.6127 11.1562 80.9877 10.9915L78.9252 10.429C77.5275 10.0483 76.4195 9.48864 75.6013 8.75C74.7888 8.01136 74.3826 7.03409 74.3826 5.81818C74.3826 4.8125 74.6553 3.93466 75.2008 3.18466C75.7462 2.43466 76.4849 1.85227 77.4167 1.4375C78.3485 1.01705 79.3996 0.806818 80.5701 0.806818C81.7519 0.806818 82.7945 1.0142 83.6979 1.42898C84.607 1.84375 85.3229 2.41477 85.8457 3.14204C86.3684 3.86364 86.6411 4.69318 86.6638 5.63068H84.1241ZM94.6391 18.7642C93.4119 18.7642 92.3409 18.483 91.4261 17.9205C90.5113 17.358 89.8011 16.571 89.2954 15.5597C88.7897 14.5483 88.5369 13.3665 88.5369 12.0142C88.5369 10.6562 88.7897 9.46875 89.2954 8.4517C89.8011 7.43466 90.5113 6.64489 91.4261 6.08239C92.3409 5.51989 93.4119 5.23864 94.6391 5.23864C95.8664 5.23864 96.9374 5.51989 97.8522 6.08239C98.767 6.64489 99.4772 7.43466 99.9829 8.4517C100.489 9.46875 100.741 10.6562 100.741 12.0142C100.741 13.3665 100.489 14.5483 99.9829 15.5597C99.4772 16.571 98.767 17.358 97.8522 17.9205C96.9374 18.483 95.8664 18.7642 94.6391 18.7642ZM94.6477 16.625C95.4431 16.625 96.1022 16.4148 96.6249 15.9943C97.1477 15.5739 97.534 15.0142 97.784 14.3153C98.0397 13.6165 98.1676 12.8466 98.1676 12.0057C98.1676 11.1705 98.0397 10.4034 97.784 9.70455C97.534 9 97.1477 8.43466 96.6249 8.00852C96.1022 7.58239 95.4431 7.36932 94.6477 7.36932C93.8465 7.36932 93.1818 7.58239 92.6534 8.00852C92.1306 8.43466 91.7414 9 91.4857 9.70455C91.2357 10.4034 91.1107 11.1705 91.1107 12.0057C91.1107 12.8466 91.2357 13.6165 91.4857 14.3153C91.7414 15.0142 92.1306 15.5739 92.6534 15.9943C93.1818 16.4148 93.8465 16.625 94.6477 16.625ZM105.414 1.04545V18.5H102.866V1.04545H105.414ZM116.415 13.071V5.40909H118.972V18.5H116.466V16.233H116.33C116.029 16.9318 115.546 17.5142 114.881 17.9801C114.222 18.4403 113.401 18.6705 112.418 18.6705C111.577 18.6705 110.833 18.4858 110.185 18.1165C109.543 17.7415 109.037 17.1875 108.668 16.4545C108.304 15.7216 108.122 14.8153 108.122 13.7358V5.40909H110.671V13.429C110.671 14.321 110.918 15.0312 111.412 15.5597C111.907 16.0881 112.549 16.3523 113.338 16.3523C113.816 16.3523 114.29 16.233 114.762 15.9943C115.239 15.7557 115.634 15.3949 115.946 14.9119C116.264 14.429 116.421 13.8153 116.415 13.071ZM127.787 5.40909V7.45455H120.636V5.40909H127.787ZM122.554 2.27273H125.102V14.6562C125.102 15.1506 125.176 15.5227 125.324 15.7727C125.471 16.017 125.662 16.1847 125.895 16.2756C126.133 16.3608 126.392 16.4034 126.67 16.4034C126.875 16.4034 127.054 16.3892 127.207 16.3608C127.361 16.3324 127.48 16.3097 127.565 16.2926L128.025 18.3977C127.878 18.4545 127.667 18.5114 127.395 18.5682C127.122 18.6307 126.781 18.6648 126.372 18.6705C125.701 18.6818 125.076 18.5625 124.497 18.3125C123.917 18.0625 123.449 17.6761 123.091 17.1534C122.733 16.6307 122.554 15.9744 122.554 15.1847V2.27273ZM129.886 18.5V5.40909H132.434V18.5H129.886ZM131.173 3.3892C130.729 3.3892 130.349 3.24148 130.03 2.94602C129.718 2.64489 129.562 2.28693 129.562 1.87216C129.562 1.4517 129.718 1.09375 130.03 0.798295C130.349 0.497159 130.729 0.346591 131.173 0.346591C131.616 0.346591 131.994 0.497159 132.306 0.798295C132.624 1.09375 132.783 1.4517 132.783 1.87216C132.783 2.28693 132.624 2.64489 132.306 2.94602C131.994 3.24148 131.616 3.3892 131.173 3.3892ZM140.656 18.7642C139.429 18.7642 138.358 18.483 137.443 17.9205C136.528 17.358 135.818 16.571 135.313 15.5597C134.807 14.5483 134.554 13.3665 134.554 12.0142C134.554 10.6562 134.807 9.46875 135.313 8.4517C135.818 7.43466 136.528 6.64489 137.443 6.08239C138.358 5.51989 139.429 5.23864 140.656 5.23864C141.884 5.23864 142.955 5.51989 143.869 6.08239C144.784 6.64489 145.494 7.43466 146 8.4517C146.506 9.46875 146.759 10.6562 146.759 12.0142C146.759 13.3665 146.506 14.5483 146 15.5597C145.494 16.571 144.784 17.358 143.869 17.9205C142.955 18.483 141.884 18.7642 140.656 18.7642ZM140.665 16.625C141.46 16.625 142.119 16.4148 142.642 15.9943C143.165 15.5739 143.551 15.0142 143.801 14.3153C144.057 13.6165 144.185 12.8466 144.185 12.0057C144.185 11.1705 144.057 10.4034 143.801 9.70455C143.551 9 143.165 8.43466 142.642 8.00852C142.119 7.58239 141.46 7.36932 140.665 7.36932C139.864 7.36932 139.199 7.58239 138.671 8.00852C138.148 8.43466 137.759 9 137.503 9.70455C137.253 10.4034 137.128 11.1705 137.128 12.0057C137.128 12.8466 137.253 13.6165 137.503 14.3153C137.759 15.0142 138.148 15.5739 138.671 15.9943C139.199 16.4148 139.864 16.625 140.665 16.625ZM151.431 10.7273V18.5H148.883V5.40909H151.329V7.53977H151.491C151.792 6.84659 152.264 6.28977 152.906 5.86932C153.554 5.44886 154.369 5.23864 155.352 5.23864C156.244 5.23864 157.025 5.42614 157.696 5.80114C158.366 6.17045 158.886 6.72159 159.255 7.45455C159.625 8.1875 159.809 9.09375 159.809 10.1733V18.5H157.261V10.4801C157.261 9.53125 157.014 8.78977 156.519 8.25568C156.025 7.71591 155.346 7.44602 154.482 7.44602C153.892 7.44602 153.366 7.57386 152.906 7.82955C152.451 8.08523 152.09 8.46023 151.823 8.95455C151.562 9.44318 151.431 10.0341 151.431 10.7273Z" fill="#3BC7DA"/>
</svg>
