<svg width="208" height="61" viewBox="0 0 208 61" fill="none" xmlns="http://www.w3.org/2000/svg">
<g clip-path="url(#clip0_58_896)">
<g clip-path="url(#clip1_58_896)">
<path d="M0 30.338C0 13.5827 12.8808 0 28.7701 0C44.6595 0 57.5403 13.5827 57.54 30.338C57.54 47.0932 44.6592 60.6759 28.7701 60.6756C12.8808 60.6756 0 47.0929 0 30.338ZM28.7701 59.1309C43.8503 59.1309 56.0751 46.2399 56.0751 30.338C56.0751 14.436 43.8503 1.54505 28.7701 1.54505C13.69 1.54505 1.4652 14.436 1.4652 30.338C1.4652 46.2399 13.69 59.1309 28.7701 59.1309Z" fill="#3BC7DA"/>
<g clip-path="url(#clip2_58_896)">
<g clip-path="url(#clip3_58_896)">
<path d="M19.0692 25.8654C19.1805 25.7698 19.2618 25.641 19.3025 25.4959C20.2247 22.22 21.6997 20.0726 23.6895 19.1035C23.4473 22.4003 25.4685 24.0667 28.7126 24.0667C29.0543 24.0667 29.4095 24.0485 29.7772 24.011C30.4058 23.9474 31.037 23.9154 31.6686 23.915C36.6891 23.915 39.6373 25.9808 39.6373 25.9808C39.6373 25.9808 37.6951 14.2258 31.5625 13.3256C31.1436 13.2639 30.7212 13.2327 30.2982 13.2324C27.4641 13.2319 24.9502 14.6693 24.0353 17.3566C23.8494 17.4158 23.6658 17.4828 23.485 17.5574C20.9051 18.6247 19.0367 21.1538 17.934 25.0651C17.8692 25.2957 17.9095 25.5566 18.0643 25.7568C18.3133 26.0794 18.7632 26.128 19.0692 25.8654ZM25.1511 18.8525C25.1615 18.7719 25.1741 18.6925 25.1883 18.6137C28.2499 18.0504 31.2565 19.884 31.2905 19.9049V19.9044C31.5405 20.0599 31.8659 20.045 32.1044 19.8404C32.4104 19.5778 32.4565 19.1034 32.2069 18.7808C32.1525 18.7102 32.0877 18.6533 32.017 18.6092L32.0176 18.6086C31.8711 18.5171 29.0182 16.7669 25.7672 17.0195C26.0376 16.5649 26.3886 16.1678 26.8196 15.8325C27.7267 15.127 28.9617 14.7381 30.2982 14.7381C30.6492 14.7381 31.0085 14.7652 31.3658 14.8176C32.4151 14.9715 33.4136 15.5948 34.3327 16.6709C35.1518 17.6285 35.9041 18.9308 36.5689 20.5414C36.9743 21.5227 37.297 22.4995 37.5455 23.36C35.7262 22.7367 33.706 22.409 31.6687 22.409C31.0012 22.409 30.3192 22.4432 29.6418 22.5116C29.3206 22.5442 29.0083 22.5602 28.7128 22.5602C26.9139 22.5602 26.0607 21.9849 25.6616 21.5023C25.171 20.9093 24.9994 20.0175 25.1511 18.8525Z" fill="#3BC7DA"/>
<path d="M44.5946 35.9172C44.6387 35.7176 44.6754 35.5163 44.7045 35.3137C45.1188 32.424 43.9748 29.4521 41.3135 26.4889C41.1832 26.344 41.0036 26.2595 40.8142 26.2542C40.6248 26.2488 40.4412 26.3231 40.3037 26.4605C40.1662 26.5979 40.0861 26.7873 40.081 26.987C40.076 27.1867 40.1464 27.3804 40.2767 27.5253C42.5056 30.0053 43.5317 32.4262 43.3329 34.7274C42.4448 34.0854 41.5812 33.7831 40.7642 33.7831C38.9512 33.7831 37.3683 35.2702 36.2583 37.8328C33.6863 43.7718 29.7109 45.8524 29.7109 45.8524C29.7109 45.8524 33.7224 47.4017 37.6984 47.4017C40.1935 47.4017 42.674 46.7917 44.1416 44.806C46.2057 42.0128 46.6007 38.4159 44.5946 35.9172ZM43.0149 43.8806C42.0269 45.2177 40.2379 45.8955 37.6984 45.8955C36.0015 45.8955 34.2758 45.5861 32.909 45.2518C34.3595 43.8762 36.1569 41.693 37.5577 38.4584C38.0232 37.3845 38.5845 36.53 39.1808 35.9873C39.6971 35.5174 40.2155 35.289 40.7642 35.289C41.3924 35.289 42.0803 35.5912 42.8088 36.1875C42.8686 36.2375 42.9276 36.2886 42.9856 36.3409C41.9171 39.4187 38.9088 41.2472 38.8743 41.2676L38.8748 41.2682C38.6222 41.4188 38.4716 41.7232 38.5202 42.0437C38.583 42.4541 38.9496 42.7332 39.3388 42.667C39.422 42.6528 39.502 42.6231 39.5753 42.5793L39.5758 42.5799C39.7238 42.4922 42.5851 40.7635 44.0036 37.6702C44.3065 38.2737 44.4686 38.9466 44.4818 39.6719C44.5073 41.0712 43.9863 42.566 43.0149 43.8806Z" fill="#3BC7DA"/>
<path d="M28.5716 45.5198C28.4373 45.4659 28.2908 45.4559 28.151 45.4912C25 46.2871 22.4986 46.0135 20.7081 44.6808C23.834 43.1033 23.9428 39.9972 21.6946 36.6679C18.1037 31.3495 18.3825 26.6787 18.3825 26.6787C18.3825 26.6787 9.69929 34.3298 12.026 40.3801C13.1496 43.3013 15.4579 45.3345 18.1063 45.3345C18.4397 45.3342 18.7723 45.3022 19.1002 45.239C19.242 45.3789 19.3889 45.5129 19.5407 45.6406C20.9676 46.8415 22.7587 47.4437 24.8913 47.4431C25.9966 47.4431 27.1949 47.281 28.4802 46.9572C28.4817 46.9566 28.4839 46.9561 28.4839 46.9561C28.5969 46.9275 28.7017 46.8703 28.789 46.7893C28.8764 46.7084 28.9436 46.6063 28.985 46.4917C29.0524 46.305 29.0467 46.0977 28.9691 45.9155C28.8916 45.7332 28.7486 45.5909 28.5716 45.5198ZM19.5563 43.5572C17.5633 41.0431 17.5654 37.3811 17.5659 37.3392H17.5654C17.568 37.0331 17.3933 36.7435 17.1056 36.6282C16.7374 36.4804 16.3247 36.6757 16.1844 37.064C16.1545 37.147 16.1389 37.235 16.1384 37.3238H16.1373C16.1358 37.5031 16.1247 40.982 17.9566 43.8243C17.0548 43.7884 16.1666 43.426 15.3799 42.7707C14.5205 42.0547 13.8185 41.0327 13.3499 39.8142C12.9518 38.7789 12.9644 37.5549 13.3886 36.1776C13.7657 34.9514 14.4588 33.6133 15.4489 32.2007C16.0526 31.3396 16.6939 30.5564 17.2761 29.8988C17.681 31.9116 18.5749 34.6447 20.5313 37.5416C21.5863 39.1043 22.009 40.5395 21.7218 41.5836C21.5036 42.3741 20.8478 43.0095 19.7707 43.4723C19.6991 43.5027 19.6279 43.5308 19.5563 43.5572Z" fill="#3BC7DA"/>
</g>
</g>
</g>
</g>
<path d="M73.1705 43V16.8182H82.017C84.0625 16.8182 85.7415 17.1676 87.054 17.8665C88.3665 18.5568 89.3381 19.5071 89.9688 20.7173C90.5994 21.9276 90.9148 23.304 90.9148 24.8466C90.9148 26.3892 90.5994 27.7571 89.9688 28.9503C89.3381 30.1435 88.3707 31.081 87.0668 31.7628C85.7628 32.4361 84.0966 32.7727 82.0682 32.7727H74.9091V29.9091H81.9659C83.3636 29.9091 84.4886 29.7045 85.3409 29.2955C86.2017 28.8864 86.8239 28.3068 87.2074 27.5568C87.5994 26.7983 87.7955 25.8949 87.7955 24.8466C87.7955 23.7983 87.5994 22.8821 87.2074 22.098C86.8153 21.3139 86.1889 20.7088 85.3281 20.2827C84.4673 19.848 83.3295 19.6307 81.9148 19.6307H76.3409V43H73.1705ZM85.4943 31.2386L91.9375 43H88.2557L81.9148 31.2386H85.4943ZM102.731 43.4091C100.839 43.4091 99.2066 42.9915 97.8344 42.1562C96.4708 41.3125 95.4182 40.1364 94.6767 38.6278C93.9438 37.1108 93.5773 35.3466 93.5773 33.3352C93.5773 31.3239 93.9438 29.5511 94.6767 28.017C95.4182 26.4744 96.4495 25.2727 97.7705 24.4119C99.1 23.5426 100.651 23.108 102.424 23.108C103.447 23.108 104.457 23.2784 105.454 23.6193C106.451 23.9602 107.359 24.5142 108.177 25.2812C108.995 26.0398 109.647 27.0455 110.133 28.2983C110.619 29.5511 110.861 31.0937 110.861 32.9261V34.2045H95.725V31.5966H107.793C107.793 30.4886 107.572 29.5 107.128 28.6307C106.694 27.7614 106.072 27.0753 105.262 26.5724C104.461 26.0696 103.515 25.8182 102.424 25.8182C101.222 25.8182 100.182 26.1165 99.3046 26.7131C98.4353 27.3011 97.7662 28.0682 97.2975 29.0142C96.8287 29.9602 96.5944 30.9744 96.5944 32.0568V33.7955C96.5944 35.2784 96.85 36.5355 97.3614 37.5668C97.8813 38.5895 98.6015 39.3693 99.5219 39.9062C100.442 40.4347 101.512 40.6989 102.731 40.6989C103.523 40.6989 104.239 40.5881 104.878 40.3665C105.526 40.1364 106.084 39.7955 106.553 39.3438C107.022 38.8835 107.384 38.3125 107.64 37.6307L110.555 38.4489C110.248 39.4375 109.732 40.3068 109.008 41.0568C108.283 41.7983 107.388 42.3778 106.323 42.7955C105.258 43.2045 104.06 43.4091 102.731 43.4091ZM122.348 43.4091C120.507 43.4091 118.922 42.9744 117.592 42.1051C116.263 41.2358 115.24 40.0384 114.524 38.5128C113.808 36.9872 113.45 35.2443 113.45 33.2841C113.45 31.2898 113.817 29.5298 114.55 28.0043C115.291 26.4702 116.323 25.2727 117.644 24.4119C118.973 23.5426 120.524 23.108 122.297 23.108C123.678 23.108 124.922 23.3636 126.03 23.875C127.138 24.3864 128.046 25.1023 128.753 26.0227C129.46 26.9432 129.899 28.017 130.07 29.2443H127.053C126.823 28.3494 126.311 27.5568 125.519 26.8665C124.735 26.1676 123.678 25.8182 122.348 25.8182C121.172 25.8182 120.141 26.125 119.254 26.7386C118.377 27.3437 117.69 28.2003 117.196 29.3082C116.71 30.4077 116.467 31.6989 116.467 33.1818C116.467 34.6989 116.706 36.0199 117.183 37.1449C117.669 38.2699 118.351 39.1435 119.229 39.7656C120.115 40.3878 121.155 40.6989 122.348 40.6989C123.132 40.6989 123.844 40.5625 124.483 40.2898C125.122 40.017 125.664 39.625 126.107 39.1136C126.55 38.6023 126.865 37.9886 127.053 37.2727H130.07C129.899 38.4318 129.477 39.4759 128.804 40.4048C128.139 41.3253 127.257 42.0582 126.158 42.6037C125.067 43.1406 123.797 43.4091 122.348 43.4091ZM133.4 43V23.3636H136.417V43H133.4ZM134.934 20.0909C134.346 20.0909 133.839 19.8906 133.413 19.4901C132.995 19.0895 132.787 18.608 132.787 18.0455C132.787 17.483 132.995 17.0014 133.413 16.6009C133.839 16.2003 134.346 16 134.934 16C135.522 16 136.025 16.2003 136.443 16.6009C136.869 17.0014 137.082 17.483 137.082 18.0455C137.082 18.608 136.869 19.0895 136.443 19.4901C136.025 19.8906 135.522 20.0909 134.934 20.0909ZM148.841 43.4091C147 43.4091 145.414 42.9744 144.085 42.1051C142.755 41.2358 141.733 40.0384 141.017 38.5128C140.301 36.9872 139.943 35.2443 139.943 33.2841C139.943 31.2898 140.309 29.5298 141.042 28.0043C141.784 26.4702 142.815 25.2727 144.136 24.4119C145.466 23.5426 147.017 23.108 148.789 23.108C150.17 23.108 151.414 23.3636 152.522 23.875C153.63 24.3864 154.538 25.1023 155.245 26.0227C155.953 26.9432 156.392 28.017 156.562 29.2443H153.545C153.315 28.3494 152.804 27.5568 152.011 26.8665C151.227 26.1676 150.17 25.8182 148.841 25.8182C147.664 25.8182 146.633 26.125 145.747 26.7386C144.869 27.3437 144.183 28.2003 143.689 29.3082C143.203 30.4077 142.96 31.6989 142.96 33.1818C142.96 34.6989 143.198 36.0199 143.676 37.1449C144.162 38.2699 144.843 39.1435 145.721 39.7656C146.608 40.3878 147.647 40.6989 148.841 40.6989C149.625 40.6989 150.336 40.5625 150.975 40.2898C151.615 40.017 152.156 39.625 152.599 39.1136C153.042 38.6023 153.358 37.9886 153.545 37.2727H156.562C156.392 38.4318 155.97 39.4759 155.296 40.4048C154.632 41.3253 153.75 42.0582 152.65 42.6037C151.559 43.1406 150.289 43.4091 148.841 43.4091ZM162.91 16.8182V43H159.893V16.8182H162.91ZM173.134 43.4602C171.89 43.4602 170.76 43.2259 169.746 42.7571C168.732 42.2798 167.927 41.5938 167.33 40.6989C166.733 39.7955 166.435 38.7045 166.435 37.4261C166.435 36.3011 166.657 35.3892 167.1 34.6903C167.543 33.983 168.135 33.429 168.877 33.0284C169.618 32.6278 170.437 32.3295 171.331 32.1335C172.235 31.929 173.143 31.767 174.054 31.6477C175.248 31.4943 176.215 31.3793 176.956 31.3026C177.706 31.2173 178.252 31.0767 178.593 30.8807C178.942 30.6847 179.117 30.3437 179.117 29.858V29.7557C179.117 28.4943 178.772 27.5142 178.081 26.8153C177.4 26.1165 176.364 25.767 174.975 25.767C173.535 25.767 172.405 26.0824 171.587 26.7131C170.769 27.3437 170.194 28.017 169.861 28.733L166.998 27.7102C167.509 26.517 168.191 25.5881 169.043 24.9233C169.904 24.25 170.841 23.7812 171.856 23.517C172.878 23.2443 173.884 23.108 174.873 23.108C175.503 23.108 176.228 23.1847 177.046 23.3381C177.873 23.483 178.669 23.7855 179.437 24.2457C180.212 24.706 180.856 25.4006 181.367 26.3295C181.878 27.2585 182.134 28.5028 182.134 30.0625V43H179.117V40.3409H178.964C178.759 40.767 178.418 41.223 177.941 41.7088C177.464 42.1946 176.829 42.608 176.036 42.9489C175.243 43.2898 174.276 43.4602 173.134 43.4602ZM173.594 40.75C174.787 40.75 175.793 40.5156 176.611 40.0469C177.438 39.5781 178.06 38.973 178.478 38.2315C178.904 37.4901 179.117 36.7102 179.117 35.892V33.1307C178.989 33.2841 178.708 33.4247 178.273 33.5526C177.847 33.6719 177.353 33.7784 176.79 33.8722C176.236 33.9574 175.695 34.0341 175.167 34.1023C174.647 34.1619 174.225 34.2131 173.901 34.2557C173.117 34.358 172.384 34.5241 171.702 34.7543C171.029 34.9759 170.483 35.3125 170.066 35.7642C169.657 36.2074 169.452 36.8125 169.452 37.5795C169.452 38.6278 169.84 39.4205 170.616 39.9574C171.4 40.4858 172.393 40.75 173.594 40.75Z" fill="white"/>
<path d="M194.436 40.8651V24.6804H196.622V40.8651H194.436ZM187.43 33.8594V31.6861H203.628V33.8594H187.43Z" fill="#3BC7DA"/>
<defs>
<clipPath id="clip0_58_896">
<rect width="57.54" height="60.6757" fill="white"/>
</clipPath>
<clipPath id="clip1_58_896">
<rect width="57.54" height="60.6757" fill="white"/>
</clipPath>
<clipPath id="clip2_58_896">
<rect width="34.281" height="34.2105" fill="white" transform="translate(11.6299 13.2324)"/>
</clipPath>
<clipPath id="clip3_58_896">
<rect width="34.281" height="34.2105" fill="white" transform="translate(11.6299 13.2324)"/>
</clipPath>
</defs>
</svg>
