<svg width="38" height="40" viewBox="0 0 38 40" fill="none" xmlns="http://www.w3.org/2000/svg">
<g clip-path="url(#clip0_58_770)">
<g clip-path="url(#clip1_58_770)">
<path d="M0 19.793C0 8.86158 8.40362 0 18.7701 0C29.1366 0 37.5402 8.86158 37.54 19.793C37.54 30.7244 29.1364 39.5859 18.7701 39.5857C8.40362 39.5857 0 30.7242 0 19.793ZM18.7701 38.5779C28.6086 38.5779 36.5843 30.1677 36.5843 19.793C36.5843 9.41827 28.6086 1.00802 18.7701 1.00802C8.93155 1.00802 0.955922 9.41827 0.955922 19.793C0.955922 30.1677 8.93155 38.5779 18.7701 38.5779Z" fill="#3BC7DA"/>
<g clip-path="url(#clip2_58_770)">
<g clip-path="url(#clip3_58_770)">
<path d="M12.4407 16.8748C12.5133 16.8124 12.5663 16.7284 12.5929 16.6337C13.1945 14.4964 14.1569 13.0955 15.455 12.4632C15.297 14.6141 16.6157 15.7013 18.7322 15.7013C18.9551 15.7013 19.1868 15.6894 19.4267 15.6649C19.8369 15.6235 20.2487 15.6026 20.6607 15.6023C23.9362 15.6023 25.8596 16.95 25.8596 16.95C25.8596 16.95 24.5925 9.28092 20.5915 8.69362C20.3182 8.65332 20.0426 8.633 19.7667 8.63281C17.9176 8.63244 16.2775 9.57024 15.6806 11.3235C15.5593 11.3621 15.4396 11.4058 15.3216 11.4545C13.6384 12.1508 12.4194 13.8008 11.7001 16.3526C11.6577 16.5031 11.684 16.6733 11.785 16.8039C11.9475 17.0144 12.241 17.0461 12.4407 16.8748ZM16.4086 12.2994C16.4154 12.2469 16.4236 12.1951 16.4328 12.1436C18.4303 11.7762 20.3918 12.9724 20.414 12.9861V12.9857C20.5771 13.0872 20.7894 13.0775 20.945 12.944C21.1447 12.7727 21.1747 12.4632 21.0119 12.2526C20.9764 12.2066 20.9341 12.1695 20.888 12.1407L20.8884 12.1403C20.7928 12.0806 18.9316 10.9387 16.8106 11.1036C16.987 10.807 17.216 10.5479 17.4972 10.3291C18.0889 9.86887 18.8947 9.61516 19.7667 9.61516C19.9956 9.61516 20.2301 9.6328 20.4631 9.66698C21.1477 9.7674 21.7992 10.174 22.3988 10.8761C22.9332 11.5009 23.424 12.3505 23.8577 13.4013C24.1222 14.0415 24.3328 14.6788 24.4949 15.2402C23.3079 14.8336 21.9899 14.6198 20.6608 14.6198C20.2253 14.6198 19.7803 14.6421 19.3384 14.6867C19.1288 14.708 18.9251 14.7184 18.7323 14.7184C17.5587 14.7184 17.0021 14.3431 16.7417 14.0282C16.4216 13.6414 16.3096 13.0595 16.4086 12.2994Z" fill="#3BC7DA"/>
<path d="M29.0932 23.4324C29.1219 23.3022 29.1459 23.1709 29.1649 23.0387C29.4352 21.1534 28.6888 19.2144 26.9525 17.2813C26.8675 17.1867 26.7503 17.1316 26.6267 17.1281C26.5032 17.1246 26.3834 17.173 26.2937 17.2627C26.204 17.3524 26.1517 17.4759 26.1484 17.6062C26.1451 17.7365 26.191 17.8628 26.2761 17.9574C27.7302 19.5754 28.3997 21.1549 28.27 22.6562C27.6906 22.2373 27.1272 22.0401 26.5941 22.0401C25.4113 22.0401 24.3786 23.0103 23.6544 24.6822C21.9764 28.5568 19.3828 29.9143 19.3828 29.9143C19.3828 29.9143 21.9999 30.9251 24.5939 30.9251C26.2218 30.9251 27.8401 30.5271 28.7976 29.2316C30.1443 27.4093 30.402 25.0626 29.0932 23.4324ZM28.0625 28.6278C27.4179 29.5002 26.2508 29.9424 24.5939 29.9424C23.4868 29.9424 22.361 29.7405 21.4693 29.5225C22.4156 28.625 23.5882 27.2006 24.5022 25.0904C24.8059 24.3897 25.1721 23.8322 25.5611 23.4782C25.898 23.1716 26.2362 23.0225 26.5941 23.0225C27.004 23.0225 27.4528 23.2197 27.9281 23.6088C27.9671 23.6414 28.0056 23.6747 28.0434 23.7088C27.3463 25.7169 25.3836 26.9098 25.3611 26.9231L25.3615 26.9235C25.1967 27.0217 25.0984 27.2204 25.1301 27.4295C25.1711 27.6972 25.4103 27.8793 25.6642 27.8361C25.7184 27.8268 25.7707 27.8075 25.8185 27.7789L25.8188 27.7793C25.9154 27.722 27.7821 26.5942 28.7076 24.5761C28.9052 24.9698 29.011 25.4088 29.0195 25.8821C29.0362 26.795 28.6963 27.7702 28.0625 28.6278Z" fill="#3BC7DA"/>
<path d="M18.64 29.6975C18.5524 29.6623 18.4567 29.6558 18.3656 29.6788C16.3098 30.1981 14.6778 30.0196 13.5097 29.1501C15.5491 28.1209 15.6201 26.0945 14.1533 23.9224C11.8105 20.4526 11.9924 17.4053 11.9924 17.4053C11.9924 17.4053 6.32736 22.397 7.84534 26.3443C8.57838 28.2501 10.0844 29.5766 11.8123 29.5766C12.0297 29.5764 12.2467 29.5555 12.4607 29.5143C12.5532 29.6056 12.649 29.693 12.748 29.7763C13.679 30.5598 14.8475 30.9527 16.2389 30.9523C16.96 30.9523 17.7418 30.8465 18.5803 30.6353C18.5813 30.6349 18.5827 30.6345 18.5827 30.6345C18.6565 30.6159 18.7248 30.5786 18.7818 30.5258C18.8388 30.473 18.8827 30.4063 18.9097 30.3316C18.9536 30.2098 18.9499 30.0746 18.8993 29.9557C18.8487 29.8368 18.7554 29.7439 18.64 29.6975ZM12.7582 28.4171C11.458 26.7768 11.4593 24.3877 11.4597 24.3604H11.4593C11.461 24.1606 11.3471 23.9717 11.1594 23.8965C10.9191 23.8 10.6499 23.9275 10.5584 24.1808C10.5388 24.235 10.5286 24.2924 10.5283 24.3503H10.5276C10.5266 24.4673 10.5194 26.7369 11.7146 28.5913C11.1262 28.5679 10.5468 28.3315 10.0335 27.904C9.47283 27.4368 9.01481 26.77 8.70908 25.9751C8.44938 25.2996 8.45755 24.5011 8.73433 23.6025C8.98035 22.8025 9.43255 21.9295 10.0785 21.0079C10.4724 20.4461 10.8908 19.9351 11.2706 19.5061C11.5347 20.8193 12.1179 22.6024 13.3943 24.4924C14.0826 25.5119 14.3584 26.4483 14.171 27.1295C14.0287 27.6452 13.6008 28.0597 12.8981 28.3617C12.8514 28.3815 12.8049 28.3998 12.7582 28.4171Z" fill="#3BC7DA"/>
</g>
</g>
</g>
</g>
<defs>
<clipPath id="clip0_58_770">
<rect width="37.54" height="39.5858" fill="white"/>
</clipPath>
<clipPath id="clip1_58_770">
<rect width="37.54" height="39.5858" fill="white"/>
</clipPath>
<clipPath id="clip2_58_770">
<rect width="22.3654" height="22.3195" fill="white" transform="translate(7.58691 8.63281)"/>
</clipPath>
<clipPath id="clip3_58_770">
<rect width="22.3654" height="22.3195" fill="white" transform="translate(7.58691 8.63281)"/>
</clipPath>
</defs>
</svg>
